<?xml version="1.0" encoding="utf-8"?>
<!-- Generator: Adobe Illustrator 19.0.0, SVG Export Plug-In . SVG Version: 6.00 Build 0)  -->
<svg version="1.1" id="_x33_d_x2F_4d" xmlns="http://www.w3.org/2000/svg" xmlns:xlink="http://www.w3.org/1999/xlink" x="0px"
	 y="0px" viewBox="0 0 26.6 10.2" style="enable-background:new 0 0 26.6 10.2;" xml:space="preserve">
<style type="text/css">
	.st0{fill:none;stroke:#036CE2;stroke-miterlimit:10;}
	.st1{fill:none;stroke:#036CE2;stroke-width:0.5288;stroke-miterlimit:10;}
</style>
<path class="st0" d="M24.5,0.6L2.2,0.5C1.3,0.5,0.6,1.1,0.5,2l0,6.2C0.4,9,1.1,9.7,2,9.7h8.1c0.9,0,1.6-0.7,1.6-1.6
	c0-0.9,0.7-1.6,1.6-1.6c0.9,0,1.6,0.7,1.6,1.6c0,0.9,0.7,1.6,1.6,1.6h8.1c0.9,0,1.6-0.7,1.5-1.6l0-6.1C26,1.2,25.3,0.6,24.5,0.6
	L24.5,0.6z"/>
<path class="st1" d="M9.4,8.2H3c-0.3,0-0.5-0.2-0.5-0.5v-5c0-0.3,0.2-0.5,0.5-0.5h6.5c0.3,0,0.5,0.2,0.5,0.5v5
	C10,7.9,9.7,8.2,9.4,8.2z"/>
<path class="st1" d="M23.9,8.2h-6.5c-0.3,0-0.5-0.2-0.5-0.5v-5c0-0.3,0.2-0.5,0.5-0.5h6.5c0.3,0,0.5,0.2,0.5,0.5v5
	C24.4,7.9,24.1,8.2,23.9,8.2z"/>
</svg>
