<?xml version="1.0" encoding="utf-8"?>
<!-- Generator: Adobe Illustrator 19.0.0, SVG Export Plug-In . SVG Version: 6.00 Build 0)  -->
<svg version="1.1" id="Layer_1" xmlns="http://www.w3.org/2000/svg" xmlns:xlink="http://www.w3.org/1999/xlink" x="0px" y="0px"
	 viewBox="-58 149.8 494.2 494.2" style="enable-background:new -58 149.8 494.2 494.2;" xml:space="preserve">
<style type="text/css">
	.st0{fill:#797A7D;}
</style>
<path class="st0" d="M189.1,149.8C52.9,149.8-58,260.7-58,396.9S52.9,644,189.1,644c57.7,0,110.9-19.6,152.7-53.2
	c24.9-19.3,41.2-41.2,41.2-41.2c32.9-41.8,53.2-95,53.2-152.7C436.2,260.7,325.4,149.8,189.1,149.8z M189.1,593.4
	C80.7,593.4-7.3,505.3-7.3,397s88.1-196.5,196.4-196.5s196.4,88.1,196.4,196.4S297.5,593.4,189.1,593.4z"/>
<path class="st0" d="M282.2,396.9c0,11.4-9.3,20.7-20.7,20.7h-51.7v51.7c0,11.4-9.3,20.7-20.7,20.7s-20.7-9.3-20.7-20.7v-51.7h-51.7
	c-11.4,0-20.7-9.3-20.7-20.7s9.3-20.7,20.7-20.7h51.8v-51.7c0-11.4,9.3-20.7,20.7-20.7s20.7,9.3,20.7,20.7v51.7h51.6
	C272.9,376.3,282.2,385.6,282.2,396.9z"/>
</svg>
