<?xml version="1.0" encoding="utf-8"?>
<!-- Generator: Adobe Illustrator 19.0.0, SVG Export Plug-In . SVG Version: 6.00 Build 0)  -->
<svg version="1.1" id="Layer_1" xmlns="http://www.w3.org/2000/svg" xmlns:xlink="http://www.w3.org/1999/xlink" x="0px" y="0px"
	 viewBox="181.5 376.9 494.2 494.2" style="enable-background:new 181.5 376.9 494.2 494.2;" xml:space="preserve">
<style type="text/css">
	.st0{fill:#036CE2;}
</style>
<path class="st0" d="M428.6,376.9c-136.2,0-247.1,110.9-247.1,247.1s110.9,247.1,247.1,247.1c57.7,0,110.9-19.6,152.7-53.2
	c24.9-19.3,41.2-41.2,41.2-41.2c32.9-41.8,53.2-95,53.2-152.7C675.7,487.8,564.9,376.9,428.6,376.9z M428.6,820.5
	c-108.4,0-196.4-88.1-196.4-196.4s88.1-196.5,196.4-196.5S625,515.7,625,624C625,732.3,537,820.5,428.6,820.5z"/>
<path class="st0" d="M521.7,624c0,11.4-9.3,20.7-20.7,20.7h-51.7v51.7c0,11.4-9.3,20.7-20.7,20.7s-20.7-9.3-20.7-20.7v-51.7h-51.7
	c-11.4,0-20.7-9.3-20.7-20.7s9.3-20.7,20.7-20.7H408v-51.7c0-11.4,9.3-20.7,20.7-20.7s20.7,9.3,20.7,20.7v51.7H501
	C512.4,603.4,521.7,612.7,521.7,624z"/>
</svg>
