<?xml version="1.0" encoding="utf-8"?>
<!-- Generator: Adobe Illustrator 19.0.0, SVG Export Plug-In . SVG Version: 6.00 Build 0)  -->
<svg version="1.1" id="Layer_1" xmlns="http://www.w3.org/2000/svg" xmlns:xlink="http://www.w3.org/1999/xlink" x="0px" y="0px"
	 viewBox="30.6 54.3 550.8 530.5" style="enable-background:new 30.6 54.3 550.8 530.5;" xml:space="preserve">
<style type="text/css">
	.st0{fill:#797A7D;}
</style>
<path class="st0" d="M306,421.3L306,421.3c-44.6,0-80.9-36.3-80.9-80.9c0-44.6,36.3-80.9,80.9-80.9s80.9,36.3,80.9,80.9
	C386.9,385,350.6,421.3,306,421.3z M306,290.6c-27.4,0-49.7,22.3-49.7,49.7c0,27.4,22.3,49.7,49.7,49.7c27.4,0,49.7-22.3,49.7-49.7
	C355.7,312.9,333.4,290.6,306,290.6z"/>
<rect x="333.8" y="421.8" transform="matrix(-0.5878 -0.809 0.809 -0.5878 243.094 993.3876)" class="st0" width="81.6" height="26"/>
<rect x="154.2" y="291.3" transform="matrix(-0.9511 -0.309 0.309 -0.9511 286.3874 653.9441)" class="st0" width="81.6" height="26"/>
<rect x="404" y="263.5" transform="matrix(-0.3091 -0.951 0.951 -0.3091 256.5464 794.8986)" class="st0" width="26" height="81.6"/>
<rect x="224.4" y="394" transform="matrix(-0.8092 -0.5876 0.5876 -0.8092 174.0283 926.1194)" class="st0" width="26" height="81.6"/>
<rect x="293" y="182.8" class="st0" width="26" height="81.6"/>
<path class="st0" d="M513.6,340.7c-18.1,0-35.1-7.1-48-19.9c-12.8-12.8-19.9-29.8-19.9-48c0-37.4,30.4-67.9,67.8-67.9
	c37.4,0,67.9,30.4,67.9,67.8C581.4,310.3,551,340.7,513.6,340.7L513.6,340.7L513.6,340.7z M513.6,236.2c-20.2,0-36.6,16.4-36.6,36.7
	c0,9.8,3.8,19,10.7,25.9c6.9,6.9,16.1,10.7,25.9,10.7l0,0c20.2,0,36.7-16.5,36.7-36.6C550.2,252.7,533.8,236.2,513.6,236.2z"/>
<path class="st0" d="M306,189.9c-37.4,0-67.8-30.4-67.8-67.8c0-37.4,30.4-67.9,67.8-67.9c18.1,0,35.1,7.1,48,19.9
	c12.8,12.8,19.9,29.8,19.9,48C373.8,159.5,343.4,189.9,306,189.9z M306,85.4c-20.2,0-36.7,16.5-36.7,36.7
	c0,20.2,16.5,36.6,36.7,36.6l0,0c20.2,0,36.6-16.5,36.6-36.6c0-9.8-3.8-19-10.7-25.9C325,89.3,315.8,85.4,306,85.4z"/>
<path class="st0" d="M434.3,584.7L434.3,584.7c-37.4,0-67.8-30.4-67.8-67.8c0-37.4,30.4-67.9,67.8-67.9c18.1,0,35.1,7.1,48,19.9
	c12.8,12.8,19.9,29.8,19.9,48C502.1,554.3,471.7,584.7,434.3,584.7z M434.3,480.3c-9.8,0-19,3.8-25.9,10.7
	c-6.9,7-10.7,16.1-10.7,25.9c0,20.2,16.5,36.7,36.7,36.7c20.2,0,36.6-16.5,36.6-36.7c0-9.8-3.8-19-10.7-25.9
	C453.3,484.1,444.1,480.3,434.3,480.3z"/>
<path class="st0" d="M177.7,584.7L177.7,584.7c-37.4,0-67.8-30.4-67.8-67.8c0-18.1,7.1-35.2,19.9-48c12.8-12.8,29.8-19.9,48-19.9
	c37.4,0,67.8,30.4,67.8,67.9c0,18.1-7.1,35.1-19.9,48C212.9,577.7,195.8,584.7,177.7,584.7z M177.7,480.3c-9.8,0-19,3.8-25.9,10.7
	c-6.9,6.9-10.7,16.1-10.7,25.9c0,20.2,16.4,36.7,36.7,36.7c9.8,0,19-3.8,25.9-10.7c6.9-6.9,10.7-16.1,10.7-25.9
	C214.4,496.7,197.9,480.3,177.7,480.3z"/>
<path class="st0" d="M98.5,340.7L98.5,340.7c-37.4,0-67.9-30.4-67.9-67.8c0-37.4,30.4-67.9,67.8-67.9c37.4,0,67.8,30.4,67.8,67.9
	C166.3,310.3,135.8,340.7,98.5,340.7z M98.4,236.2c-20.2,0-36.6,16.5-36.7,36.7c0,20.2,16.5,36.6,36.7,36.6h0
	c20.2,0,36.6-16.5,36.6-36.6C135.1,252.7,118.6,236.2,98.4,236.2z"/>
</svg>
