<?xml version="1.0" encoding="utf-8"?>
<!-- Generator: Adobe Illustrator 19.0.0, SVG Export Plug-In . SVG Version: 6.00 Build 0)  -->
<svg version="1.1" id="Layer_1" xmlns="http://www.w3.org/2000/svg" xmlns:xlink="http://www.w3.org/1999/xlink" x="0px" y="0px"
	 viewBox="0 0 85.6 90.9" style="enable-background:new 0 0 85.6 90.9;" xml:space="preserve">
<style type="text/css">
	.st0{fill:#FFFFFF;}
</style>
<path class="st0" d="M51.6,13.5l-1.3,3.2c-0.2,0.6,0,1.2,0.6,1.5c8.8,4.1,14.7,12.8,15.2,22.5c0,0.6,0.5,1.1,1.2,1.1l3.5,0
	c0.7,0,1.2-0.5,1.2-1.2c-0.5-12-7.8-22.9-18.8-27.8C52.6,12.6,51.9,12.9,51.6,13.5z"/>
<path class="st0" d="M58.1,0.7L56.7,4c-0.2,0.6,0,1.2,0.6,1.5c13.2,5.9,21.9,18.9,22.5,33.3c0,0.6,0.5,1.1,1.2,1.1l3.5,0
	c0.7,0,1.2-0.5,1.2-1.2c-0.5-16.7-10.7-31.8-26-38.6C59-0.2,58.3,0.1,58.1,0.7z"/>
<path class="st0" d="M22.3,78.8l0,1.2c0,5.8,5.1,10.8,10.8,10.8c5.8,0,10.8-5,10.8-10.8l0-1.2h20.6c0.9,0,1.7-0.7,1.7-1.7v-8.9
	c0-0.5-0.2-0.9-0.5-1.2l-6.5-6.7V48.1c0-11-6.5-20.7-16.5-24.6l-0.6-0.2l-0.1-0.6c-0.9-4.2-4.6-7.2-8.8-7.2c-4.2,0-7.9,3-8.8,7.2
	l-0.1,0.6l-0.6,0.2C13.5,27.4,7,37.1,7,48.1v12.2L0.5,67C0.2,67.4,0,67.8,0,68.2v8.9c0,0.9,0.7,1.7,1.7,1.7H22.3z M40.6,80.1
	c0,3.5-3.2,7.5-7.5,7.5c-4.3,0-7.5-3.9-7.5-7.5l0-1.3h15L40.6,80.1z M3.3,68.9l7-7.2V48.1c0-10.7,6.9-19.8,17-22.4v-1.1
	c0-3.2,2.6-5.9,5.8-5.9s5.8,2.7,5.8,5.9v1.1c10.1,2.6,17,11.7,17,22.4v13.6l7,7.2v6.6H3.3V68.9z"/>
</svg>
