<?xml version="1.0" encoding="utf-8"?>
<!-- Generator: Adobe Illustrator 19.0.0, SVG Export Plug-In . SVG Version: 6.00 Build 0)  -->
<svg version="1.1" id="Layer_1" xmlns="http://www.w3.org/2000/svg" xmlns:xlink="http://www.w3.org/1999/xlink" x="0px" y="0px"
	 viewBox="-44 106.4 522.3 581.6" style="enable-background:new -44 106.4 522.3 581.6;" xml:space="preserve">
<style type="text/css">
	.st0{fill:#333333;}
</style>
<g>
	<g>
		<g>
			<path class="st0" d="M57.2,175c5.5-3.7,11-6.1,17.1-9.2c3.1-1.2,5.5-2.4,8.6-4.3c0.6-0.6,5.5-2.4,3.7-1.8
				c-1.8,1.2,1.2-0.6,1.2-0.6c1.2-0.6,2.4-1.2,4.3-1.8c8-3.1,16.5-6.1,25.1-8.6c48.3-14.7,99.7-19,150.5-11.7
				c39.2,6.1,77.7,19,112.6,36.7c6.7,3.7,15.3,1.8,19-4.9c3.7-6.1,1.8-15.9-4.9-19c-61.2-30.5-129.8-47.1-198.9-42.8
				c-44.7,3.1-88.1,13.5-128.5,31.8c-8,3.7-15.9,7.3-23.3,12.2c-6.1,4.3-9.2,12.2-4.9,19C41.9,176.2,51,179.2,57.2,175L57.2,175z"/>
		</g>
	</g>
	<g>
		<g>
			<path class="st0" d="M25.9,579.5c-6.7-16.5-10.4-33.7-13.5-51.4c-0.6-3.7-1.2-8-1.8-11.6c0-0.6-0.6-4.3,0,0c0-1.2,0-1.8-0.6-3.1
				c0-2.4-0.6-4.9-0.6-7.3c-1.2-9.2-1.2-18.4-1.2-28.2c0-9.8,0.6-20.2,1.8-30c0-1.2,0-2.4,0.6-3.7c-0.6,3.1,0-0.6,0-1.2
				c0.6-2.4,0.6-4.9,1.2-7.3c1.2-5.5,1.8-11,3.7-15.9c6.1-22,13.5-39.8,26.9-58.8c6.1-8.6,13.5-17.1,22-25.1
				c9.8-9.2,19.6-17.1,31.2-24.5c28.8-18.4,61.8-31.2,96.1-34.3c37.3-3.7,74.7,1.8,109.5,15.3c27.5,10.4,52.6,26.3,72.8,47.7
				c11,11,19.6,23.9,27.5,37.3c4.3,7.3,8.6,15.3,12.2,23.3c1.8,4.3,4.3,8.6,6.1,12.9c-1.2-2.4-0.6-0.6,0,0c1.8,4.3,3.1,8.6,4.3,12.9
				c1.2,3.7,1.8,7.3,2.4,11c0.6,1.8,0.6,4.3,1.2,6.7c0,1.2,0.6,2.4,0.6,3.7c-0.6-3.7,0,1.8,0,2.4c0.6,4.9,0.6,9.8,0.6,15.3
				c0,2.4,0,4.9,0,8c0,1.2,0,2.4,0,4.3c0,1.2,0,1.8,0,2.4c0-1.2,0-1.2,0,0c-1.8,12.2-4.3,19-11.6,28.8c1.2-1.8-1.2,1.8-1.2,1.8
				c-1.2,1.2-1.8,1.8-3.1,3.1c-1.8,1.8-3.7,3.7-4.9,4.3c-6.1,4.9-13.5,8-20.8,9.8c-15.9,4.9-34.3,3.7-49.6-4.3
				c-11.6-6.1-20.2-14.7-26.3-26.3c-1.2-2.4-1.8-3.7-3.1-7.3c-0.6-1.8-1.2-4.3-1.2-6.1c-0.6-2.4-2.4-7.3,0-1.8
				c-1.2-3.1,0-7.3-0.6-10.4c0-4.9-1.2-9.8-1.8-15.3c-13.5-67.3-109.5-88.1-153-37.9c-33,37.9-23.9,93.6-6.1,136.5
				c20.2,49.6,58.8,88.7,106.5,112.6c15.3,8,31.8,14.1,48.3,19.6c17.1,5.5,24.5-21.4,7.3-26.9c-29.4-9.8-59.4-23.9-82.6-43.5
				c-19.6-15.9-33-33-45.3-54.5c-2.4-4.9-4.9-9.8-7.3-14.7c-1.2-2.4,0.6,1.2-0.6-1.2c-0.6-1.2-1.2-2.4-1.2-3.1
				c-1.2-2.4-1.8-4.9-2.4-7.3c-3.1-8.6-5.5-17.7-7.3-26.9c-0.6-4.3-1.2-8-1.8-11.6c0-1.2,0-1.8-0.6-2.4c-0.6-3.1,0,1.2,0,0
				c0-1.8-0.6-3.7-0.6-5.5c-1.8-15.3,0.6-30.6,8.6-44.1c17.1-28.2,50.8-33,78.9-21.4c10.4,4.3,20.2,11.6,26.3,21.4
				c7.3,11.6,6.7,24.5,8.6,38.6c0.6,3.7,0,1.2,0,0.6c0,1.8,0.6,3.1,0.6,4.9c0.6,1.8,0.6,4.3,1.2,6.1c1.2,4.3,3.1,9.2,4.9,12.9
				c1.8,4.3,4.9,9.2,8,12.9c11.6,15.3,27.5,26.3,46.5,31.8c33,9.8,73.4,1.2,96.1-25.7c27.5-33,24.5-81.4,11.6-120.6
				c-8.6-25.7-23.3-50.2-39.8-71c-18.4-23.9-41.6-44.1-68.5-58.1c-69.8-36.7-153.6-41.6-225.2-8.6C66.2,292.1,23.4,330.7,2,381.5
				c-16.5,39.2-21.4,82.6-17.1,125.5c2.4,25.7,7.3,51.4,15.9,75.9c0.6,1.2,1.2,2.4,1.2,3.7c3.1,7.3,9.2,12.2,17.1,9.8
				C22.9,595.4,29,586.8,25.9,579.5L25.9,579.5z"/>
		</g>
	</g>
	<g>
		<g>
			<path class="st0" d="M-18.1,323.7c0.6-1.2,1.2-1.8,2.4-3.1c1.2-1.2,1.8-2.4,2.4-3.7c0.6-1.2,3.1-3.7,0,0c0.6-1.2,1.8-1.8,2.4-3.1
				c8-9.8,17.1-19.6,26.3-28.8c14.1-13.5,26.3-23.3,42.2-33.7c19-12.2,39.2-22.6,60-30c24.5-8.6,50.2-14.1,76.5-15.9
				c11.6-0.6,23.3-0.6,34.3,0c5.5,0,11.6,0.6,17.1,0.6c3.1,0,6.7,0.6,9.8,1.2c1.8,0,3.7,0.6,5.5,0.6c3.7,0.6-3.1-0.6,0.6,0
				c1.2,0,2.4,0,3.1,0.6c18.4,3.1,36.7,7.3,54.5,13.5c52.6,18.4,99.8,55.7,133.4,101.6c4.3,6.1,12.2,9.2,19,4.9
				c6.1-3.7,9.2-12.9,4.9-19c-33-45.9-76.5-83.2-128.5-105.9c-34.9-15.3-72.2-23.9-110.2-25.7c-36.1-1.8-73.4,0.6-108.3,10.4
				C84,201.1,42.4,224.9,6.9,255.5c-17.7,15.9-35.5,33.7-48.3,53.9C-51.8,324.9-27.9,339-18.1,323.7L-18.1,323.7z"/>
		</g>
	</g>
	<g>
		<g>
			<path class="st0" d="M202.2,473.6c-0.6,26.3,8.6,52.6,21.4,75.3c18.4,33,47.7,58.8,83.8,69.8c28.2,8.6,56.3,7.3,85.7,4.3
				c7.3-0.6,14.1-6.1,14.1-14.1c0-7.3-6.1-14.7-14.1-14.1c-23.9,2.4-47.7,4.3-69.8-1.2c-9.8-2.4-16.5-4.9-23.9-8.6
				c-3.7-1.8-7.3-4.3-11-6.1c-1.8-1.2-3.1-2.4-4.9-3.1c-1.2-0.6-1.8-1.2-2.4-1.8c-0.6-0.6-0.6-0.6,0,0c-0.6-0.6-1.2-0.6-1.2-1.2
				c-6.1-4.9-12.2-11-17.1-17.1c-1.2-1.2-2.4-3.1-3.7-4.3c1.8,1.8-1.8-2.4-1.8-3.1c-2.4-3.1-4.3-6.7-6.7-9.8
				c-3.7-6.1-6.7-12.2-9.8-19c0-0.6-0.6-1.2-0.6-1.8c1.2,3.1,0.6,1.2,0,0.6c-0.6-1.8-1.2-3.1-1.8-4.9c-1.2-3.1-1.8-6.1-3.1-9.2
				c-1.8-5.5-3.1-11-4.3-16.5c0-0.6-0.6-4.9-0.6-1.8c0.6,3.1,0-1.2,0-1.8c0-3.7,0-7.3,0-11C230.4,455.9,202.8,455.9,202.2,473.6
				L202.2,473.6z"/>
		</g>
	</g>
	<g>
		<g>
			<path class="st0" d="M380.9,474.8c1.2-35.5-12.9-70.4-34.9-97.9c-34.9-44.1-96.1-64.9-151.2-57.5
				c-53.2,6.7-105.9,42.8-127.9,92.4C52.8,444.2,50.4,479.7,55.3,514c9.2,62.4,41.6,119.3,86.9,162.8c12.9,12.2,32.4-7.3,19.6-19.6
				c-37.9-36.7-66.1-82.6-77.1-134.6c-1.2-4.3-1.8-8.6-2.4-12.2c0-0.6,0-1.8-0.6-2.4c-0.6-3.7,0.6,3.1,0-0.6c0-1.8-0.6-4.3-0.6-6.1
				c-0.6-5.5-1.2-11.6-1.2-17.1c0-12.2,1.2-23.9,3.7-35.5c4.9-22.6,15.9-43.5,31.8-59.4c8-8,14.1-12.2,22-18.4
				c11-7.3,22-13.5,34.9-17.7c29.4-9.8,60-8.6,88.7,0.6c21.4,6.7,39.8,17.7,54.5,33c8,8,12.2,13.5,18.4,23.9c2.4,3.7,4.3,8,6.1,12.2
				c0.6,1.2,1.2,1.8,1.2,3.1c1.2,3.1-0.6-1.8,0.6,1.2c0.6,1.8,1.8,4.3,2.4,6.1c2.4,7.3,4.9,14.7,6.1,22.6c0,1.8,0.6,3.1,0.6,4.9
				c-0.6-4.9,0,0,0,1.2c0.6,4.9,0.6,9.8,0.6,14.1C352.8,493.2,380.9,493.2,380.9,474.8L380.9,474.8z"/>
		</g>
	</g>
</g>
</svg>
