<?xml version="1.0" encoding="utf-8"?>
<!-- Generator: Adobe Illustrator 19.0.0, SVG Export Plug-In . SVG Version: 6.00 Build 0)  -->
<svg version="1.1" id="Layer_1" xmlns="http://www.w3.org/2000/svg" xmlns:xlink="http://www.w3.org/1999/xlink" x="0px" y="0px"
	 viewBox="-281 367 48 48" style="enable-background:new -281 367 48 48;" xml:space="preserve">
<style type="text/css">
	.st0{fill:#797A7D;}
</style>
<path class="st0" d="M-239.1,415h-35.8c-0.6,0-1-0.4-1-1v-30.3c0-0.6,0.4-1,1-1h35.8c0.6,0,1,0.4,1,1V414
	C-238.1,414.6-238.5,415-239.1,415z M-273.9,413h33.8v-28.3h-33.8V413z"/>
<path class="st0" d="M-234,384.7L-234,384.7h-46c-0.3,0-0.7-0.2-0.8-0.5c-0.2-0.3-0.2-0.7-0.1-1l5.3-11c0.2-0.3,0.5-0.6,0.9-0.6
	h35.4c0.4,0,0.7,0.2,0.9,0.6l5.2,10.9c0.1,0.2,0.2,0.4,0.2,0.6C-233,384.3-233.4,384.7-234,384.7z M-278.4,382.7h42.8l-4.3-9.1
	h-34.2L-278.4,382.7z"/>
<path class="st0" d="M-245.7,373.6h-4.7c-0.6,0-1-0.4-1-1V368c0-0.6,0.4-1,1-1h4.7c0.6,0,1,0.4,1,1v4.6
	C-244.7,373.2-245.1,373.6-245.7,373.6z M-249.4,371.6h2.7V369h-2.7V371.6z"/>
<path class="st0" d="M-259.7,393.7h-10c-0.3,0-0.5,0.2-0.5,0.5V414c0,0.3,0.2,0.5,0.5,0.5h10c0.3,0,0.5-0.2,0.5-0.5v-19.8
	C-259.2,393.9-259.4,393.7-259.7,393.7z M-260.2,413.5h-9v-18.8h9V413.5z"/>
<path class="st0" d="M-245.7,393.7h-8c-0.3,0-0.5,0.2-0.5,0.5v9.9c0,0.3,0.2,0.5,0.5,0.5h8c0.3,0,0.5-0.2,0.5-0.5v-9.9
	C-245.2,393.9-245.4,393.7-245.7,393.7z M-246.2,403.6h-7v-8.9h7V403.6z"/>
</svg>
