<?xml version="1.0" encoding="utf-8"?>
<!-- Generator: Adobe Illustrator 19.0.0, SVG Export Plug-In . SVG Version: 6.00 Build 0)  -->
<svg version="1.1" id="Layer_1" xmlns="http://www.w3.org/2000/svg" xmlns:xlink="http://www.w3.org/1999/xlink" x="0px" y="0px"
	 viewBox="0 0 48 48" style="enable-background:new 0 0 48 48;" xml:space="preserve">
<style type="text/css">
	.st0{fill:#036CE2;}
</style>
<path class="st0" d="M41.9,48H6.1c-0.6,0-1-0.4-1-1V16.7c0-0.6,0.4-1,1-1h35.8c0.6,0,1,0.4,1,1V47C42.9,47.6,42.5,48,41.9,48z
	 M7.1,46h33.8V17.7H7.1V46z"/>
<path class="st0" d="M47,17.7L47,17.7H1c-0.3,0-0.7-0.2-0.8-0.5c-0.2-0.3-0.2-0.7-0.1-1l5.3-11c0.2-0.3,0.5-0.6,0.9-0.6h35.4
	c0.4,0,0.7,0.2,0.9,0.6l5.2,10.9c0.1,0.2,0.2,0.4,0.2,0.6C48,17.3,47.6,17.7,47,17.7z M2.6,15.7h42.8l-4.3-9.1H6.9L2.6,15.7z"/>
<path class="st0" d="M35.3,6.6h-4.7c-0.6,0-1-0.4-1-1V1c0-0.6,0.4-1,1-1h4.7c0.6,0,1,0.4,1,1v4.6C36.3,6.2,35.9,6.6,35.3,6.6z
	 M31.6,4.6h2.7V2h-2.7L31.6,4.6z"/>
<path class="st0" d="M21.3,26.7h-10c-0.3,0-0.5,0.2-0.5,0.5V47c0,0.3,0.2,0.5,0.5,0.5h10c0.3,0,0.5-0.2,0.5-0.5V27.2
	C21.8,26.9,21.6,26.7,21.3,26.7z M20.8,46.5h-9V27.7h9V46.5z"/>
<path class="st0" d="M35.3,26.7h-8c-0.3,0-0.5,0.2-0.5,0.5v9.9c0,0.3,0.2,0.5,0.5,0.5h8c0.3,0,0.5-0.2,0.5-0.5v-9.9
	C35.8,26.9,35.6,26.7,35.3,26.7z M34.8,36.6h-7v-8.9h7V36.6z"/>
</svg>
