<?xml version="1.0" encoding="utf-8"?>
<!-- Generator: Adobe Illustrator 16.0.0, SVG Export Plug-In . SVG Version: 6.00 Build 0)  -->
<!DOCTYPE svg PUBLIC "-//W3C//DTD SVG 1.1//EN" "http://www.w3.org/Graphics/SVG/1.1/DTD/svg11.dtd">
<svg version="1.1" id="Layer_1" xmlns="http://www.w3.org/2000/svg" xmlns:xlink="http://www.w3.org/1999/xlink" x="0px" y="0px"
	 width="125.04px" height="53.04px" viewBox="0 0 125.04 53.04" enable-background="new 0 0 125.04 53.04" xml:space="preserve">
<g>
	
		<image overflow="visible" opacity="0.2" enable-background="new    " width="529" height="225" xlink:href="EDEF5735F486DBE5.png"  transform="matrix(0.2363 0 0 0.2363 0.0259 -5.7314)">
	</image>
	<g>
		<path fill="#FFFFFF" d="M8.504,0h108l-15.605,36h-76.79L8.504,0z"/>
	</g>
</g>
<path fill="#3A6CB4" d="M80.511,16.533c0.243,0.219,5.346,3.79,5.346,3.79c0.13,0.117,0.302,0.175,0.472,0.175
	c0.172,0,0.344-0.059,0.473-0.175c0,0,5.103-3.571,5.347-3.79c0.243-0.219,0.261-0.614,0-0.849c-0.262-0.234-0.624-0.252-0.944,0
	l-4.873,3.394l-4.873-3.394c-0.32-0.252-0.685-0.234-0.944,0C80.25,15.918,80.267,16.313,80.511,16.533z"/>
<g enable-background="new    ">
	<path fill="#797A7D" d="M32.403,13.879h5.187v1.1h-3.958v1.818h3.508v1.1h-3.508v1.879h4.008v1.1h-5.237V13.879z"/>
	<path fill="#797A7D" d="M41.123,17.317l-2.449-3.438h1.449l1.739,2.509l1.749-2.509h1.409l-2.439,3.418l2.539,3.578h-1.449
		l-1.839-2.648l-1.849,2.648h-1.409L41.123,17.317z"/>
	<path fill="#797A7D" d="M46.393,13.879h2.759c1.629,0,2.658,0.93,2.658,2.339v0.02c0,1.569-1.259,2.389-2.798,2.389h-1.389v2.249
		h-1.229V13.879z M49.052,17.517c0.929,0,1.509-0.52,1.509-1.249v-0.021c0-0.819-0.59-1.249-1.509-1.249h-1.429v2.519H49.052z"/>
	<path fill="#797A7D" d="M54.852,13.829h1.14l3.078,7.046H57.77l-0.709-1.689h-3.308l-0.72,1.689h-1.259L54.852,13.829z
		 M56.611,18.097l-1.209-2.799l-1.199,2.799H56.611z"/>
	<path fill="#797A7D" d="M60.273,13.879h1.14l3.748,4.837v-4.837h1.209v6.996H65.34l-3.857-4.978v4.978h-1.209V13.879z"/>
	<path fill="#797A7D" d="M68.173,13.879h2.608c2.199,0,3.719,1.509,3.719,3.479v0.02c0,1.969-1.52,3.498-3.719,3.498h-2.608V13.879z
		 M70.782,19.756c1.469,0,2.429-0.989,2.429-2.359v-0.02c0-1.369-0.96-2.379-2.429-2.379h-1.379v4.758H70.782z"/>
</g>
</svg>
