<?xml version="1.0" encoding="utf-8"?>
<!-- Generator: Adobe Illustrator 16.0.0, SVG Export Plug-In . SVG Version: 6.00 Build 0)  -->
<!DOCTYPE svg PUBLIC "-//W3C//DTD SVG 1.1//EN" "http://www.w3.org/Graphics/SVG/1.1/DTD/svg11.dtd">
<svg version="1.1" id="Layer_1" xmlns="http://www.w3.org/2000/svg" xmlns:xlink="http://www.w3.org/1999/xlink" x="0px" y="0px"
	 width="125.04px" height="53.04px" viewBox="0 0 125.04 53.04" enable-background="new 0 0 125.04 53.04" xml:space="preserve">
<g>
	
		<image overflow="visible" opacity="0.2" enable-background="new    " width="529" height="225" xlink:href="EDEF5735F486DBE5.png"  transform="matrix(0.2363 0 0 0.2363 0.0249 -5.7305)">
	</image>
	<g>
		<path fill="#FFFFFF" d="M8.504,0h108l-15.605,36h-76.79L8.504,0z"/>
	</g>
</g>
<path fill="#3A6CB4" d="M92.148,19.467c-0.243-0.219-5.347-3.79-5.347-3.79c-0.129-0.117-0.301-0.175-0.471-0.175
	c-0.172,0-0.345,0.059-0.474,0.175c0,0-5.103,3.571-5.347,3.79c-0.243,0.219-0.262,0.614,0,0.849c0.262,0.234,0.623,0.252,0.943,0
	l4.873-3.394l4.873,3.394c0.32,0.252,0.686,0.234,0.944,0C92.409,20.082,92.392,19.687,92.148,19.467z"/>
<g enable-background="new    ">
	<path fill="#797A7D" d="M38.094,17.396v-0.02c0-1.989,1.489-3.618,3.608-3.618c1.289,0,2.069,0.45,2.738,1.09l-0.79,0.909
		c-0.56-0.52-1.159-0.869-1.959-0.869c-1.339,0-2.309,1.099-2.309,2.469v0.02c0,1.369,0.97,2.488,2.309,2.488
		c0.86,0,1.409-0.35,2.009-0.909l0.79,0.8c-0.73,0.76-1.529,1.239-2.838,1.239C39.613,20.995,38.094,19.406,38.094,17.396z"/>
	<path fill="#797A7D" d="M45.783,13.879h1.229v5.877h3.678v1.119h-4.907V13.879z"/>
	<path fill="#797A7D" d="M51.264,17.396v-0.02c0-1.969,1.519-3.618,3.668-3.618c2.148,0,3.648,1.629,3.648,3.599v0.02
		c0,1.969-1.519,3.618-3.668,3.618S51.264,19.366,51.264,17.396z M57.29,17.396v-0.02c0-1.359-0.989-2.488-2.378-2.488
		s-2.359,1.109-2.359,2.469v0.02c0,1.359,0.99,2.488,2.379,2.488S57.29,18.756,57.29,17.396z"/>
	<path fill="#797A7D" d="M59.554,19.855l0.74-0.88c0.669,0.58,1.339,0.91,2.208,0.91c0.76,0,1.24-0.35,1.24-0.88v-0.02
		c0-0.5-0.28-0.77-1.58-1.069c-1.489-0.36-2.329-0.8-2.329-2.089v-0.021c0-1.199,1-2.028,2.389-2.028c1.02,0,1.829,0.31,2.538,0.879
		l-0.659,0.93c-0.63-0.47-1.259-0.72-1.899-0.72c-0.719,0-1.139,0.37-1.139,0.83v0.02c0,0.54,0.32,0.779,1.659,1.1
		c1.479,0.359,2.249,0.89,2.249,2.049v0.02c0,1.31-1.029,2.089-2.499,2.089C61.403,20.975,60.394,20.605,59.554,19.855z"/>
	<path fill="#797A7D" d="M66.423,13.879h5.187v1.1h-3.957v1.818h3.508v1.1h-3.508v1.879h4.008v1.1h-5.237V13.879z"/>
</g>
</svg>
