<?xml version="1.0" encoding="utf-8"?>
<!-- Generator: Adobe Illustrator 19.0.0, SVG Export Plug-In . SVG Version: 6.00 Build 0)  -->
<svg version="1.1" id="CC_-_Closed_Captioning" xmlns="http://www.w3.org/2000/svg" xmlns:xlink="http://www.w3.org/1999/xlink"
	 x="0px" y="0px" viewBox="0 0 28.5 23.1" style="enable-background:new 0 0 28.5 23.1;" xml:space="preserve">
<style type="text/css">
	.st0{fill-rule:evenodd;clip-rule:evenodd;fill:#036CE6;}
</style>
<g>
	<g>
		<path class="st0" d="M0,0v23.1h28.5V0H0z M24.1,19.5C22.8,20.8,6,21,4.2,19.5C2.5,18,2.5,5.6,4.2,3.9c2.3-2.3,17.8-2.1,19.9,0
			C26.2,6,25.5,18.2,24.1,19.5z M9,14.6c-1.5,0-2-1.6-2-3.2c0-1.6,0.5-3.2,2-3.2c1.3,0,1.6,1.3,1.7,1.7h3.2C13.6,7,12,5.3,9.1,5.3
			c-3.3,0-5.4,2.4-5.4,6.1c0,3.5,1.9,6.1,5.4,6.1c3.1,0,4.8-2.5,4.8-4.9h-3.2C10.5,13.8,10.1,14.6,9,14.6z M19.8,8.2
			c1.3,0,1.6,1.3,1.7,1.7h3.2c-0.3-2.9-1.9-4.6-4.8-4.7c-3.3,0-5.4,2.4-5.4,6.1c0,3.5,1.9,6.1,5.4,6.1c3.1,0,4.8-2.5,4.8-4.9h-3.2
			c-0.2,1.1-0.6,2-1.7,2c-1.5,0-2-1.6-2-3.2C17.8,9.8,18.3,8.2,19.8,8.2z"/>
	</g>
</g>
</svg>
