<?xml version="1.0" encoding="utf-8"?>
<!-- Generator: Adobe Illustrator 19.0.0, SVG Export Plug-In . SVG Version: 6.00 Build 0)  -->
<svg version="1.1" id="Layer_1" xmlns="http://www.w3.org/2000/svg" xmlns:xlink="http://www.w3.org/1999/xlink" x="0px" y="0px"
	 viewBox="255.2 104 281.5 281.5" style="enable-background:new 255.2 104 281.5 281.5;" xml:space="preserve">
<style type="text/css">
	.st0{fill:#DBDBDB;}
</style>
<path class="st0" d="M396,385.6c-77.6,0-140.8-63.1-140.8-140.8S318.4,104,396,104s140.8,63.1,140.8,140.8S473.6,385.6,396,385.6z
	 M396,121.2c-68.2,0-123.6,55.5-123.6,123.6S327.8,368.4,396,368.4S519.6,313,519.6,244.8S464.2,121.2,396,121.2z M408.1,244.8
	l37.1-37.1c3.3-3.3,3.3-8.8,0-12.1c-3.3-3.3-8.8-3.3-12.1,0L396,232.7l-37.1-37.1c-3.3-3.3-8.8-3.3-12.1,0c-3.3,3.3-3.3,8.8,0,12.1
	l37.1,37.1l-37.1,37.1c-3.3,3.3-3.3,8.8,0,12.1c1.7,1.7,3.9,2.5,6.1,2.5s4.4-0.8,6.1-2.5l37.1-37.1l37.1,37.1
	c1.7,1.7,3.9,2.5,6.1,2.5s4.4-0.8,6.1-2.5c3.3-3.3,3.3-8.8,0-12.1L408.1,244.8z"/>
</svg>
