<?xml version="1.0" encoding="utf-8"?>
<!-- Generator: Adobe Illustrator 19.0.0, SVG Export Plug-In . SVG Version: 6.00 Build 0)  -->
<svg version="1.1" id="Layer_1" xmlns="http://www.w3.org/2000/svg" xmlns:xlink="http://www.w3.org/1999/xlink" x="0px" y="0px"
	 viewBox="0 0 100 100" style="enable-background:new 0 0 100 100;" xml:space="preserve">
<style type="text/css">
	.st0{fill:#FFFFFF;}
</style>
<path class="st0" d="M68.8,3.7C63,1.3,56.7,0,50,0C22.4,0,0,22.4,0,50c0,20,11.7,37.2,28.6,45.2c6.5,3.1,13.7,4.8,21.4,4.8
	c27.6,0,50-22.4,50-50C100,29.1,87.1,11.1,68.8,3.7z M50,92c-6.5,0-12.7-1.5-18.2-4.1C17.8,81.1,8,66.7,8,50C8,26.8,26.8,8,50,8
	c5.5,0,10.8,1.1,15.6,3C81.1,17.2,92,32.4,92,50C92,73.2,73.2,92,50,92z"/>
<rect x="45" y="36.1" class="st0" width="10.2" height="44.3"/>
<rect x="44.5" y="19.6" class="st0" width="10.9" height="9.7"/>
</svg>
