<?xml version="1.0" encoding="utf-8"?>
<!-- Generator: Adobe Illustrator 19.0.0, SVG Export Plug-In . SVG Version: 6.00 Build 0)  -->
<svg version="1.1" id="Layer_1" xmlns="http://www.w3.org/2000/svg" xmlns:xlink="http://www.w3.org/1999/xlink" x="0px" y="0px"
	 viewBox="-268 360 74 74" style="enable-background:new -268 360 74 74;" xml:space="preserve">
<style type="text/css">
	.st0{fill:#797A7D;}
</style>
<path class="st0" d="M-231,434c-20.4,0-37-16.6-37-37s16.6-37,37-37s37,16.6,37,37S-210.6,434-231,434z M-231,364
	c-18.2,0-33,14.8-33,33s14.8,33,33,33s33-14.8,33-33C-198,378.9-212.8,364-231,364z"/>
<path class="st0" d="M-239.1,409c-0.8,0-1.5-0.4-2-1c-0.1-0.1-0.2-0.3-0.3-0.5c-0.1-0.1-0.2-0.2-0.3-0.4l-9.4-13
	c-0.4-0.5-0.5-1.2-0.4-1.8c0.1-0.6,0.5-1.2,1-1.6c0.4-0.3,0.9-0.5,1.5-0.5c0.8,0,1.5,0.4,2,1l8.6,11.8l24.2-17.5
	c0.4-0.3,0.9-0.5,1.5-0.5c0.8,0,1.5,0.4,2,1c0.4,0.5,0.5,1.2,0.4,1.8c-0.1,0.7-0.5,1.2-1,1.6l-26.2,19
	C-238,408.9-238.6,409-239.1,409z"/>
</svg>
