<?xml version="1.0" encoding="utf-8"?>
<!-- Generator: Adobe Illustrator 19.0.0, SVG Export Plug-In . SVG Version: 6.00 Build 0)  -->
<svg version="1.1" id="Layer_1" xmlns="http://www.w3.org/2000/svg" xmlns:xlink="http://www.w3.org/1999/xlink" x="0px" y="0px"
	 viewBox="0 13.5 612 612" style="enable-background:new 0 13.5 612 612;" xml:space="preserve">
<style type="text/css">
	.st0{fill:#797A7D;}
</style>
<path class="st0" d="M612,319.5c0-168.7-137.3-306-306-306c-168.7,0-306,137.3-306,306c0,168.7,137.3,306,306,306
	c18.4,0,33.3-14.9,33.3-33.3c0-18.4-14.9-33.3-33.3-33.3c-132,0-239.3-107.4-239.3-239.4C66.7,187.5,174,80.2,306,80.2
	s239.3,107.4,239.3,239.3c0,37.5-8.4,73.3-25,106.5c-0.2,0.3-0.5,0.6-0.7,1c-7.2,11.5-19.6,18.3-33.1,18.3c-21.5,0-39-17.5-39-39.1
	L447.5,196c0-18.4-14.9-33.3-33.3-33.3c0,0,0,0,0,0c-17,0-31,12.8-33,29.2c-25.8-18.4-57.3-29.2-91.3-29.2
	c-87,0-157.7,70.7-157.7,157.7c0,86.9,70.7,157.7,157.7,157.7c37.1,0,71.1-12.9,98.1-34.3c15.2,39.8,53.7,68.1,98.8,68.1
	c34.8,0,66.8-16.8,86.6-45.1c1.8-2,3.4-4.2,4.7-6.8C600.2,416.9,612,368.3,612,319.5z M289.8,411.4c-50.2,0-91-40.8-91-91
	s40.8-91,91-91s91,40.8,91,91C380.8,370.6,340,411.4,289.8,411.4z"/>
</svg>
