<?xml version="1.0" encoding="utf-8"?>
<!-- Generator: Adobe Illustrator 19.0.0, SVG Export Plug-In . SVG Version: 6.00 Build 0)  -->
<svg version="1.1" id="Layer_1" xmlns="http://www.w3.org/2000/svg" xmlns:xlink="http://www.w3.org/1999/xlink" x="0px" y="0px"
	 viewBox="0 0 100 65" style="enable-background:new 0 0 100 65;" xml:space="preserve">
<style type="text/css">
	.st0{fill:#FFFFFF;}
</style>
<g>
	<path class="st0" d="M6,62.5c-1.9,0-3.5-1.6-3.5-3.5V6c0-1.9,1.6-3.5,3.5-3.5h88c1.9,0,3.5,1.6,3.5,3.5v53c0,1.9-1.6,3.5-3.5,3.5H6
		z"/>
	<path class="st0" d="M94,5c0.6,0,1,0.4,1,1v53c0,0.6-0.4,1-1,1H6c-0.6,0-1-0.4-1-1V6c0-0.6,0.4-1,1-1H94 M94,0H6C2.7,0,0,2.7,0,6
		v53c0,3.3,2.7,6,6,6h88c3.3,0,6-2.7,6-6V6C100,2.7,97.3,0,94,0L94,0z"/>
</g>
<rect x="0" y="17" class="st0" width="100" height="14"/>
<rect x="13" y="36" class="st0" width="20" height="4"/>
<rect x="13" y="44" class="st0" width="40" height="4"/>
<rect x="13" y="52" class="st0" width="30" height="4"/>
</svg>
