<?xml version="1.0" encoding="utf-8"?>
<!-- Generator: Adobe Illustrator 19.0.0, SVG Export Plug-In . SVG Version: 6.00 Build 0)  -->
<svg version="1.1" id="Park_Tickets" xmlns="http://www.w3.org/2000/svg" xmlns:xlink="http://www.w3.org/1999/xlink" x="0px"
	 y="0px" viewBox="0 0 30 30" style="enable-background:new 0 0 30 30;" xml:space="preserve">
<style type="text/css">
	.st0{fill:#797A7D;}
</style>
<path class="st0" d="M15.5,7v0.8h-1V7c0-0.2-0.2-0.4-0.4-0.4H9.4C9.2,6.6,9,6.8,9,7v9.1c0,0.2,0.2,0.4,0.4,0.4h0.8v1H9.4
	c-0.7,0-1.4-0.6-1.4-1.4V7c0-0.7,0.6-1.4,1.4-1.4h4.8C14.9,5.7,15.5,6.3,15.5,7z M21.7,13.2L21,13.9c0.1,0.1,0.2,0.2,0.2,0.3v9.1
	c0,0.2-0.2,0.4-0.4,0.4h-4.8c-0.2,0-0.4-0.2-0.4-0.4v-4.1l-1,1v3.1c0,0.7,0.6,1.4,1.4,1.4h4.8c0.7,0,1.4-0.6,1.4-1.4v-9.1
	C22.2,13.8,22,13.5,21.7,13.2z M23.9,11.1v14.2c0,0.9-0.8,1.7-1.7,1.7h-1.8c-0.7-0.6-1.4-1-2.2-1c-1.1,0-1.9,0.6-2.3,1h-3.1v-4.8
	l-1.4,1.4v3.6c0,0.7,0.5,1.2,1.2,1.2h3.6l0.3,0l0.2-0.2c0,0,0.6-0.7,1.4-0.7c0.5,0,0.9,0.2,1.3,0.7l0.2,0.2h2.5
	c1.7,0,3.1-1.4,3.1-3.1V10c0-0.1,0-0.2-0.1-0.3L23.9,11.1z M27.7,3.7l-24,24c-0.4,0.4-1,0.4-1.4,0s-0.4-1,0-1.4l5.1-5.1H5.9
	c-0.7,0-1.2-0.5-1.2-1.2V2.8c0-0.7,0.5-1.2,1.2-1.2h3.9L10,1.9c0.2,0.2,0.8,0.8,1.5,0.8c0.4,0,0.9-0.3,1.3-0.8L13,1.6h4.5
	c0.7,0,1.2,0.5,1.2,1.2v5h-1.4V3h-3.5c-0.7,0.7-1.4,1.1-2.2,1.1c-1.1,0-2-0.7-2.4-1.1h-3v16.7h2.7l2.5-2.5V10c0-0.7,0.5-1.2,1.2-1.2
	h3.9l0.2,0.3c0.2,0.2,0.8,0.8,1.5,0.8c0.4,0,0.9-0.3,1.3-0.8l0.3-0.3l6.5-6.5c0.4-0.4,1-0.4,1.4,0v0C28.1,2.7,28.1,3.3,27.7,3.7z
	 M12.8,15.8l4.6-4.6c-0.7-0.2-1.3-0.7-1.6-1h-3V15.8z"/>
</svg>
