<?xml version="1.0" encoding="utf-8"?>
<!-- Generator: Adobe Illustrator 19.0.0, SVG Export Plug-In . SVG Version: 6.00 Build 0)  -->
<svg version="1.1" id="Layer_1" xmlns="http://www.w3.org/2000/svg" xmlns:xlink="http://www.w3.org/1999/xlink" x="0px" y="0px"
	 viewBox="30.6 111.5 547.6 416.1" style="enable-background:new 30.6 111.5 547.6 416.1;" xml:space="preserve">
<style type="text/css">
	.st0{fill:#036CE2;}
</style>
<path class="st0" d="M580.9,328.7c-0.1-0.4-0.2-0.7-0.3-1.1c-0.2-0.4-0.4-0.7-0.6-1.1c-0.1-0.3-0.3-0.6-0.4-0.8
	c-0.4-0.6-0.9-1.2-1.4-1.7l-92.4-92.4c-4.3-4.3-11.2-4.3-15.4,0c-4.3,4.3-4.3,11.2,0,15.4l73.8,73.8H339.5c-6,0-10.9,4.9-10.9,10.9
	c0,6,4.9,10.9,10.9,10.9h204.7l-73.8,73.8c-4.3,4.3-4.3,11.2,0,15.4c2.1,2.1,4.9,3.2,7.7,3.2c2.8,0,5.6-1.1,7.7-3.2l92.4-92.4
	c0.5-0.5,1-1.1,1.4-1.7c0.2-0.3,0.3-0.5,0.4-0.8c0.2-0.4,0.4-0.7,0.6-1.1c0.1-0.4,0.2-0.7,0.3-1.1c0.1-0.3,0.2-0.6,0.3-0.9
	c0.3-1.4,0.3-2.9,0-4.3C581.1,329.4,581,329.1,580.9,328.7z"/>
<path class="st0" d="M400.2,417.5l-163,81.5V313.9l163-81.5V310h21.8v-95.2c0-1-0.1-2-0.4-2.9c-0.1-0.3-0.3-0.6-0.4-0.9
	c-0.2-0.6-0.4-1.2-0.7-1.7c-0.2-0.3-0.5-0.6-0.7-0.9c-0.3-0.5-0.7-0.9-1.1-1.3c-0.3-0.3-0.6-0.5-1-0.8c-0.3-0.2-0.6-0.5-0.9-0.7
	c-0.2-0.1-0.3-0.1-0.5-0.2c-0.1-0.1-0.2-0.2-0.4-0.3l-184.8-92.4c-3.1-1.5-6.7-1.5-9.7,0L36.6,205c-0.1,0.1-0.2,0.2-0.4,0.3
	c-0.2,0.1-0.3,0.1-0.5,0.2c-0.3,0.2-0.6,0.5-0.9,0.7c-0.3,0.3-0.7,0.5-1,0.8c-0.4,0.4-0.7,0.9-1.1,1.3c-0.2,0.3-0.5,0.6-0.7,0.9
	c-0.3,0.5-0.5,1.1-0.7,1.7c-0.1,0.3-0.3,0.6-0.4,0.9c-0.3,0.9-0.4,1.9-0.4,2.9v209.5c0,4.1,2.3,7.9,6,9.8l184.8,92.4
	c0.4,0.2,0.9,0.3,1.3,0.5c0.3,0.1,0.5,0.2,0.8,0.3c0.9,0.2,1.8,0.4,2.7,0.4s1.8-0.1,2.7-0.4c0.3-0.1,0.6-0.2,0.8-0.3
	c0.4-0.2,0.9-0.3,1.3-0.5L416,434c3.7-1.8,6-5.6,6-9.8v-70.6h-21.8V417.5z M226.3,134.6l68,34l-160.4,80.2l-68-34L226.3,134.6z
	 M215.4,499l-163-81.5V232.4l163,81.5V499z M226.3,295l-68-34l160.4-80.2l68,34L226.3,295z"/>
</svg>
