<?xml version="1.0" encoding="utf-8"?>
<!-- Generator: Adobe Illustrator 19.0.0, SVG Export Plug-In . SVG Version: 6.00 Build 0)  -->
<svg version="1.1" id="Isolation_Mode" xmlns="http://www.w3.org/2000/svg" xmlns:xlink="http://www.w3.org/1999/xlink" x="0px"
	 y="0px" viewBox="-297 386 16.5 21" style="enable-background:new -297 386 16.5 21;" xml:space="preserve">
<style type="text/css">
	.st0{fill:#333333;}
</style>
<path class="st0" d="M-289,391.5l-0.5-4.5c0-0.6-0.4-1-1-1h-5c-0.6,0-1,0.4-1,1l-0.5,4.5c-0.2,1.9,0.9,3.5,2.5,4.2v9.8
	c0,0.8,0.7,1.5,1.5,1.5s1.5-0.7,1.5-1.5v-9.8C-289.9,395-288.8,393.4-289,391.5 M-292.5,394.9L-292.5,394.9v1v9.6
	c0,0.3-0.2,0.5-0.5,0.5s-0.5-0.2-0.5-0.5v-9.6V395v-0.1c-0.6-0.1-1.3-0.4-1.7-0.9c-0.6-0.6-0.9-1.5-0.8-2.4l0.5-4.5V387l0,0h0.8v5
	c0,0.1,0.1,0.3,0.3,0.3c0.1,0,0.3-0.1,0.3-0.3v-5h1v5c0,0.1,0.1,0.3,0.3,0.3c0.1,0,0.3-0.1,0.3-0.3v-5h1v5c0,0.1,0.1,0.3,0.3,0.3
	c0.1,0,0.3-0.1,0.3-0.3v-5h0.8v0.1v0.1l0.1,4.4c0.1,0.9-0.1,1.8-0.7,2.4C-291.2,394.5-291.8,394.8-292.5,394.9 M-287.5,402
	c0,2.8,1.6,5,3.5,5s3.5-2.2,3.5-5c0-2-0.8-3.7-2-4.5v-10c0-0.8-0.6-1.5-1.5-1.5c-0.8,0-1.5,0.7-1.5,1.5v10
	C-286.6,398.3-287.5,400-287.5,402 M-284.5,387.5c0-0.3,0.3-0.5,0.5-0.5c0.3,0,0.5,0.2,0.5,0.5v9.6v0.9v0.1c1.1,0.4,2,2,2,3.9
	c0,2.2-1.1,4-2.5,4s-2.5-1.8-2.5-4c0-1.9,0.9-3.5,2-3.9V398v-0.9V387.5z"/>
</svg>
