<?xml version="1.0" encoding="utf-8"?>
<!-- Generator: Adobe Illustrator 19.0.0, SVG Export Plug-In . SVG Version: 6.00 Build 0)  -->
<svg version="1.1" id="Dining_Plan" xmlns="http://www.w3.org/2000/svg" xmlns:xlink="http://www.w3.org/1999/xlink" x="0px"
	 y="0px" viewBox="0 0 27.7 15.5" style="enable-background:new 0 0 27.7 15.5;" xml:space="preserve">
<style type="text/css">
	.st0{fill:#036CE2;}
</style>
<path class="st0" d="M27.6,5.3C27.5,4.7,27.3,4,27,3.4c-0.6-1.4-1.5-2.3-2.9-2.9c-0.6-0.2-1.3-0.4-2-0.5C21.5,0,20.8,0,20.1,0
	c-0.9,0-1.9,0-2.8,0C14.2,0,11.1,0,8,0C7.9,0,7.8,0,7.8,0c0,0.2,0.1,0.4,0.1,0.6c0.3,0.7,0.7,1.2,1.1,1.8c0.1,0.1,0.2,0.2,0.3,0.3
	C9.8,3.4,10,4.2,10,5.1c0,0.4,0,0.9,0,1.3c0,0.3,0,0.6-0.1,0.9c0,0.6-0.1,1.1-0.1,1.7c0,0.5-0.3,4-0.3,4.3c0,0.5-1,0.4-1-0.1
	L8.4,7.7c0-0.1-0.1-0.2-0.2-0.2C8,7.4,7.9,7.5,7.9,7.7l-0.2,5.7c0,0.4-1,0.4-1,0L6.4,7.7c0-0.1-0.1-0.2-0.2-0.2
	C6,7.4,5.9,7.5,5.9,7.7v5.6c0,0.4-1,0.5-1,0c-0.1-0.4-0.2-1-0.2-1.5c0-0.3,0-0.6-0.1-0.9c0-0.6-0.1-1.2-0.1-1.7
	c0-0.5-0.1-0.9-0.1-1.4c0-0.4-0.1-0.9-0.1-1.3c0-0.4,0-0.8,0-1.2c0-0.6,0.1-1.2,0.3-1.8C4.8,3,5,2.7,5.3,2.3C5.6,2,5.8,1.7,6,1.4
	C6.2,1,6.4,0.6,6.5,0.2c0-0.1,0-0.1,0-0.2C6.4,0,0.1,0,0,0c0,0,0.1,0.1,0.1,0.1C0.3,0.4,0.5,0.7,0.7,1c0.1,0.1,0.1,0.2,0.1,0.3
	c0,2.7,0,5.4,0,8.1c0,0.4,0,0.9,0,1.3c0,0.6,0.1,1.1,0.3,1.6c0.3,0.9,0.8,1.6,1.5,2.1C3.1,14.8,3.6,15,4,15.1
	c0.8,0.2,1.6,0.3,2.3,0.4c0.9,0,1.9,0,2.8-0.1c0.6-0.1,1.1-0.2,1.7-0.5c0.8-0.4,1.5-0.9,1.9-1.7c0.3-0.5,0.5-1,0.6-1.6
	c0.1-0.7,0.2-1.3,0.2-2c0-2.8,0-5.6,0-8.4c0-0.1,0-0.2,0.1-0.2c0.2-0.3,0.4-0.6,0.6-0.8c0,0,0-0.1,0.1-0.1c0,0,0.1,0.1,0.1,0.1
	c0.2,0.3,0.4,0.6,0.6,0.8C15,1.1,15,1.2,15,1.3c0,4.2,0,8.5,0,12.7c0,0.1,0,0.1-0.1,0.2c-0.2,0.3-0.4,0.6-0.6,0.9c0,0,0,0.1-0.1,0.1
	c0.2,0,6,0,6.1,0c0,0,0,0,0,0c0-0.5,0-0.9,0-1.4c0-0.2-0.1-0.4-0.2-0.6c0-0.1-0.1-0.1-0.1-0.2c-0.2-0.2-0.4-0.4-0.6-0.5
	c-0.5-0.3-0.9-0.8-1.2-1.4c-0.3-0.7-0.4-1.4-0.5-2.1c0-0.6,0-1.1,0.1-1.7C17.8,6.5,18,5.7,18.2,5c0.2-0.6,0.5-1.2,0.9-1.6
	c0.3-0.3,0.6-0.6,0.9-0.8c0.6-0.3,1.2-0.3,1.8,0c0.3,0.2,0.6,0.4,0.8,0.7c0.4,0.5,0.7,1,0.9,1.6c0.6,1.5,0.8,3,0.7,4.5
	c0,0.5-0.1,1-0.3,1.4c-0.3,0.8-0.7,1.4-1.4,1.8c-0.3,0.2-0.5,0.4-0.7,0.7c-0.1,0.2-0.2,0.4-0.2,0.6c0,0.4,0,0.9-0.1,1.3
	c0,0,0,0.1,0,0.1c0,0,0.1,0,0.1,0c0.1,0,0.3,0,0.4,0c0.6-0.1,1.2-0.2,1.7-0.4c1.2-0.4,2.1-1.1,2.8-2.2c0.4-0.6,0.6-1.2,0.8-1.9
	c0.3-1,0.4-2,0.4-3C27.7,6.9,27.7,6.1,27.6,5.3z"/>
</svg>
