<?xml version="1.0" encoding="utf-8"?>
<!-- Generator: Adobe Illustrator 19.0.0, SVG Export Plug-In . SVG Version: 6.00 Build 0)  -->
<svg version="1.1" id="Dining_Plan" xmlns="http://www.w3.org/2000/svg" xmlns:xlink="http://www.w3.org/1999/xlink" x="0px"
	 y="0px" viewBox="-288.9 388.5 28 15.6" style="enable-background:new -288.9 388.5 28 15.6;" xml:space="preserve">
<style type="text/css">
	.st0{fill:#FFFFFF;}
</style>
<path class="st0" d="M-261.3,393.9c-0.1-0.7-0.3-1.3-0.5-1.9c-0.6-1.4-1.5-2.3-2.9-2.9c-0.6-0.2-1.3-0.4-2-0.5
	c-0.7-0.1-1.4-0.1-2.1-0.1c-0.9,0-1.9,0-2.8,0c-3.1,0-6.2,0-9.3,0c-0.1,0-0.1,0-0.2,0c0,0.3,0,0.5,0.1,0.7c0.3,0.7,0.7,1.3,1.1,1.8
	c0.1,0.1,0.2,0.2,0.3,0.3c0.5,0.7,0.7,1.5,0.7,2.4c0,0.4,0,0.9,0,1.3c0,0.3,0,0.6-0.1,0.9c0,0.6-0.1,1.1-0.1,1.7
	c0,0.5-0.3,4-0.3,4.3c0,0.5-1,0.4-1-0.1l-0.2-5.5c0-0.1-0.1-0.2-0.2-0.2c-0.1-0.1-0.2,0-0.2,0.2l-0.2,5.7c0,0.4-1,0.4-1,0l-0.3-5.7
	c0-0.1-0.1-0.2-0.2-0.2c-0.1,0-0.3,0-0.3,0.2v5.6c0,0.4-1,0.5-1,0c-0.1-0.4-0.2-1-0.2-1.5c0-0.3,0-0.6-0.1-0.9
	c0-0.6-0.1-1.2-0.1-1.7s-0.1-0.9-0.1-1.4c0-0.4-0.1-0.9-0.1-1.3s0-0.8,0-1.2c0-0.6,0.1-1.2,0.3-1.8c0.1-0.4,0.4-0.8,0.7-1.1
	c0.3-0.3,0.5-0.6,0.7-1s0.4-0.7,0.5-1.2c0-0.1,0-0.1,0-0.2c-0.1,0-6.4,0-6.5,0l0.1,0.1c0.2,0.3,0.4,0.6,0.6,0.9
	c0.1,0.1,0.1,0.2,0.1,0.3c0,2.7,0,5.4,0,8.1c0,0.4,0,0.9,0,1.3c0,0.6,0.1,1.1,0.3,1.6c0.3,0.9,0.8,1.6,1.5,2.1
	c0.4,0.3,0.9,0.5,1.4,0.7c0.8,0.2,1.6,0.3,2.3,0.4c0.9,0,1.9,0,2.8-0.1c0.6-0.1,1.1-0.2,1.7-0.5c0.8-0.4,1.5-0.9,1.9-1.7
	c0.3-0.5,0.5-1,0.6-1.6c0.1-0.7,0.2-1.3,0.2-2c0-2.8,0-5.6,0-8.4c0-0.1,0-0.2,0.1-0.2c0.2-0.3,0.4-0.6,0.6-0.8c0,0,0-0.1,0.1-0.1
	l0.1,0.1c0.2,0.3,0.4,0.6,0.6,0.8c0,0.1,0.1,0.1,0.1,0.2c0,4.2,0,8.5,0,12.7c0,0.1,0,0.1-0.1,0.2c-0.2,0.3-0.4,0.6-0.6,0.9
	c0,0,0,0.1-0.1,0.1c0.2,0,6,0,6.1,0l0,0c0-0.5,0-0.9,0-1.4c0-0.2-0.1-0.4-0.2-0.6c0-0.1-0.1-0.1-0.1-0.2c-0.2-0.2-0.4-0.4-0.6-0.5
	c-0.5-0.3-0.9-0.8-1.2-1.4c-0.3-0.7-0.4-1.4-0.5-2.1c0-0.6,0-1.1,0.1-1.7c0.1-0.8,0.3-1.5,0.6-2.3c0.2-0.6,0.5-1.2,0.9-1.6
	c0.3-0.3,0.6-0.6,0.9-0.8c0.6-0.3,1.2-0.3,1.8,0c0.3,0.2,0.6,0.4,0.8,0.7c0.4,0.5,0.7,1,0.9,1.6c0.6,1.5,0.8,3,0.7,4.5
	c0,0.5-0.1,1-0.3,1.4c-0.3,0.8-0.7,1.4-1.4,1.8c-0.3,0.2-0.5,0.4-0.7,0.7c-0.1,0.2-0.2,0.4-0.2,0.6c0,0.4,0,0.9-0.1,1.3v0.1h0.1
	c0.1,0,0.3,0,0.4,0c0.6-0.1,1.2-0.2,1.7-0.4c1.2-0.4,2.1-1.1,2.8-2.2c0.4-0.6,0.6-1.2,0.8-1.9c0.3-1,0.4-2,0.4-3
	C-261.2,395.5-261.2,394.7-261.3,393.9z"/>
</svg>
