<?xml version="1.0" encoding="utf-8"?>
<!-- Generator: Adobe Illustrator 19.0.0, SVG Export Plug-In . SVG Version: 6.00 Build 0)  -->
<svg version="1.1" id="Isolation_Mode" xmlns="http://www.w3.org/2000/svg" xmlns:xlink="http://www.w3.org/1999/xlink" x="0px"
	 y="0px" viewBox="0 0 16.5 21" style="enable-background:new 0 0 16.5 21;" xml:space="preserve">
<style type="text/css">
	.st0{fill:#FFFFFF;}
</style>
<path class="st0" d="M8,5.5L7.5,1c0-0.6-0.4-1-1-1h-5c-0.6,0-1,0.4-1,1L0,5.5C-0.2,7.4,0.9,9,2.5,9.7v9.8C2.5,20.3,3.2,21,4,21
	c0.8,0,1.5-0.7,1.5-1.5V9.7C7.1,9,8.2,7.4,8,5.5 M4.5,8.9L4.5,8.9v1v9.6C4.5,19.8,4.3,20,4,20c-0.3,0-0.5-0.2-0.5-0.5V9.9V9V8.9
	C2.9,8.8,2.2,8.5,1.8,8C1.2,7.4,0.9,6.5,1,5.6l0.5-4.5l0-0.1V1h0.8v5c0,0.1,0.1,0.3,0.3,0.3c0.1,0,0.3-0.1,0.3-0.3V1h1v5
	c0,0.1,0.1,0.3,0.3,0.3c0.1,0,0.3-0.1,0.3-0.3V1h1v5c0,0.1,0.1,0.3,0.3,0.3c0.1,0,0.3-0.1,0.3-0.3V1h0.8v0.1l0,0.1L7,5.6
	C7.1,6.5,6.9,7.4,6.3,8C5.8,8.5,5.2,8.8,4.5,8.9 M9.5,16c0,2.8,1.6,5,3.5,5c1.9,0,3.5-2.2,3.5-5c0-2-0.8-3.7-2-4.5v-10
	C14.5,0.7,13.9,0,13,0c-0.8,0-1.5,0.7-1.5,1.5v10C10.4,12.3,9.5,14,9.5,16 M12.5,1.5C12.5,1.2,12.8,1,13,1c0.3,0,0.5,0.2,0.5,0.5
	v9.6V12v0.1c1.1,0.4,2,2,2,3.9c0,2.2-1.1,4-2.5,4c-1.4,0-2.5-1.8-2.5-4c0-1.9,0.9-3.5,2-3.9V12v-0.9V1.5z"/>
</svg>
