<?xml version="1.0" encoding="utf-8"?>
<!-- Generator: Adobe Illustrator 19.0.0, SVG Export Plug-In . SVG Version: 6.00 Build 0)  -->
<svg version="1.1" id="Park_Tickets" xmlns="http://www.w3.org/2000/svg" xmlns:xlink="http://www.w3.org/1999/xlink" x="0px"
	 y="0px" viewBox="-285.3 383.6 20.8 26.8" style="enable-background:new -285.3 383.6 20.8 26.8;" xml:space="preserve">
<style type="text/css">
	.st0{fill:#FFFFFF;}
</style>
<path class="st0" d="M-279.8,401.1c-0.5,0.2-0.8,0.5-1,0.7h-3.1V385h3c0.4,0.4,1.3,1.1,2.4,1.1c0.8,0,1.6-0.4,2.2-1.1h3.5v4.8h1.4
	v-5c0-0.7-0.5-1.2-1.2-1.2h-4.4l-0.2,0.3c-0.4,0.5-0.9,0.8-1.3,0.8c-0.7,0-1.3-0.6-1.5-0.8l-0.2-0.3h-3.9c-0.7,0-1.2,0.5-1.2,1.2
	V402c0,0.7,0.5,1.2,1.2,1.2h3.6h0.3l0.2-0.2c0,0,0.1-0.1,0.2-0.2V401.1z"/>
<path class="st0" d="M-275.8,387.7h-4.8c-0.8,0-1.4,0.6-1.4,1.3v9.1c0,0.7,0.6,1.4,1.4,1.4h0.8v-1h-0.8c-0.2,0-0.4-0.2-0.4-0.4V389
	c0-0.2,0.2-0.4,0.4-0.4h4.8c0.2,0,0.4,0.2,0.4,0.4v0.8h1V389C-274.5,388.3-275.1,387.7-275.8,387.7z"/>
<path class="st0" d="M-267.8,410.4h-2.5l-0.2-0.2c-0.4-0.5-0.9-0.7-1.3-0.7c-0.8,0-1.4,0.7-1.4,0.7l-0.2,0.2h-0.3h-3.6
	c-0.7,0-1.2-0.5-1.2-1.2V392c0-0.7,0.5-1.2,1.2-1.2h3.9l0.2,0.3c0.2,0.2,0.8,0.8,1.5,0.8c0.4,0,0.9-0.3,1.3-0.8l0.2-0.3h4.5
	c0.7,0,1.2,0.5,1.2,1.2v15.3C-264.7,409-266.1,410.4-267.8,410.4z M-269.7,409h1.8c0.9,0,1.7-0.8,1.7-1.7v-15h-3.5
	c-0.7,0.7-1.4,1.1-2.2,1.1c-1.1,0-2-0.7-2.4-1.1h-3V409h3.1c0.4-0.4,1.2-1,2.3-1C-271.1,408-270.3,408.3-269.7,409z"/>
<path class="st0" d="M-269.2,406.7h-4.8c-0.7,0-1.4-0.6-1.4-1.4v-9.1c0-0.7,0.6-1.4,1.4-1.4h4.8c0.7,0,1.4,0.6,1.4,1.4v9.1
	C-267.8,406.1-268.4,406.7-269.2,406.7z M-273.9,395.8c-0.2,0-0.4,0.2-0.4,0.4v9.1c0,0.2,0.2,0.4,0.4,0.4h4.8c0.2,0,0.4-0.2,0.4-0.4
	v-9.1c0-0.2-0.2-0.4-0.4-0.4C-269.1,395.8-273.9,395.8-273.9,395.8z"/>
</svg>
