<?xml version="1.0" encoding="utf-8"?>
<!-- Generator: Adobe Illustrator 16.0.0, SVG Export Plug-In . SVG Version: 6.00 Build 0)  -->
<!DOCTYPE svg PUBLIC "-//W3C//DTD SVG 1.1//EN" "http://www.w3.org/Graphics/SVG/1.1/DTD/svg11.dtd">
<svg version="1.1" id="More_Extras" xmlns="http://www.w3.org/2000/svg" xmlns:xlink="http://www.w3.org/1999/xlink" x="0px"
	 y="0px" width="27.222px" height="27.132px" viewBox="0 0 27.222 27.132" enable-background="new 0 0 27.222 27.132"
	 xml:space="preserve">
<g>
	<path fill="#036CE2" d="M13.645,9.235c1.293,0,2.345-1.052,2.345-2.345s-1.052-2.346-2.345-2.346s-2.345,1.053-2.345,2.346
		S12.352,9.235,13.645,9.235z M13.645,5.637c0.691,0,1.254,0.562,1.254,1.254c0,0.691-0.562,1.254-1.254,1.254
		S12.39,7.582,12.39,6.891C12.39,6.198,12.953,5.637,13.645,5.637z"/>
	<path fill="#036CE2" d="M5.864,22.926c3.171-0.062,5.7-2.692,5.638-5.863c-0.062-3.109-2.64-5.639-5.749-5.639l-0.114,0.001
		c-1.536,0.03-2.968,0.657-4.033,1.764c-1.065,1.107-1.635,2.563-1.604,4.1c0.061,3.108,2.64,5.639,5.748,5.639L5.864,22.926z
		 M1.342,17.262c-0.023-1.178,0.414-2.294,1.23-3.144c0.816-0.849,1.915-1.329,3.092-1.352l0.088-0.001
		c2.384,0,4.361,1.939,4.407,4.323c0.048,2.431-1.892,4.448-4.323,4.496l-0.088,0.001C3.365,21.586,1.388,19.646,1.342,17.262z"/>
	<path fill="#036CE2" d="M21.837,6.104l-6.493-5.432c-1.097-0.918-2.827-0.894-3.897,0.055L5.354,6.125
		C4.376,6.99,3.816,8.235,3.816,9.541v0.264c0.542-0.142,1.103-0.228,1.676-0.247V9.541c0-0.826,0.354-1.614,0.973-2.162
		l6.093-5.396c0.24-0.212,0.549-0.329,0.87-0.329c0.307,0,0.605,0.108,0.841,0.306l6.493,5.431c0.657,0.551,1.035,1.357,1.035,2.215
		v13.192c0,1.466-1.193,2.659-2.659,2.659H8.152c-0.679,0-1.287-0.27-1.754-0.691C6.232,24.779,6.068,24.797,5.9,24.8l-0.152,0.002
		c-0.513,0-1.016-0.053-1.502-0.151c0.696,1.463,2.18,2.481,3.905,2.481h10.985c2.391,0,4.335-1.944,4.335-4.335V9.604
		C23.473,8.249,22.876,6.974,21.837,6.104z"/>
	<path fill="#036CE2" d="M6.543,19.663l-0.032-1.674c-0.001-0.059,0.045-0.107,0.104-0.108l1.685-0.033
		c0.059-0.001,0.105-0.049,0.104-0.107l-0.024-1.233c-0.001-0.059-0.05-0.104-0.108-0.104l-1.685,0.033
		c-0.059,0.001-0.107-0.045-0.108-0.104l-0.033-1.675c-0.001-0.059-0.049-0.104-0.108-0.104l-1.275,0.024
		c-0.059,0.001-0.105,0.05-0.104,0.108l0.033,1.674c0.001,0.059-0.045,0.107-0.104,0.108l-1.684,0.033
		c-0.059,0.001-0.105,0.049-0.104,0.107l0.024,1.233c0.001,0.059,0.05,0.104,0.108,0.104l1.684-0.033
		c0.059-0.001,0.107,0.045,0.108,0.104l0.032,1.675c0.001,0.059,0.05,0.104,0.108,0.104l1.275-0.024
		C6.498,19.771,6.545,19.722,6.543,19.663z"/>
</g>
</svg>
