<?xml version="1.0" encoding="utf-8"?>
<!-- Generator: Adobe Illustrator 19.0.0, SVG Export Plug-In . SVG Version: 6.00 Build 0)  -->
<svg version="1.1" id="Park_Tickets" xmlns="http://www.w3.org/2000/svg" xmlns:xlink="http://www.w3.org/1999/xlink" x="0px"
	 y="0px" viewBox="0 0 20.7 26.8" style="enable-background:new 0 0 20.7 26.8;" xml:space="preserve">
<style type="text/css">
	.st0{fill:#797A7D;}
</style>
<path class="st0" d="M5.6,17.5c-0.5,0.2-0.8,0.5-1,0.7H1.4V1.4h3c0.4,0.4,1.3,1.1,2.4,1.1c0.8,0,1.6-0.4,2.2-1.1h3.5v4.8H14v-5
	C14,0.5,13.4,0,12.8,0H8.3L8.1,0.3C7.7,0.8,7.2,1.1,6.8,1.1c-0.7,0-1.3-0.6-1.5-0.8L5.1,0H1.2C0.5,0,0,0.5,0,1.2v17.2
	c0,0.7,0.5,1.2,1.2,1.2h3.6l0.3,0l0.2-0.2c0,0,0.1-0.1,0.2-0.2V17.5z"/>
<path class="st0" d="M9.5,4.1H4.7C4,4.1,3.3,4.7,3.3,5.4v9.1c0,0.7,0.6,1.4,1.4,1.4h0.8v-1H4.7c-0.2,0-0.4-0.2-0.4-0.4V5.4
	C4.3,5.2,4.5,5,4.7,5h4.8c0.2,0,0.4,0.2,0.4,0.4v0.8h1V5.4C10.8,4.7,10.2,4.1,9.5,4.1z"/>
<path class="st0" d="M17.5,26.8H15l-0.2-0.2c-0.4-0.5-0.9-0.7-1.3-0.7c-0.8,0-1.4,0.7-1.4,0.7l-0.2,0.2l-0.3,0H7.9
	c-0.7,0-1.2-0.5-1.2-1.2V8.4c0-0.7,0.5-1.2,1.2-1.2h3.9L12,7.5c0.2,0.2,0.8,0.8,1.5,0.8c0.4,0,0.9-0.3,1.3-0.8L15,7.2h4.5
	c0.7,0,1.2,0.5,1.2,1.2v15.3C20.7,25.4,19.2,26.8,17.5,26.8z M15.7,25.4h1.8c0.9,0,1.7-0.8,1.7-1.7v-15h-3.5
	c-0.7,0.7-1.4,1.1-2.2,1.1c-1.1,0-2-0.7-2.4-1.1h-3v16.7h3.1c0.4-0.4,1.2-1,2.3-1C14.3,24.4,15,24.7,15.7,25.4z"/>
<path class="st0" d="M16.2,23.1h-4.8c-0.7,0-1.4-0.6-1.4-1.4v-9.1c0-0.7,0.6-1.4,1.4-1.4h4.8c0.7,0,1.4,0.6,1.4,1.4v9.1
	C17.5,22.5,16.9,23.1,16.2,23.1z M11.4,12.2c-0.2,0-0.4,0.2-0.4,0.4v9.1c0,0.2,0.2,0.4,0.4,0.4h4.8c0.2,0,0.4-0.2,0.4-0.4v-9.1
	c0-0.2-0.2-0.4-0.4-0.4H11.4z"/>
</svg>
