<?xml version="1.0" encoding="utf-8"?>
<!-- Generator: Adobe Illustrator 19.0.0, SVG Export Plug-In . SVG Version: 6.00 Build 0)  -->
<svg version="1.1" id="Layer_1_copy" xmlns="http://www.w3.org/2000/svg" xmlns:xlink="http://www.w3.org/1999/xlink" x="0px"
	 y="0px" viewBox="0 0 44 60" style="enable-background:new 0 0 44 60;" xml:space="preserve">
<style type="text/css">
	.st0{fill:#FFFFFF;}
</style>
<circle class="st0" cx="5" cy="19" r="5"/>
<path class="st0" d="M5,28c-0.7,0-1.4-0.1-2-0.2V58c0,1.1,0.9,2,2,2s2-0.9,2-2V27.8C6.4,27.9,5.7,28,5,28z"/>
<path class="st0" d="M5,10c0.7,0,1.4,0.1,2,0.2V2c0-1.1-0.9-2-2-2S3,0.9,3,2v8.2C3.6,10.1,4.3,10,5,10z"/>
<circle class="st0" cx="22" cy="41" r="5"/>
<path class="st0" d="M22,32c0.7,0,1.4,0.1,2,0.2V2c0-1.1-0.9-2-2-2s-2,0.9-2,2v30.2C20.6,32.1,21.3,32,22,32z"/>
<path class="st0" d="M22,50c-0.7,0-1.4-0.1-2-0.2V58c0,1.1,0.9,2,2,2s2-0.9,2-2v-8.2C23.4,49.9,22.7,50,22,50z"/>
<circle class="st0" cx="39" cy="19" r="5"/>
<path class="st0" d="M39,28c-0.7,0-1.4-0.1-2-0.2V58c0,1.1,0.9,2,2,2s2-0.9,2-2V27.8C40.4,27.9,39.7,28,39,28z"/>
<path class="st0" d="M39,10c0.7,0,1.4,0.1,2,0.2V2c0-1.1-0.9-2-2-2s-2,0.9-2,2v8.2C37.6,10.1,38.3,10,39,10z"/>
</svg>
