<?xml version="1.0" encoding="utf-8"?>
<!-- Generator: Adobe Illustrator 19.0.0, SVG Export Plug-In . SVG Version: 6.00 Build 0)  -->
<svg version="1.1" id="Universal_Express" xmlns="http://www.w3.org/2000/svg" xmlns:xlink="http://www.w3.org/1999/xlink" x="0px"
	 y="0px" viewBox="-288.6 388.6 27.2 15.3" style="enable-background:new -288.6 388.6 27.2 15.3;" xml:space="preserve">
<style type="text/css">
	.st0{fill:#FFFFFF;}
</style>
<path class="st0" d="M-261.4,394.7c-0.4-4.1-6.8-6.8-14.3-6c-7.5,0.8-13.2,4.9-12.9,9c0.4,4.1,6.8,6.8,14.3,6c0.4,0,0.8-0.1,1.2-0.2
	l-0.1-0.3l-0.2-0.7c-0.5,0-1.1,0.1-1.6,0.1c-6.5,0-11.8-2.8-11.8-6.4c0-3.5,5.3-6.4,11.8-6.4s11.8,2.8,11.8,6.4
	c0,2.5-2.7,4.7-6.6,5.7l0.2,0.8C-264.5,401.1-261.1,397.9-261.4,394.7z"/>
<polygon class="st0" points="-278.1,400.1 -277.6,398.3 -279.3,398.3 -279,397.2 -277.5,397.1 -277.1,395.4 -278.6,395.4 
	-278.2,394.2 -276.4,394.2 -276.1,392.5 -279.3,392.5 -281.5,400.1 "/>
<polygon class="st0" points="-275.8,392.5 -273.5,392.5 -273,394.9 -271.3,392.5 -269.1,392.5 -272.2,396.5 -269.9,404.3 
	-272.1,404.3 -273.9,398.2 -275.6,400.1 -278.1,400.1 -274.8,396.5 "/>
</svg>
