<?xml version="1.0" encoding="utf-8"?>
<!-- Generator: Adobe Illustrator 19.0.0, SVG Export Plug-In . SVG Version: 6.00 Build 0)  -->
<svg version="1.1" id="Universal_Express" xmlns="http://www.w3.org/2000/svg" xmlns:xlink="http://www.w3.org/1999/xlink" x="0px"
	 y="0px" viewBox="0 0 27.2 15.7" style="enable-background:new 0 0 27.2 15.7;" xml:space="preserve">
<style type="text/css">
	.st0{fill:#036CE6;}
</style>
<path class="st0" d="M27.1,6.1c-0.4-4.1-6.8-6.8-14.3-6C5.4,1-0.4,5,0,9.2c0.4,4.1,6.8,6.8,14.3,6c0.4,0,0.8-0.1,1.2-0.2l-0.1-0.3
	l-0.2-0.7c-0.5,0-1.1,0.1-1.6,0.1C7,14,1.7,11.2,1.7,7.6c0-3.5,5.3-6.4,11.8-6.4c6.5,0,11.8,2.8,11.8,6.4c0,2.5-2.7,4.7-6.6,5.7
	l0.2,0.8C24,12.5,27.4,9.3,27.1,6.1z"/>
<polygon class="st0" points="10.5,11.5 11,9.7 9.3,9.7 9.5,8.6 11,8.5 11.5,6.8 10,6.8 10.3,5.6 12.2,5.6 12.5,3.9 9.3,3.9 7,11.5 
	"/>
<polygon class="st0" points="12.7,3.9 15,3.9 15.5,6.3 17.2,3.9 19.5,3.9 16.3,7.9 18.6,15.7 16.5,15.7 14.7,9.6 12.9,11.5 
	10.5,11.5 13.7,7.9 "/>
</svg>
