<?xml version="1.0" encoding="utf-8"?>
<!-- Generator: Adobe Illustrator 19.0.0, SVG Export Plug-In . SVG Version: 6.00 Build 0)  -->
<svg version="1.1" id="Rider_Height" xmlns="http://www.w3.org/2000/svg" xmlns:xlink="http://www.w3.org/1999/xlink" x="0px"
	 y="0px" viewBox="0 0 16.7 28.6" style="enable-background:new 0 0 16.7 28.6;" xml:space="preserve">
<style type="text/css">
	.st0{fill:#036CE2;}
</style>
<g>
	<g>
		<path class="st0" d="M6.9,3.9c0-1.2-0.9-2.1-2-2.1c-1.1,0-2,0.9-2,2.1c0,1.2,0.9,2.1,2,2.1C6,6,6.9,5.1,6.9,3.9z M0,7.9v6.8
			c0,0.6,0.5,1,1,1c0.6,0,1-0.5,1-1V8.9h0.5v16.8c0,0.6,0.5,1,1,1c0.6,0,1-0.5,1-1v-9.9h0.5v9.9c0,0.6,0.5,1,1,1c0.6,0,1-0.5,1-1
			V8.9h0.5v5.8c0,0.6,0.5,1,1,1c0.6,0,1-0.5,1-1V7.9c0-0.6-0.5-1-1-1H1C0.5,6.8,0,7.3,0,7.9z M0,0v0.9h16.7V0H0z M0,28.6h16.7v-0.9
			H0V28.6z M13,23.9l1.9,1.9l1.9-1.9h-1.3V4.2h1.3l-1.9-1.9L13,4.2h1.3v19.7H13z"/>
	</g>
</g>
</svg>
