<?xml version="1.0" encoding="utf-8"?>
<!-- Generator: Adobe Illustrator 19.0.0, SVG Export Plug-In . SVG Version: 6.00 Build 0)  -->
<svg version="1.1" id="Layer_1" xmlns="http://www.w3.org/2000/svg" xmlns:xlink="http://www.w3.org/1999/xlink" x="0px" y="0px"
	 viewBox="-38 146.4 534.8 500.6" style="enable-background:new -38 146.4 534.8 500.6;" xml:space="preserve">
<style type="text/css">
	.st0{fill:#333333;}
</style>
<path class="st0" d="M490.3,346.4L448.7,317l0,0L238.2,167.1c-5.5-3.7-12.2-3.7-17.7,0l-42.8,30.6v-36.1c0-8.6-6.7-15.3-15.3-15.3
	H98.8c-8.6,0-15.3,6.7-15.3,15.3v102.8l-73.4,52l0,0l-41.6,29.4c-6.7,4.9-8.6,14.7-3.7,21.4s14.7,8.6,21.4,3.7l17.1-12.2v273
	c0,8.6,6.7,15.3,15.3,15.3h421.7c8.6,0,15.3-6.7,15.3-15.3V359.3l17.1,12.2c2.4,1.8,5.5,3.1,8.6,3.1c4.9,0,9.8-2.4,12.2-6.7
	C498.9,360.5,497.1,351.3,490.3,346.4z M113.9,176.3h32.4v42.8l-32.4,23.3V176.3z M278,616.9h-96.7V427.2H278V616.9z M424.2,616.9
	H308.6v-205c0-8.6-6.7-15.3-15.3-15.3H166c-8.6,0-15.3,6.7-15.3,15.3v205H33.8V337.2L229,198.3l195.2,138.9V616.9z"/>
</svg>
