<?xml version="1.0" encoding="utf-8"?>
<!-- Generator: Adobe Illustrator 19.0.0, SVG Export Plug-In . SVG Version: 6.00 Build 0)  -->
<svg version="1.1" id="Layer_1" xmlns="http://www.w3.org/2000/svg" xmlns:xlink="http://www.w3.org/1999/xlink" x="0px" y="0px"
	 viewBox="38.8 69.2 534.8 500.6" style="enable-background:new 38.8 69.2 534.8 500.6;" xml:space="preserve">
<style type="text/css">
	.st0{fill:#FFFFFF;}
</style>
<path class="st0" d="M567.3,269.3l-41.6-29.4l0,0L315.2,90c-5.5-3.7-12.2-3.7-17.7,0l-42.8,30.6V84.5c0-8.6-6.7-15.3-15.3-15.3
	h-63.6c-8.6,0-15.3,6.7-15.3,15.3v102.8l-73.4,52l0,0l-41.6,29.4c-6.7,4.9-8.6,14.7-3.7,21.4s14.7,8.6,21.4,3.7l17.1-12.2v273
	c0,8.6,6.7,15.3,15.3,15.3h421.7c8.6,0,15.3-6.7,15.3-15.3V282.2l17.1,12.2c2.4,1.8,5.5,3.1,8.6,3.1c4.9,0,9.8-2.4,12.2-6.7
	C575.9,283.4,574.1,274.2,567.3,269.3z M190.9,99.2h32.4V142l-32.4,23.3V99.2z M355,539.8h-96.7V350.1H355V539.8z M501.2,539.8
	H385.6v-205c0-8.6-6.7-15.3-15.3-15.3H243c-8.6,0-15.3,6.7-15.3,15.3v205H110.8V260.1L306,121.2l195.2,138.9V539.8z"/>
</svg>
