<?xml version="1.0" encoding="utf-8"?>
<!-- Generator: Adobe Illustrator 19.0.0, SVG Export Plug-In . SVG Version: 6.00 Build 0)  -->
<svg version="1.1" id="On-Site_Hotels" xmlns="http://www.w3.org/2000/svg" xmlns:xlink="http://www.w3.org/1999/xlink" x="0px"
	 y="0px" viewBox="0 0 27.9 16.1" style="enable-background:new 0 0 27.9 16.1;" xml:space="preserve">
<style type="text/css">
	.st0{fill:#036CE2;}
</style>
<path class="st0" d="M6.6,16.1l-1,0c0.1-0.2,1.2-4.5-2.4-7.3c-1.5,0.5-1.5,2-1.8,2.9c-0.9-1.5-0.1-3.1,0.4-3.9
	C1.2,7.8,0.4,8.5,0,8.9c0.5-2.7,2.3-2.4,2.3-2.4S2.7,4.4,5,4.2C4.4,4.5,3.6,6,3.8,6.6C4.6,6.2,6,6.1,7,7.5C6.3,7.4,5.1,7,4.2,8.3
	C8,11.5,6.6,16.1,6.6,16.1z M21.3,16.1l1,0c-0.1-0.2-1.2-4.5,2.4-7.3c1.5,0.5,1.5,2,1.8,2.9c0.9-1.5,0.1-3.1-0.4-3.9
	c0.7-0.1,1.5,0.6,1.9,1c-0.5-2.7-2.3-2.4-2.3-2.4s-0.3-2.1-2.6-2.3c0.6,0.3,1.4,1.8,1.2,2.4c-0.8-0.4-2.3-0.5-3.2,0.9
	c0.7-0.1,1.9-0.4,2.8,0.8C19.9,11.5,21.2,16.1,21.3,16.1z M20.1,4.4v11.7H19H8.7H7.6V4.4c0-2.3,0-3,0.8-3.7C8.9,0.2,9.3,0,11.4,0
	l0.7,0l3.4,0v0c2.5,0,3.2,0.1,3.8,0.7C20.1,1.3,20.1,2.1,20.1,4.4z M19.1,4.4c0-1.9,0-2.6-0.4-2.9C18.2,1,17.8,1,15.6,1h-2.7
	c-2.2,0-3.4,0-3.8,0.4c-0.4,0.4-0.4,1-0.4,2.9v10.7h2.7v-2c0,0,1.3-0.7,2.4-0.7v2.7H14v-2.7c1,0,2.4,0.7,2.4,0.7v2h2.8V4.4z
	 M11.6,12.5c0.5-0.2,1.5-0.6,2.3-0.6c0.7,0,1.6,0.3,2.2,0.6c0.2,0.1,0.4,0,0.4-0.1c0.1-0.2,0-0.4-0.1-0.4c-0.2-0.1-1.4-0.7-2.5-0.6
	c-1,0-2.1,0.4-2.6,0.7c-0.2,0.1-0.2,0.3-0.1,0.4c0.1,0.1,0.2,0.2,0.3,0.2C11.5,12.6,11.5,12.6,11.6,12.5z M17.9,2.1v8.2H9.8V2.1
	H17.9z M17.3,2.7h-1.9v1.9h1.9V2.7z M14.7,7.1V5.3h-1.8v1.8H14.7z M12.9,7.8v1.8h1.8V7.8H12.9z M12.3,5.3h-1.8v1.8h1.8V5.3z
	 M14.7,4.6V2.7h-1.8v1.9H14.7z M15.4,7.1h1.9V5.3h-1.9V7.1z M10.4,2.7v1.9h1.8V2.7H10.4z M10.4,9.6h1.8V7.8h-1.8V9.6z M17.3,9.6V7.8
	h-1.9v1.8H17.3z"/>
</svg>
