<?xml version="1.0" encoding="utf-8"?>
<!-- Generator: Adobe Illustrator 19.0.0, SVG Export Plug-In . SVG Version: 6.00 Build 0)  -->
<svg version="1.1" id="Layer_1" xmlns="http://www.w3.org/2000/svg" xmlns:xlink="http://www.w3.org/1999/xlink" x="0px" y="0px"
	 viewBox="0 84 528 360" style="enable-background:new 0 84 528 360;" xml:space="preserve">
<style type="text/css">
	.st0{fill:#797A7D;}
</style>
<g>
	<path class="st0" d="M468,444H60c-33.1,0-60-26.9-60-60V144c0-33.1,26.9-60,60-60h408c33.1,0,60,26.9,60,60v240
		C528,417.1,501.1,444,468,444z M60,108c-19.8,0-36,16.2-36,36v240c0,19.8,16.2,36,36,36h408c19.8,0,36-16.2,36-36V144
		c0-19.8-16.2-36-36-36H60z"/>
</g>
<g>
	<path class="st0" d="M180,396c-72.8,0-132-59.2-132-132s59.2-132,132-132s132,59.2,132,132S252.8,396,180,396z M180,156
		c-59.5,0-108,48.5-108,108s48.5,108,108,108s108-48.5,108-108S239.5,156,180,156z"/>
</g>
<g>
	<g>
		<path class="st0" d="M180,300c-33.1,0-60-26.9-60-60s26.9-60,60-60s60,26.9,60,60S213.1,300,180,300z M180,204
			c-19.8,0-36,16.2-36,36s16.2,36,36,36s36-16.2,36-36S199.8,204,180,204z"/>
	</g>
	<g>
		<path class="st0" d="M180,396c-35.2,0-68.4-13.7-93.3-38.6c-3.2-3.2-4.4-8-2.9-12.4c14.2-41.3,52.8-69,96.1-69s81.9,27.7,96.1,69
			c1.5,4.3,0.4,9.1-2.9,12.4C248.4,382.3,215.2,396,180,396z M109.4,345.7c39.2,34,102,34,141.2,0C238,318.1,210.5,300,180,300
			S122,318.1,109.4,345.7z"/>
	</g>
</g>
<g>
	<path class="st0" d="M468,204H348c-6.6,0-12-5.4-12-12s5.4-12,12-12h120c6.6,0,12,5.4,12,12S474.6,204,468,204z"/>
</g>
<g>
	<path class="st0" d="M468,276H348c-6.6,0-12-5.4-12-12s5.4-12,12-12h120c6.6,0,12,5.4,12,12S474.6,276,468,276z"/>
</g>
<g>
	<path class="st0" d="M468,348H348c-6.6,0-12-5.4-12-12s5.4-12,12-12h120c6.6,0,12,5.4,12,12S474.6,348,468,348z"/>
</g>
</svg>
