<?xml version="1.0" encoding="utf-8"?>
<!-- Generator: Adobe Illustrator 19.0.0, SVG Export Plug-In . SVG Version: 6.00 Build 0)  -->
<svg version="1.1" id="Layer_2" xmlns="http://www.w3.org/2000/svg" xmlns:xlink="http://www.w3.org/1999/xlink" x="0px" y="0px"
	 viewBox="1558.1 703.4 557.8 535.8" style="enable-background:new 1558.1 703.4 557.8 535.8;" xml:space="preserve">
<style type="text/css">
	.st0{fill:#036CE2;}
</style>
<path class="st0" d="M1706.8,811c11.3,11.3,11.3,29.7,0,41c-11.3,11.3-29.7,11.3-41,0c-11.3-11.3-11.3-29.7,0-41
	C1677.1,799.7,1695.5,799.7,1706.8,811 M1718.1,799.7c-17.6-17.6-46.1-17.6-63.6,0c-17.6,17.6-17.6,46.1,0,63.6
	c17.6,17.6,46.1,17.6,63.6,0C1735.7,845.8,1735.7,817.3,1718.1,799.7L1718.1,799.7z M2111.3,1143.4l-238.6-238.6
	c14.3-53.4,0.4-112.7-41.4-154.6c-62.5-62.5-163.8-62.5-226.3,0s-62.5,163.8,0,226.3c41.9,41.9,101.2,55.7,154.6,41.4l33.4,33.4
	c1.4,1.4,3.3,2.3,5.3,2.3l48.4,1.9c4.2,0.2,7.5,3.5,7.7,7.7l1.5,36.7c0.3,8.3,7,15,15.3,15.3l36.7,1.5c4.2,0.2,7.5,3.5,7.7,7.7
	l1.5,36.8c0.3,8.3,7,15,15.4,15.3l36.8,1.5c4.2,0.2,7.5,3.5,7.7,7.7l1.5,36.7c0.3,8.3,7,15,15.4,15.4l35.4,1.4
	c5.6,0.2,11-1.9,14.9-5.8l67.4-67.3C2117.5,1159.8,2117.5,1149.6,2111.3,1143.4z M1718.1,995.4c-35.3,0-68.4-13.7-93.3-38.7
	c-24.9-24.9-38.7-58.1-38.7-93.3c0-35.3,13.7-68.4,38.7-93.3c24.9-24.9,58.1-38.7,93.3-38.7c35.3,0,68.4,13.7,93.3,38.7
	c24.9,24.9,38.7,58.1,38.7,93.3c0,35.3-13.7,68.4-38.7,93.3C1786.5,981.6,1753.4,995.4,1718.1,995.4z M2029.7,1208
	c-2,2-4.7,3-7.5,2.9l-9.1-0.4c-4.2-0.2-7.5-3.5-7.7-7.7l-1-25.7l-0.4-11.1c-0.3-8.3-7-15-15.4-15.4l-11.1-0.4l-25.7-1
	c-4.2-0.2-7.5-3.5-7.7-7.7l-1-25.7l-0.4-11.1c-0.3-8.3-7-15-15.3-15.4l-11.1-0.4l-25.6-1c-4.2-0.2-7.5-3.5-7.7-7.7l-1-25.6
	l-0.4-11.1c-0.3-8.3-7-15-15.4-15.3l-11.1-0.4l-48-1.9l-18.8-18.8c15.5-7.6,30-17.8,42.9-30.7c3.2-3.2,6.1-6.4,9-9.7l170.8,170.8
	c3.1,3.1,8.2,3.1,11.3,0c3.1-3.1,3.1-8.2,0-11.3L1850,953.9c4.5-6.5,8.5-13.3,11.9-20.3l215.4,215.4c3.1,3.1,3.1,8.2,0,11.3
	L2029.7,1208z"/>
</svg>
