<?xml version="1.0" encoding="utf-8"?>
<!-- Generator: Adobe Illustrator 19.0.0, SVG Export Plug-In . SVG Version: 6.00 Build 0)  -->
<svg version="1.1" id="Layer_1" xmlns="http://www.w3.org/2000/svg" xmlns:xlink="http://www.w3.org/1999/xlink" x="0px" y="0px"
	 viewBox="58.7 5.8 493.5 626" style="enable-background:new 58.7 5.8 493.5 626;" xml:space="preserve">
<style type="text/css">
	.st0{fill:#A7A7A7;}
</style>
<path class="st0" d="M293.3,368c-17.8,3.8-33.2,19.1-37,38.3c-5.1,25.5,8.9,48.5,30.6,57.4v66.3c0,7.6,5.1,12.8,12.8,12.8h11.5
	c7.7,0,12.8-5.1,12.8-12.8v-66.3c19.1-7.7,31.9-25.5,31.9-47.2C355.7,384.5,326.4,360.3,293.3,368z"/>
<path class="st0" d="M484.5,248.1H436h-46H176v-72.7c0-71.4,58.6-130,130-130c60.3,0,111.5,41.8,126,97.8h39.5
	C457,65,388.5,5.8,306,5.8c-93.1,0-168.3,76.5-168.3,169.6v72.7c-44.6,2.6-79,38.3-79,82.9v218c0,45.9,37,82.9,82.9,82.9h327.7
	c21.7,0,43.4-8.9,58.7-24.2c15.3-15.3,24.2-37,24.2-58.6V331C553.2,289.9,523.1,255.3,484.5,248.1z M515.1,549
	c0,25.5-20.4,44.6-44.6,44.6H142.8c-25.5,0-44.6-20.4-44.6-44.6V331c0-25.5,20.4-44.6,44.6-44.6h327.7c25.5,0,44.6,20.4,44.6,44.6
	V549z"/>
</svg>
