<?xml version="1.0" encoding="utf-8"?>
<!-- Generator: Adobe Illustrator 19.0.0, SVG Export Plug-In . SVG Version: 6.00 Build 0)  -->
<svg version="1.1" id="Layer_1" xmlns="http://www.w3.org/2000/svg" xmlns:xlink="http://www.w3.org/1999/xlink" x="0px" y="0px"
	 viewBox="59.3 5.8 493.5 626" style="enable-background:new 59.3 5.8 493.5 626;" xml:space="preserve">
<style type="text/css">
	.st0{fill:#797A7D;}
</style>
<path class="st0" d="M474.9,246.8v-72.7c0-93.1-75.2-168.3-168.3-168.3S138.3,82.3,138.3,175.4v72.7c-44.6,2.6-79.1,38.3-79.1,82.9
	v218c0,45.9,37,82.9,82.9,82.9h327.7c21.7,0,43.4-8.9,58.6-24.2c15.3-15.3,24.2-37,24.2-58.6V331C554,286.4,518.3,249.4,474.9,246.8
	z M306.6,45.4c71.4,0,130.1,58.7,130.1,130.1v72.7H176.6v-72.7C176.6,104,235.2,45.4,306.6,45.4z M515.7,549
	c0,25.5-20.4,44.6-44.6,44.6H143.4c-25.5,0-44.6-20.4-44.6-44.6V331c0-25.5,20.4-44.6,44.6-44.6h327.7c25.5,0,44.6,20.4,44.6,44.6
	V549z M356.3,416.4c0-31.9-29.3-56.1-62.5-48.4c-17.8,3.8-33.1,19.1-37,38.3c-5.1,25.5,8.9,48.5,30.6,57.4v66.3
	c0,7.6,5.1,12.8,12.8,12.8h11.5c7.6,0,12.8-5.1,12.8-12.8v-66.3C343.6,455.9,356.3,438.1,356.3,416.4z"/>
</svg>
