<?xml version="1.0" encoding="utf-8"?>
<!-- Generator: Adobe Illustrator 19.0.0, SVG Export Plug-In . SVG Version: 6.00 Build 0)  -->
<svg version="1.1" id="Layer_1" xmlns="http://www.w3.org/2000/svg" xmlns:xlink="http://www.w3.org/1999/xlink" x="0px" y="0px"
	 viewBox="0 0 24 24" style="enable-background:new 0 0 24 24;" xml:space="preserve">
<style type="text/css">
	.st0{fill:#333333;}
</style>
<path id="Search_Icon" class="st0" d="M23.1,18.9l-6-6c2.1-4.5,0.2-9.9-4.2-12C8.4-1.3,3,0.6,0.9,5.1c-2.1,4.5-0.2,9.9,4.2,12
	c2.5,1.2,5.3,1.2,7.8,0l6,6c1.2,1.2,3.1,1.2,4.2,0S24.3,20,23.1,18.9L23.1,18.9z M1.5,9c0-4.1,3.4-7.5,7.5-7.5
	c4.1,0,7.5,3.4,7.5,7.5s-3.4,7.5-7.5,7.5c0,0,0,0,0,0C4.9,16.5,1.5,13.1,1.5,9z M22.1,22.1c-0.3,0.3-0.7,0.4-1.1,0.4
	c-0.4,0-0.8-0.2-1.1-0.4l-5.7-5.7c0.8-0.6,1.5-1.3,2.1-2.1l5.7,5.7C22.6,20.5,22.6,21.5,22.1,22.1C22.1,22,22.1,22.1,22.1,22.1
	L22.1,22.1z"/>
</svg>
