<?xml version="1.0" encoding="utf-8"?>
<!-- Generator: Adobe Illustrator 16.0.0, SVG Export Plug-In . SVG Version: 6.00 Build 0)  -->
<!DOCTYPE svg PUBLIC "-//W3C//DTD SVG 1.1//EN" "http://www.w3.org/Graphics/SVG/1.1/DTD/svg11.dtd">
<svg version="1.1" id="Live_Action_Shows" xmlns="http://www.w3.org/2000/svg" xmlns:xlink="http://www.w3.org/1999/xlink" x="0px"
	 y="0px" width="28.35px" height="21.212px" viewBox="-291 389.618 28.35 21.212"
	 enable-background="new -291 389.618 28.35 21.212" xml:space="preserve">
<path fill="#036CE6" d="M-264.384,393.188h-8.872v-1.836c0-1.02-0.816-1.733-1.734-1.733h-14.277c-0.917,0-1.733,0.815-1.733,1.733
	v7.139c0,4.896,3.977,8.872,8.872,8.872c1.122,0,2.142-0.204,3.161-0.611c1.53,2.447,4.385,4.079,7.444,4.079
	c4.895,0,8.872-3.978,8.872-8.872v-7.139C-262.65,394.003-263.364,393.188-264.384,393.188z M-289.267,398.49v-7.139h14.175v7.139
	c0,3.875-3.161,7.139-7.138,7.139C-286.003,405.629-289.267,402.365-289.267,398.49z M-264.384,402.06
	c0,3.875-3.162,7.139-7.139,7.139c-2.447,0-4.589-1.224-5.915-3.161c2.447-1.53,4.079-4.386,4.079-7.444v-3.672h8.872v7.139
	H-264.384z M-282.128,403.386c-1.53,0-2.958-0.714-3.875-1.938c-0.204-0.204-0.102-0.511,0.102-0.612
	c0.204-0.102,0.51-0.102,0.612,0.102c0.714,1.021,1.938,1.632,3.161,1.632s2.447-0.611,3.161-1.632
	c0.102-0.203,0.408-0.203,0.612-0.102c0.204,0.102,0.204,0.408,0.102,0.612C-279.171,402.672-280.598,403.386-282.128,403.386
	L-282.128,403.386z M-274.99,406.037c-0.102,0-0.204,0-0.306-0.103c-0.204-0.102-0.204-0.407-0.102-0.611
	c0.918-1.224,2.346-1.938,3.875-1.938c1.53,0,2.958,0.714,3.875,1.938c0.102,0.204,0.102,0.51-0.102,0.611
	c-0.204,0.103-0.51,0.103-0.612-0.102c-0.714-1.02-1.938-1.632-3.161-1.632s-2.447,0.612-3.161,1.632
	C-274.786,405.935-274.888,406.037-274.99,406.037L-274.99,406.037z M-287.431,396.247c-0.102,0-0.204,0-0.306-0.103
	c-0.204-0.102-0.204-0.407-0.102-0.611c0.51-0.714,1.326-1.021,2.142-1.021s1.632,0.408,2.142,1.021
	c0.204,0.204,0.102,0.51-0.102,0.611c-0.204,0.204-0.408,0.103-0.612,0c-0.306-0.51-0.816-0.714-1.428-0.714
	s-1.122,0.307-1.428,0.714C-287.227,396.247-287.329,396.247-287.431,396.247L-287.431,396.247z M-280.395,396.247
	c-0.102,0-0.204,0-0.306-0.103c-0.102-0.102-0.204-0.407,0-0.611c0.51-0.714,1.326-1.021,2.142-1.021
	c0.815,0,1.631,0.408,2.142,1.021c0.102,0.204,0.102,0.51-0.103,0.611c-0.204,0.103-0.51,0.103-0.611-0.102
	c-0.306-0.408-0.816-0.714-1.428-0.714c-0.612,0-1.122,0.306-1.428,0.714C-280.088,396.247-280.19,396.247-280.395,396.247
	L-280.395,396.247z M-267.953,400.735c-0.816,0-1.632-0.408-2.142-1.021c-0.102-0.204-0.102-0.51,0.102-0.611
	c0.204-0.103,0.51-0.103,0.612,0.102c0.306,0.408,0.816,0.714,1.428,0.714s1.122-0.306,1.428-0.714
	c0.102-0.204,0.408-0.204,0.612-0.102c0.204,0.102,0.204,0.407,0.102,0.611C-266.321,400.326-267.035,400.735-267.953,400.735
	L-267.953,400.735z"/>
</svg>
