<?xml version="1.0" encoding="utf-8"?>
<!-- Generator: Adobe Illustrator 19.0.0, SVG Export Plug-In . SVG Version: 6.00 Build 0)  -->
<svg version="1.1" id="Live_Action_Shows" xmlns="http://www.w3.org/2000/svg" xmlns:xlink="http://www.w3.org/1999/xlink" x="0px"
	 y="0px" viewBox="0 0 27.8 20.9" style="enable-background:new 0 0 27.8 20.9;" xml:space="preserve">
<style type="text/css">
	.st0{fill:#FFFFFF;}
</style>
<path class="st0" d="M26.1,3.5h-8.7V1.7c0-1-0.8-1.7-1.7-1.7H1.7C0.8,0,0,0.8,0,1.7v7c0,4.8,3.9,8.7,8.7,8.7c1.1,0,2.1-0.2,3.1-0.6
	c1.5,2.4,4.3,4,7.3,4c4.8,0,8.7-3.9,8.7-8.7v-7C27.8,4.3,27.1,3.5,26.1,3.5z M1.7,8.7v-7h13.9v7c0,3.8-3.1,7-7,7
	C4.9,15.7,1.7,12.5,1.7,8.7z M26.1,12.2c0,3.8-3.1,7-7,7c-2.4,0-4.5-1.2-5.8-3.1c2.4-1.5,4-4.3,4-7.3V5.2h8.7V12.2z M8.7,13.5
	c-1.5,0-2.9-0.7-3.8-1.9C4.7,11.4,4.8,11.1,5,11c0.2-0.1,0.5-0.1,0.6,0.1c0.7,1,1.9,1.6,3.1,1.6c1.2,0,2.4-0.6,3.1-1.6
	c0.1-0.2,0.4-0.2,0.6-0.1c0.2,0.1,0.2,0.4,0.1,0.6C11.6,12.8,10.2,13.5,8.7,13.5L8.7,13.5z M15.7,16.1c-0.1,0-0.2,0-0.3-0.1
	c-0.2-0.1-0.2-0.4-0.1-0.6c0.9-1.2,2.3-1.9,3.8-1.9c1.5,0,2.9,0.7,3.8,1.9c0.1,0.2,0.1,0.5-0.1,0.6c-0.2,0.1-0.5,0.1-0.6-0.1
	c-0.7-1-1.9-1.6-3.1-1.6c-1.2,0-2.4,0.6-3.1,1.6C15.9,16,15.8,16.1,15.7,16.1L15.7,16.1z M3.5,6.5c-0.1,0-0.2,0-0.3-0.1
	C3,6.3,3,6,3.1,5.8c0.5-0.7,1.3-1,2.1-1c0.8,0,1.6,0.4,2.1,1C7.5,6,7.4,6.3,7.2,6.4C7,6.6,6.8,6.5,6.6,6.4C6.3,5.9,5.8,5.7,5.2,5.7
	c-0.6,0-1.1,0.3-1.4,0.7C3.7,6.5,3.6,6.5,3.5,6.5L3.5,6.5z M10.4,6.5c-0.1,0-0.2,0-0.3-0.1C10,6.3,9.9,6,10.1,5.8
	c0.5-0.7,1.3-1,2.1-1c0.8,0,1.6,0.4,2.1,1c0.1,0.2,0.1,0.5-0.1,0.6c-0.2,0.1-0.5,0.1-0.6-0.1c-0.3-0.4-0.8-0.7-1.4-0.7
	c-0.6,0-1.1,0.3-1.4,0.7C10.7,6.5,10.6,6.5,10.4,6.5L10.4,6.5z M22.6,10.9c-0.8,0-1.6-0.4-2.1-1c-0.1-0.2-0.1-0.5,0.1-0.6
	c0.2-0.1,0.5-0.1,0.6,0.1c0.3,0.4,0.8,0.7,1.4,0.7c0.6,0,1.1-0.3,1.4-0.7c0.1-0.2,0.4-0.2,0.6-0.1c0.2,0.1,0.2,0.4,0.1,0.6
	C24.2,10.5,23.5,10.9,22.6,10.9L22.6,10.9z"/>
</svg>
