<?xml version="1.0" encoding="utf-8"?>
<!-- Generator: Adobe Illustrator 19.0.0, SVG Export Plug-In . SVG Version: 6.00 Build 0)  -->
<svg version="1.1" id="Live_Action_Shows" xmlns="http://www.w3.org/2000/svg" xmlns:xlink="http://www.w3.org/1999/xlink" x="0px"
	 y="0px" viewBox="-291 386.1 27.8 20.9" style="enable-background:new -291 386.1 27.8 20.9;" xml:space="preserve">
<style type="text/css">
	.st0{fill:#333333;}
</style>
<path class="st0" d="M-264.9,389.6h-8.7v-1.8c0-1-0.8-1.7-1.7-1.7h-14c-0.9,0-1.7,0.8-1.7,1.7v7c0,4.8,3.9,8.7,8.7,8.7
	c1.1,0,2.1-0.2,3.1-0.6c1.5,2.4,4.3,4,7.3,4c4.8,0,8.7-3.9,8.7-8.7v-7C-263.2,390.4-263.9,389.6-264.9,389.6z M-289.3,394.8v-7h13.9
	v7c0,3.8-3.1,7-7,7C-286.1,401.8-289.3,398.6-289.3,394.8z M-264.9,398.3c0,3.8-3.1,7-7,7c-2.4,0-4.5-1.2-5.8-3.1
	c2.4-1.5,4-4.3,4-7.3v-3.6h8.7v7H-264.9z M-282.3,399.6c-1.5,0-2.9-0.7-3.8-1.9c-0.2-0.2-0.1-0.5,0.1-0.6s0.5-0.1,0.6,0.1
	c0.7,1,1.9,1.6,3.1,1.6c1.2,0,2.4-0.6,3.1-1.6c0.1-0.2,0.4-0.2,0.6-0.1c0.2,0.1,0.2,0.4,0.1,0.6
	C-279.4,398.9-280.8,399.6-282.3,399.6L-282.3,399.6z M-275.3,402.2c-0.1,0-0.2,0-0.3-0.1c-0.2-0.1-0.2-0.4-0.1-0.6
	c0.9-1.2,2.3-1.9,3.8-1.9s2.9,0.7,3.8,1.9c0.1,0.2,0.1,0.5-0.1,0.6c-0.2,0.1-0.5,0.1-0.6-0.1c-0.7-1-1.9-1.6-3.1-1.6
	c-1.2,0-2.4,0.6-3.1,1.6C-275.1,402.1-275.2,402.2-275.3,402.2L-275.3,402.2z M-287.5,392.6c-0.1,0-0.2,0-0.3-0.1
	c-0.2-0.1-0.2-0.4-0.1-0.6c0.5-0.7,1.3-1,2.1-1c0.8,0,1.6,0.4,2.1,1c0.2,0.2,0.1,0.5-0.1,0.6c-0.2,0.2-0.4,0.1-0.6,0
	c-0.3-0.5-0.8-0.7-1.4-0.7c-0.6,0-1.1,0.3-1.4,0.7C-287.3,392.6-287.4,392.6-287.5,392.6L-287.5,392.6z M-280.6,392.6
	c-0.1,0-0.2,0-0.3-0.1s-0.2-0.4,0-0.6c0.5-0.7,1.3-1,2.1-1c0.8,0,1.6,0.4,2.1,1c0.1,0.2,0.1,0.5-0.1,0.6c-0.2,0.1-0.5,0.1-0.6-0.1
	c-0.3-0.4-0.8-0.7-1.4-0.7c-0.6,0-1.1,0.3-1.4,0.7C-280.3,392.6-280.4,392.6-280.6,392.6L-280.6,392.6z M-268.4,397
	c-0.8,0-1.6-0.4-2.1-1c-0.1-0.2-0.1-0.5,0.1-0.6c0.2-0.1,0.5-0.1,0.6,0.1c0.3,0.4,0.8,0.7,1.4,0.7s1.1-0.3,1.4-0.7
	c0.1-0.2,0.4-0.2,0.6-0.1c0.2,0.1,0.2,0.4,0.1,0.6C-266.8,396.6-267.5,397-268.4,397L-268.4,397z"/>
</svg>
