<?xml version="1.0" encoding="utf-8"?>
<!-- Generator: Adobe Illustrator 19.0.0, SVG Export Plug-In . SVG Version: 6.00 Build 0)  -->
<svg version="1.1" id="Layer_1" xmlns="http://www.w3.org/2000/svg" xmlns:xlink="http://www.w3.org/1999/xlink" x="0px" y="0px"
	 viewBox="0 0 60 45" style="enable-background:new 0 0 60 45;" xml:space="preserve">
<style type="text/css">
	.st0{fill:#333333;}
	.st1{fill:none;stroke:#333333;stroke-width:2;stroke-linecap:round;stroke-miterlimit:10;}
</style>
<g>
	<path class="st0" d="M30,3c14.9,0,27,12.1,27,27c0,4.2-1,8.3-2.8,12l-26.7,0L5.8,42C4,38.3,3,34.2,3,30C3,15.1,15.1,3,30,3 M30,0
		C13.4,0,0,13.4,0,30c0,5.5,1.5,10.6,4,15c8.4,0,41.5,0,52,0c2.6-4.4,4-9.5,4-15C60,13.4,46.6,0,30,0L30,0z"/>
</g>
<path class="st0" d="M32.3,35.4L35,23.6c0.1-0.6-0.7-0.9-0.9-0.3l-4.8,11.1c-2.1,0-4,1.4-4.6,3.4c-0.9,2.6,0.6,5.4,3.2,6.3
	c2.6,0.9,5.4-0.6,6.3-3.2C34.7,38.9,34,36.7,32.3,35.4z"/>
<line class="st1" x1="30" y1="1" x2="30" y2="9"/>
<line class="st1" x1="3" y1="21.3" x2="10.5" y2="24"/>
<line class="st1" x1="56" y1="21.3" x2="48.5" y2="24"/>
</svg>
