<?xml version="1.0" encoding="utf-8"?>
<!-- Generator: Adobe Illustrator 19.0.0, SVG Export Plug-In . SVG Version: 6.00 Build 0)  -->
<svg version="1.1" id="Layer_1" xmlns="http://www.w3.org/2000/svg" xmlns:xlink="http://www.w3.org/1999/xlink" x="0px" y="0px"
	 viewBox="297.5 82.3 494.2 494.2" style="enable-background:new 297.5 82.3 494.2 494.2;" xml:space="preserve">
<style type="text/css">
	.st0{fill:#797A7D;}
</style>
<path class="st0" d="M738.5,482.1c32.9-41.8,53.2-95,53.2-152.7c0-136.2-110.9-247.1-247.1-247.1c-136.2,0-247.1,110.9-247.1,247.1
	s110.9,247.1,247.1,247.1c57.7,0,110.9-19.6,152.7-53.2C722.3,504,738.5,482.1,738.5,482.1z M544.6,525.9
	c-108.3,0-196.4-88.1-196.4-196.4c0-108.3,88.1-196.4,196.4-196.4c108.3,0,196.4,88.1,196.4,196.4
	C741.1,437.8,653,525.9,544.6,525.9z"/>
<path class="st0" d="M617,308.8H472.3c-11.4,0-20.7,9.3-20.7,20.7c0,11.4,9.3,20.7,20.7,20.7H617c11.4,0,20.7-9.3,20.7-20.7
	C637.7,318.1,628.4,308.8,617,308.8z"/>
</svg>
