<?xml version="1.0" encoding="utf-8"?>
<!-- Generator: Adobe Illustrator 16.0.0, SVG Export Plug-In . SVG Version: 6.00 Build 0)  -->
<!DOCTYPE svg PUBLIC "-//W3C//DTD SVG 1.1//EN" "http://www.w3.org/Graphics/SVG/1.1/DTD/svg11.dtd">
<svg version="1.1" id="Layer_1" xmlns="http://www.w3.org/2000/svg" xmlns:xlink="http://www.w3.org/1999/xlink" x="0px" y="0px"
	 width="40px" height="34.023px" viewBox="0 4 40 34.023" enable-background="new 0 4 40 34.023" xml:space="preserve">
<g>
	<g>
		<path fill="#FFFFFF" d="M35.5,31.999h-31c-2.485,0-4.5,1.023-4.5,3.023c0,2.001,2.015,3.001,4.5,3.001h31c2.484,0,4.5-1,4.5-3.001
			C40,33.023,37.984,31.999,35.5,31.999z M35.5,18.001h-31c-2.485,0-4.5,1.021-4.5,3.022c0,2,2.015,3,4.5,3h31c2.484,0,4.5-1,4.5-3
			C40,19.022,37.984,18.001,35.5,18.001z M4.5,10.025h31c2.484,0,4.5-1.002,4.5-3.001C40,5.022,37.984,4,35.5,4h-31
			C2.015,4,0,5.022,0,7.024C0,9.023,2.015,10.025,4.5,10.025z"/>
	</g>
</g>
</svg>
