<?xml version="1.0" encoding="utf-8"?>
<!-- Generator: Adobe Illustrator 19.0.0, SVG Export Plug-In . SVG Version: 6.00 Build 0)  -->
<svg version="1.1" id="Layer_1" xmlns="http://www.w3.org/2000/svg" xmlns:xlink="http://www.w3.org/1999/xlink" x="0px" y="0px"
	 viewBox="0 0 57 57" style="enable-background:new 0 0 57 57;" xml:space="preserve">
<style type="text/css">
	.st0{fill:#FFFFFF;}
</style>
<path class="st0" d="M53.3,14.5L53.3,14.5c-0.1-0.2-0.1-0.3-0.2-0.3c-0.5-0.7-1.4-0.9-2.1-0.4L28.6,29.6l-12.1-9.8
	c-0.3-0.3-0.7-0.4-1.1-0.3c-0.4,0-0.8,0.2-1,0.5c-0.3,0.3-0.4,0.7-0.3,1.1c0,0.4,0.2,0.8,0.5,1l13,10.5c0.5,0.4,1.3,0.4,1.8,0.1
	l22-15.6l0.7,1.7c1.3,3.1,1.9,6.3,1.9,9.6C54,42.6,42.6,54,28.5,54S3,42.6,3,28.5S14.4,3,28.5,3C29.3,3,30,2.3,30,1.5S29.3,0,28.5,0
	C12.8,0,0,12.8,0,28.5S12.8,57,28.5,57S57,44.2,57,28.5C57,23.6,55.7,18.8,53.3,14.5z"/>
</svg>
