<?xml version="1.0" encoding="utf-8"?>
<!-- Generator: Adobe Illustrator 16.0.0, SVG Export Plug-In . SVG Version: 6.00 Build 0)  -->
<!DOCTYPE svg PUBLIC "-//W3C//DTD SVG 1.1//EN" "http://www.w3.org/Graphics/SVG/1.1/DTD/svg11.dtd">
<svg version="1.1" id="Layer_1" xmlns="http://www.w3.org/2000/svg" xmlns:xlink="http://www.w3.org/1999/xlink" x="0px" y="0px"
	 width="235.121px" height="275.932px" viewBox="0 0 235.121 275.932" enable-background="new 0 0 235.121 275.932"
	 xml:space="preserve">
<g>
	<rect x="27.119" fill="#FFFFFF" width="180.894" height="11.778"/>
	<path fill="#FFFFFF" d="M198.819,37.363V259.71h-21.027c0.045-31.771,0.144-99.162,0.144-99.612c0-33.3-27.075-60.386-60.38-60.386
		c-33.283,0-60.38,27.086-60.38,60.386c0,0.45,0.115,67.842,0.159,99.612H36.308V37.363H198.819 M215.029,21.147H20.092v254.785
		h53.48c0,0-0.182-115.24-0.182-115.834c0-24.392,19.778-44.166,44.165-44.166c24.397,0,44.17,19.773,44.17,44.166
		c0,0.594-0.165,115.834-0.165,115.834h53.469V21.147z"/>
	<polygon fill="#FFFFFF" points="235.121,275.932 235.121,84.008 223.464,72.488 223.464,275.932 	"/>
	<polygon fill="#FFFFFF" points="0,275.932 0,84.008 11.657,72.488 11.657,275.932 	"/>
	<path fill="#FFFFFF" d="M169.203,58.571l-0.088,36.351c-13.416-11.805-31.572-18.514-51.917-18.514
		c-20.285,0-38.38,6.665-51.803,18.398l0.077-36.236H169.203 M178.947,48.839H55.767l-0.17,76.497
		c9.573-24.727,33.547-39.2,61.601-39.2c28.065,0,52.039,14.483,61.595,39.211L178.947,48.839z"/>
</g>
</svg>
