<?xml version="1.0" encoding="utf-8"?>
<!-- Generator: Adobe Illustrator 19.0.0, SVG Export Plug-In . SVG Version: 6.00 Build 0)  -->
<svg version="1.1" id="Layer_1" xmlns="http://www.w3.org/2000/svg" xmlns:xlink="http://www.w3.org/1999/xlink" x="0px" y="0px"
	 viewBox="288.6 -6.9 646.5 648" style="enable-background:new 288.6 -6.9 646.5 648;" xml:space="preserve">
<style type="text/css">
	.st0{fill:#036CE2;}
	.st1{fill:#036CE2;stroke:#036CE2;stroke-width:12;stroke-miterlimit:10;}
</style>
<g>
	<g>
		<path class="st0" d="M595.9,511.5v-47.9c-27.5-0.5-56-9-72.6-20.9l11.4-31.8c17.1,11.4,41.7,20.4,68.3,20.4
			c33.7,0,56.4-19.4,56.4-46.5c0-26.1-18.5-42.2-53.6-56.4c-48.4-19-78.3-40.8-78.3-82.1c0-39.4,28-69.3,71.6-76.4v-47.9h29.4v46
			c28.5,1,47.9,8.6,61.7,16.6L678.4,216c-10-5.7-29.4-16.1-59.8-16.1c-36.5,0-50.3,21.8-50.3,40.8c0,24.7,17.6,37,58.8,54.1
			c48.9,19.9,73.5,44.6,73.5,86.8c0,37.5-26.1,72.6-74.9,80.6v49.3L595.9,511.5L595.9,511.5z"/>
	</g>
</g>
<g>
	<g>
		<path class="st1" d="M612,19.8c163.8,0,297,133.2,297,297s-133.2,297-297,297s-297-133.2-297-297S448.2,19.8,612,19.8 M612,0
			C437,0,295.2,141.8,295.2,316.8S437,633.6,612,633.6s316.8-141.8,316.8-316.8S787,0,612,0L612,0z"/>
	</g>
</g>
</svg>
