<?xml version="1.0" encoding="utf-8"?>
<!-- Generator: Adobe Illustrator 19.0.0, SVG Export Plug-In . SVG Version: 6.00 Build 0)  -->
<svg version="1.1" id="Layer_1" xmlns="http://www.w3.org/2000/svg" xmlns:xlink="http://www.w3.org/1999/xlink" x="0px" y="0px"
	 viewBox="6 92.7 623 609.3" style="enable-background:new 6 92.7 623 609.3;" xml:space="preserve">
<style type="text/css">
	.st0{fill:none;stroke:#797A7D;stroke-width:35;stroke-miterlimit:10;}
</style>
<circle class="st0" cx="320.6" cy="238.4" r="122.7"/>
<path class="st0" d="M458.2,382.7H185.5c-88.2,0-159.9,68.9-159.9,153.7v140.5c0,5.1,4.1,9.3,9.3,9.3h77c5.1,0,9.3-4.1,9.3-9.3
	V563.2h27.3v113.6c0,5.1,4.1,9.3,9.3,9.3H480c5.1,0,9.3-4.1,9.3-9.3V563.2h27.3v113.6c0,5.1,4.1,9.3,9.3,9.3h77
	c5.1,0,9.3-4.1,9.3-9.3V536.3C612,450.2,544.4,382.7,458.2,382.7"/>
</svg>
