<?xml version="1.0" encoding="utf-8"?>
<!-- Generator: Adobe Illustrator 19.0.0, SVG Export Plug-In . SVG Version: 6.00 Build 0)  -->
<svg version="1.1" id="Layer_1" xmlns="http://www.w3.org/2000/svg" xmlns:xlink="http://www.w3.org/1999/xlink" x="0px" y="0px"
	 viewBox="0 0 59.2 58.9" style="enable-background:new 0 0 59.2 58.9;" xml:space="preserve">
<style type="text/css">
	.st0{fill:#FFFFFF;}
</style>
<path class="st0" d="M50.6,54.3c-0.5,0-0.9-0.1-1.4-0.4c-1.3-0.8-1.7-2.4-1-3.7c7.5-12.8,7.4-28.7-0.1-41.5c-0.8-1.3-0.3-2.9,1-3.7
	c1.3-0.8,2.9-0.3,3.7,1c8.5,14.5,8.6,32.4,0.1,47C52.4,53.8,51.5,54.3,50.6,54.3z"/>
<path class="st0" d="M40.6,47.7c-0.4,0-0.9-0.1-1.3-0.3c-1.3-0.7-1.8-2.4-1.1-3.7c4.8-8.8,4.8-19.6-0.1-28.3c-0.7-1.3-0.3-2.9,1-3.7
	c1.3-0.7,3-0.3,3.7,1c5.8,10.3,5.9,23.2,0.1,33.6C42.5,47.2,41.6,47.7,40.6,47.7z"/>
<path class="st0" d="M40.6,47.7c-0.4,0-0.9-0.1-1.3-0.3c-1.3-0.7-1.8-2.4-1.1-3.7c4.8-8.8,4.8-19.6-0.1-28.3c-0.7-1.3-0.3-2.9,1-3.7
	c1.3-0.7,3-0.3,3.7,1c5.8,10.3,5.9,23.2,0.1,33.6C42.5,47.2,41.6,47.7,40.6,47.7z"/>
<path class="st0" d="M26.5,0H4.8C2.1,0,0,2.1,0,4.8v5v39v5.4c0,2.6,2.1,4.8,4.8,4.8h21.8c2.6,0,4.8-2.1,4.8-4.8v-5.4v-39v-5
	C31.3,2.1,29.2,0,26.5,0z M28.4,51.5v2.7c0,1-0.9,1.8-1.9,1.8H4.8c-1,0-1.8-0.9-1.8-1.8v-2.7v-1.3h1.3h23h1.3V51.5z M28.4,12.4V46
	v1.3h-1.3h-23H2.9V46V12.4v-1.3h1.3h23h1.3V12.4z M28.4,7v1.3h-1.3h-23H2.9V7V4.8c0-1,0.9-1.8,1.8-1.8h21.8c1,0,1.9,0.9,1.9,1.8V7z"
	/>
</svg>
