<?xml version="1.0" encoding="utf-8"?>
<!-- Generator: Adobe Illustrator 19.0.0, SVG Export Plug-In . SVG Version: 6.00 Build 0)  -->
<svg version="1.1" id="Layer_1" xmlns="http://www.w3.org/2000/svg" xmlns:xlink="http://www.w3.org/1999/xlink" x="0px" y="0px"
	 viewBox="0 0 90 63.7" style="enable-background:new 0 0 90 63.7;" xml:space="preserve">
<style type="text/css">
	.st0{fill:#797A7D;}
</style>
<path class="st0" d="M87.5,3.7H18.8c0-1.1-0.3-2.1-0.9-3.1C17.7,0.2,17.3,0,16.8,0H8.2C7.8,0,7.3,0.2,7.1,0.6c-0.6,1-0.9,2-0.9,3.1
	H2.5C1.1,3.7,0,4.8,0,6.2v55c0,1.4,1.1,2.5,2.5,2.5h85c1.4,0,2.5-1.1,2.5-2.5v-55C90,4.8,88.9,3.7,87.5,3.7z M9,2.5h7
	c0.2,0.4,0.2,0.8,0.2,1.3H8.7C8.8,3.3,8.8,2.9,9,2.5z M85,58.7H5v-50h80V58.7z M45,45c6.2,0,11.3-5,11.3-11.3s-5-11.3-11.3-11.3
	s-11.3,5-11.3,11.3S38.8,45,45,45z M45,25c4.8,0,8.8,3.9,8.8,8.8s-3.9,8.8-8.8,8.8s-8.8-3.9-8.8-8.8S40.2,25,45,25z M45,53.7
	c11,0,20-9,20-20s-9-20-20-20s-20,9-20,20S34,53.7,45,53.7z M45,18.7c8.3,0,15,6.7,15,15s-6.7,15-15,15s-15-6.7-15-15
	S36.7,18.7,45,18.7z M11.3,35h7.5c0.7,0,1.3-0.6,1.3-1.3s-0.6-1.3-1.3-1.3h-7.5c-0.7,0-1.3,0.6-1.3,1.3S10.6,35,11.3,35z M68.8,21.2
	h12.5c0.7,0,1.3-0.6,1.3-1.3v-7.5c0-0.7-0.6-1.3-1.3-1.3H68.8c-0.7,0-1.3,0.6-1.3,1.3v7.5C67.5,20.6,68.1,21.2,68.8,21.2z M70,13.7
	h10v5H70V13.7z"/>
</svg>
