<?xml version="1.0" encoding="utf-8"?>
<!-- Generator: Adobe Illustrator 19.0.0, SVG Export Plug-In . SVG Version: 6.00 Build 0)  -->
<svg version="1.1" id="Layer_1" xmlns="http://www.w3.org/2000/svg" xmlns:xlink="http://www.w3.org/1999/xlink" x="0px" y="0px"
	 viewBox="0 0 30 30" style="enable-background:new 0 0 30 30;" xml:space="preserve">
<style type="text/css">
	.st0{fill:#797A7D;}
</style>
<path class="st0" d="M19,6.5c0,3.6-2.9,6.5-6.5,6.5S6,10.1,6,6.5S8.9,0,12.5,0S19,2.9,19,6.5z M23,14.1c-3,0-5.5,2.5-5.5,5.5
	s2.5,5.5,5.5,5.5s5.5-2.5,5.5-5.5S26,14.1,23,14.1 M23,12.6c3.9,0,7,3.1,7,7s-3.1,7-7,7s-7-3.1-7-7S19.1,12.6,23,12.6L23,12.6z
	 M23,28.1c-4.7,0-8.5-3.8-8.5-8.5c0-1.3,0.3-2.5,0.8-3.5c-0.1,0-0.2,0-0.3,0H10C4.5,16,0,20.5,0,26v4h25v-2.2
	C24.4,28,23.7,28.1,23,28.1z M23.7,19.5l1.4-1.4c0.2-0.2,0.2-0.5,0-0.7s-0.5-0.2-0.7,0L23,18.8l-1.4-1.4c-0.2-0.2-0.5-0.2-0.7,0
	s-0.2,0.5,0,0.7l1.4,1.4L20.9,21c-0.2,0.2-0.2,0.5,0,0.7c0.1,0.1,0.2,0.1,0.4,0.1s0.3,0,0.4-0.1l1.4-1.4l1.4,1.4
	c0.1,0.1,0.2,0.1,0.4,0.1s0.3,0,0.4-0.1c0.2-0.2,0.2-0.5,0-0.7L23.7,19.5z"/>
</svg>
