<?xml version="1.0" encoding="UTF-8" standalone="no"?>
<svg
   xmlns:dc="http://purl.org/dc/elements/1.1/"
   xmlns:cc="http://creativecommons.org/ns#"
   xmlns:rdf="http://www.w3.org/1999/02/22-rdf-syntax-ns#"
   xmlns:svg="http://www.w3.org/2000/svg"
   xmlns="http://www.w3.org/2000/svg"
   xmlns:sodipodi="http://sodipodi.sourceforge.net/DTD/sodipodi-0.dtd"
   xmlns:inkscape="http://www.inkscape.org/namespaces/inkscape"
   id="Companion_Rider"
   data-name="Companion Rider"
   viewBox="0 0 25.48 29.1"
   version="1.1"
   sodipodi:docname="Companion Rider.svg"
   inkscape:version="0.92.0 r15299">
  <metadata
     id="metadata25">
    <rdf:RDF>
      <cc:Work
         rdf:about="">
        <dc:format>image/svg+xml</dc:format>
        <dc:type
           rdf:resource="http://purl.org/dc/dcmitype/StillImage" />
      </cc:Work>
    </rdf:RDF>
  </metadata>
  <sodipodi:namedview
     pagecolor="#ffffff"
     bordercolor="#666666"
     borderopacity="1"
     objecttolerance="10"
     gridtolerance="10"
     guidetolerance="10"
     inkscape:pageopacity="0"
     inkscape:pageshadow="2"
     inkscape:window-width="1600"
     inkscape:window-height="838"
     id="namedview23"
     showgrid="false"
     inkscape:zoom="8.1099655"
     inkscape:cx="12.74"
     inkscape:cy="14.55"
     inkscape:window-x="-8"
     inkscape:window-y="-8"
     inkscape:window-maximized="1"
     inkscape:current-layer="Companion_Rider" />
  <defs
     id="defs4">
    <style
       id="style2">.cls-1{fill:#231f20;}</style>
  </defs>
  <title
     id="title6">Companion Rider</title>
  <circle
     class="cls-1"
     cx="5.04"
     cy="2.27"
     r="2.27"
     id="circle8"
     style="fill:#036ce2;fill-opacity:1" />
  <path
     class="cls-1"
     d="M4,5.49h6.46a1.92,1.92,0,0,1,1.93,2.17v6.7s.07,1.19-1,1.2c0,0-1.13.12-1.14-1.2V8.13H9.83l0,18.71S9.87,28,8.8,28a1.13,1.13,0,0,1-1.33-1.14V15.66H7.08V26.84A1.13,1.13,0,0,1,5.85,28a1.09,1.09,0,0,1-1.19-1.14V8.13H4.28v6.2A1.12,1.12,0,0,1,3.1,15.55a1.08,1.08,0,0,1-.93-1.22V7.65S2.13,5.45,4,5.49Z"
     transform="translate(-2.18 -0.32)"
     id="path10"
     style="fill:#036ce2;fill-opacity:1" />
  <rect
     class="cls-1"
     x="0.09"
     y="28.35"
     width="25.39"
     height="0.75"
     id="rect12"
     style="fill:#036ce2;fill-opacity:1" />
  <path
     class="cls-1"
     d="M18.41,10.13S22.56,10,22.53,14v3.15s.06.94-.81.94c0,0-.89.09-.9-.95V13h-.3l0,13.93s.07.9-.78.9a.89.89,0,0,1-1-.9v-8.8h-.3V27a.89.89,0,0,1-1,.89.86.86,0,0,1-.94-.89V13h-.31V17.1a.88.88,0,0,1-.93,1,.85.85,0,0,1-.73-1V13.88S14.06,10.19,18.41,10.13Z"
     transform="translate(-2.18 -0.32)"
     id="path14"
     style="fill:#036ce2;fill-opacity:1" />
  <circle
     class="cls-1"
     cx="16.29"
     cy="7.53"
     r="1.79"
     id="circle16"
     style="fill:#036ce2;fill-opacity:1" />
  <polygon
     class="cls-1"
     points="21.26 7.6 23.16 5.81 25.14 7.58 23.84 7.58 23.84 25.89 25.19 25.89 23.09 27.67 21.22 25.89 22.47 25.89 22.49 7.59 21.26 7.6"
     id="polygon18"
     style="fill:#036ce2;fill-opacity:1" />
  <rect
     class="cls-1"
     x="10.47"
     y="3.99"
     width="15.01"
     height="0.75"
     id="rect20"
     style="fill:#036ce2;fill-opacity:1" />
</svg>
