<?xml version="1.0" encoding="UTF-8" standalone="no"?>
<svg
   xmlns:dc="http://purl.org/dc/elements/1.1/"
   xmlns:cc="http://creativecommons.org/ns#"
   xmlns:rdf="http://www.w3.org/1999/02/22-rdf-syntax-ns#"
   xmlns:svg="http://www.w3.org/2000/svg"
   xmlns="http://www.w3.org/2000/svg"
   xmlns:sodipodi="http://sodipodi.sourceforge.net/DTD/sodipodi-0.dtd"
   xmlns:inkscape="http://www.inkscape.org/namespaces/inkscape"
   id="Rider_Height"
   data-name="Rider Height"
   viewBox="0 0 16.66 28.55"
   version="1.1"
   sodipodi:docname="Rider Height.svg"
   inkscape:version="0.92.0 r15299">
  <metadata
     id="metadata11">
    <rdf:RDF>
      <cc:Work
         rdf:about="">
        <dc:format>image/svg+xml</dc:format>
        <dc:type
           rdf:resource="http://purl.org/dc/dcmitype/StillImage" />
      </cc:Work>
    </rdf:RDF>
  </metadata>
  <defs
     id="defs9" />
  <sodipodi:namedview
     pagecolor="#ffffff"
     bordercolor="#666666"
     borderopacity="1"
     objecttolerance="10"
     gridtolerance="10"
     guidetolerance="10"
     inkscape:pageopacity="0"
     inkscape:pageshadow="2"
     inkscape:window-width="716"
     inkscape:window-height="480"
     id="namedview7"
     showgrid="false"
     inkscape:zoom="8.2661999"
     inkscape:cx="8.3299999"
     inkscape:cy="14.275"
     inkscape:window-x="0"
     inkscape:window-y="0"
     inkscape:window-maximized="0"
     inkscape:current-layer="Rider_Height" />
  <title
     id="title2">Rider Height</title>
  <path
     d="M14.07,4.66a2,2,0,1,0-4.09,0,2,2,0,1,0,4.09,0ZM7.17,8.59v6.81a1,1,0,1,0,2,0V9.63h.51V26.39a1,1,0,1,0,2,0V16.44h.51v9.95a1,1,0,1,0,2,0V9.63h.51v5.76a1,1,0,1,0,2,0V8.59a1,1,0,0,0-1-1H8.19A1,1,0,0,0,7.17,8.59Zm0-7.86v.92H23.83V.72Zm0,28.55H23.83v-.92H7.17Zm13-4.66L22,26.51l1.85-1.89h-1.3V4.92h1.3L22,3,20.13,4.92h1.3v19.7Z"
     transform="translate(-7.17 -0.72)"
     id="path4"
     style="fill:#036ce2;fill-opacity:1" />
</svg>
