<?xml version="1.0" encoding="utf-8"?>
<!-- Generator: Adobe Illustrator 16.0.0, SVG Export Plug-In . SVG Version: 6.00 Build 0)  -->
<!DOCTYPE svg PUBLIC "-//W3C//DTD SVG 1.1//EN" "http://www.w3.org/Graphics/SVG/1.1/DTD/svg11.dtd">
<svg version="1.1" id="Layer_1" xmlns="http://www.w3.org/2000/svg" xmlns:xlink="http://www.w3.org/1999/xlink" x="0px" y="0px"
	 width="21.936px" height="26.559px" viewBox="0 0 21.936 26.559" enable-background="new 0 0 21.936 26.559" xml:space="preserve">
<path fill="#036CE2" d="M6.562,22.377c-2.517-0.065-2.73-2.735-2.737-2.849c-0.017-0.244-0.185-0.43-0.474-0.414
	c-0.246,0.015-0.431,0.227-0.414,0.471c0.077,1.244,0.931,3.614,3.6,3.684h0.012c0.241,0,0.439-0.192,0.446-0.436
	C7.001,22.588,6.807,22.383,6.562,22.377 M14.727,20.702c-0.947,0-1.888-0.254-2.717-0.735c-1.67-0.974-2.705-2.771-2.705-4.688
	c0-0.335,0.09-0.987,0.521-2.192c0.95-2.648,3.034-6.52,4.901-9.661c2.811,4.714,5.426,9.922,5.426,11.853
	C20.152,18.268,17.718,20.702,14.727,20.702 M11.395,21.832c-0.821,1.789-2.616,2.943-4.577,2.943c-2.777,0-5.035-2.258-5.035-5.033
	c0-2.146,3.15-7.781,5.033-10.882c0.418,0.69,0.97,1.618,1.553,2.654c0.028,0.049,0.07,0.08,0.104,0.121
	c-0.116,0.29-0.227,0.575-0.325,0.851c-0.422,1.177-0.627,2.09-0.627,2.793c0,2.549,1.377,4.935,3.592,6.228
	c0.123,0.072,0.255,0.126,0.383,0.189C11.461,21.742,11.42,21.779,11.395,21.832 M15.485,1.236L14.727,0l-0.76,1.236
	C13.186,2.508,10.968,6.2,9.35,9.639C8.363,7.936,7.579,6.702,7.57,6.688L6.818,5.509L6.066,6.688C5.445,7.663,0,16.306,0,19.742
	c0,3.759,3.058,6.817,6.818,6.817c2.656,0,5.087-1.563,6.197-3.983c0.044-0.097,0.062-0.196,0.07-0.294
	c0.538,0.127,1.088,0.204,1.642,0.204c3.976,0,7.209-3.233,7.209-7.208C21.936,11.983,16.999,3.697,15.485,1.236"/>
</svg>
