<?xml version="1.0" encoding="UTF-8" standalone="no"?>
<svg
   xmlns:dc="http://purl.org/dc/elements/1.1/"
   xmlns:cc="http://creativecommons.org/ns#"
   xmlns:rdf="http://www.w3.org/1999/02/22-rdf-syntax-ns#"
   xmlns:svg="http://www.w3.org/2000/svg"
   xmlns="http://www.w3.org/2000/svg"
   xmlns:sodipodi="http://sodipodi.sourceforge.net/DTD/sodipodi-0.dtd"
   xmlns:inkscape="http://www.inkscape.org/namespaces/inkscape"
   id="Stationay_Seating"
   data-name="Stationay Seating"
   viewBox="0 0 26.04 11.98"
   version="1.1"
   sodipodi:docname="Stationary Seating.svg"
   inkscape:version="0.92.0 r15299">
  <metadata
     id="metadata29">
    <rdf:RDF>
      <cc:Work
         rdf:about="">
        <dc:format>image/svg+xml</dc:format>
        <dc:type
           rdf:resource="http://purl.org/dc/dcmitype/StillImage" />
      </cc:Work>
    </rdf:RDF>
  </metadata>
  <sodipodi:namedview
     pagecolor="#ffffff"
     bordercolor="#666666"
     borderopacity="1"
     objecttolerance="10"
     gridtolerance="10"
     guidetolerance="10"
     inkscape:pageopacity="0"
     inkscape:pageshadow="2"
     inkscape:window-width="716"
     inkscape:window-height="480"
     id="namedview27"
     showgrid="false"
     inkscape:zoom="10.906298"
     inkscape:cx="13.02"
     inkscape:cy="5.9899998"
     inkscape:window-x="0"
     inkscape:window-y="0"
     inkscape:window-maximized="0"
     inkscape:current-layer="Stationay_Seating" />
  <defs
     id="defs4">
    <style
       id="style2">.cls-1{fill:#0c0c0c;}</style>
  </defs>
  <title
     id="title6">Stationary Seating</title>
  <path
     class="cls-1"
     d="M10.16,17.29H6.35a2.84,2.84,0,0,1-2.72-2L1.89,9.47A.78.78,0,1,1,3.39,9l1.73,5.8a1.28,1.28,0,0,0,1.23.9h3.81a.78.78,0,1,1,0,1.56Z"
     transform="translate(-1.86 -8.47)"
     id="path8"
     style="fill:#036ce2;fill-opacity:1" />
  <path
     class="cls-1"
     d="M7.87,20.12a.78.78,0,0,1-.78-.78V16.8a.78.78,0,0,1,1.56,0v2.54A.78.78,0,0,1,7.87,20.12Z"
     transform="translate(-1.86 -8.47)"
     id="path10"
     style="fill:#036ce2;fill-opacity:1" />
  <path
     class="cls-1"
     d="M9.75,20.28H6a.78.78,0,1,1,0-1.56H9.75a.78.78,0,1,1,0,1.56Z"
     transform="translate(-1.86 -8.47)"
     id="path12"
     style="fill:#036ce2;fill-opacity:1" />
  <path
     class="cls-1"
     d="M18.64,17.45H14.83a2.84,2.84,0,0,1-2.72-2L10.37,9.64a.78.78,0,0,1,1.5-.45L13.6,15a1.28,1.28,0,0,0,1.23.9h3.81a.78.78,0,1,1,0,1.56Z"
     transform="translate(-1.86 -8.47)"
     id="path14"
     style="fill:#036ce2;fill-opacity:1" />
  <path
     class="cls-1"
     d="M16.35,20.28a.78.78,0,0,1-.78-.78V17a.78.78,0,0,1,1.56,0V19.5A.78.78,0,0,1,16.35,20.28Z"
     transform="translate(-1.86 -8.47)"
     id="path16"
     style="fill:#036ce2;fill-opacity:1" />
  <path
     class="cls-1"
     d="M18.23,20.45H14.46a.78.78,0,1,1,0-1.56h3.78a.78.78,0,1,1,0,1.56Z"
     transform="translate(-1.86 -8.47)"
     id="path18"
     style="fill:#036ce2;fill-opacity:1" />
  <path
     class="cls-1"
     d="M27.12,17.45H23.31a2.84,2.84,0,0,1-2.72-2L18.85,9.64a.78.78,0,0,1,1.5-.45L22.08,15a1.28,1.28,0,0,0,1.23.9h3.81a.78.78,0,1,1,0,1.56Z"
     transform="translate(-1.86 -8.47)"
     id="path20"
     style="fill:#036ce2;fill-opacity:1" />
  <path
     class="cls-1"
     d="M24.83,20.28A.78.78,0,0,1,24,19.5V17a.78.78,0,1,1,1.56,0V19.5A.78.78,0,0,1,24.83,20.28Z"
     transform="translate(-1.86 -8.47)"
     id="path22"
     style="fill:#036ce2;fill-opacity:1" />
  <path
     class="cls-1"
     d="M26.71,20.45H22.94a.78.78,0,0,1,0-1.56h3.78a.78.78,0,0,1,0,1.56Z"
     transform="translate(-1.86 -8.47)"
     id="path24"
     style="fill:#036ce2;fill-opacity:1" />
</svg>
