<?xml version="1.0" encoding="UTF-8" standalone="no"?>
<svg
   xmlns:dc="http://purl.org/dc/elements/1.1/"
   xmlns:cc="http://creativecommons.org/ns#"
   xmlns:rdf="http://www.w3.org/1999/02/22-rdf-syntax-ns#"
   xmlns:svg="http://www.w3.org/2000/svg"
   xmlns="http://www.w3.org/2000/svg"
   xmlns:sodipodi="http://sodipodi.sourceforge.net/DTD/sodipodi-0.dtd"
   xmlns:inkscape="http://www.inkscape.org/namespaces/inkscape"
   id="Sign_Language"
   data-name="Sign Language"
   viewBox="0 0 28.37 24.53"
   version="1.1"
   sodipodi:docname="Sign Language.svg"
   inkscape:version="0.92.0 r15299">
  <metadata
     id="metadata11">
    <rdf:RDF>
      <cc:Work
         rdf:about="">
        <dc:format>image/svg+xml</dc:format>
        <dc:type
           rdf:resource="http://purl.org/dc/dcmitype/StillImage" />
      </cc:Work>
    </rdf:RDF>
  </metadata>
  <defs
     id="defs9" />
  <sodipodi:namedview
     pagecolor="#ffffff"
     bordercolor="#666666"
     borderopacity="1"
     objecttolerance="10"
     gridtolerance="10"
     guidetolerance="10"
     inkscape:pageopacity="0"
     inkscape:pageshadow="2"
     inkscape:window-width="716"
     inkscape:window-height="480"
     id="namedview7"
     showgrid="false"
     inkscape:zoom="9.6208721"
     inkscape:cx="14.185"
     inkscape:cy="12.265"
     inkscape:window-x="0"
     inkscape:window-y="0"
     inkscape:window-maximized="0"
     inkscape:current-layer="Sign_Language" />
  <title
     id="title2">Sign Language</title>
  <path
     d="M27.83,9.13a6,6,0,0,1-3.93,1.19c-.6,0-.91-.26-1.5-.21a4.33,4.33,0,0,0-1.38.42c-.84.26-1.3.5-2.18.78-.56.16-.92.17-1.5.37s-.26,0-.61.45-.34.91-.77,1.78c-.53,1.14-.47,1.3-.16,1.44a3.55,3.55,0,0,0-.2,1.61c.05.48-.14.81.36,1.2a13.73,13.73,0,0,0,2.51,1.77,6.17,6.17,0,0,0,3-.54c.18-.12.24-.24.08.21a16.41,16.41,0,0,1-2.26,1.64,6.56,6.56,0,0,0-1.88.16c-.18-.07-1.37-1.51-2.09-1a1.1,1.1,0,0,0-.52.66,3.28,3.28,0,0,0,1,.79c.6.39.66.8,1.26.95a14.8,14.8,0,0,0,2,.12,9.53,9.53,0,0,0,2.8-1c.93-.49-1.28.94-1.82,1.64-1.63.52-1.17.54-1.94.7a10.29,10.29,0,0,0-1.18.29c-.51.13-.92.83-.44,1.2.29.24,1.18-.1,2.07-.13a11.58,11.58,0,0,0,2.35-.95,16.48,16.48,0,0,0,2.1-1.57c.74-.52-.83,1.44-1.5,2.26-.19.27-.28.32-.52.66-.4.52.11,1.32.36,1.19s.49-.71.81-.91c.16-.09.6-.75,1-1.19s.52-.5.81-.86a18.13,18.13,0,0,0,1-1.73,6.38,6.38,0,0,0,.68-.86c1.27-2.44.9-3.53,2.11-5.27a3.19,3.19,0,0,1,1.38-.95A8.84,8.84,0,0,0,27.83,9.13ZM22,15.6c-.29,1-.26,1.14-.81,1.53s-.7.13-2.22,1a4.22,4.22,0,0,0-1.62-1,3.82,3.82,0,0,0-.81-1.73c1.29-1,1.25-1.84,1.46-1.81a4.33,4.33,0,0,0,2.55-.24C21.28,14.84,22.22,14.77,22,15.6ZM10.71,8.76a8.89,8.89,0,0,0,1.86-.12c.14,0,1.36,1.51,2.1,1A1.26,1.26,0,0,0,15.2,9a2.91,2.91,0,0,0-1-.78c-.6-.41-.66-.82-1.26-1a19.11,19.11,0,0,0-2-.16,11.33,11.33,0,0,0-2.79,1c-.94.51,1.27-.92,1.82-1.65,1.62-.49,1.16-.52,1.94-.7a10.19,10.19,0,0,0,1.17-.25c.5-.14.92-.84.44-1.23-.29-.22-1.18.12-2.06.13a12.1,12.1,0,0,0-2.35,1,18.31,18.31,0,0,0-2.1,1.53c-.75.55.83-1.41,1.5-2.22.19-.28.28-.33.53-.66.38-.54-.12-1.33-.36-1.23s-.49.74-.86.95c-.13.08-.57.73-1,1.19a10.84,10.84,0,0,0-.81.87,16.85,16.85,0,0,0-1,1.69,7.77,7.77,0,0,0-.68.91c-1.27,2.42-.9,3.52-2.11,5.23a3.1,3.1,0,0,1-1.38,1,8.64,8.64,0,0,0,1.25,6.3,6.29,6.29,0,0,1,3.93-1.2c.6,0,.91.29,1.5.25A5.43,5.43,0,0,0,9,19.51c.84-.29,1.3-.52,2.14-.79a14.44,14.44,0,0,0,1.54-.41c.5-.19.26,0,.61-.41s.34-.92.73-1.77c.57-1.16.51-1.32.21-1.44a3.67,3.67,0,0,0,.2-1.61c-.06-.49.14-.83-.36-1.19a12.5,12.5,0,0,0-2.5-1.78,6.28,6.28,0,0,0-3,.49c-.18.15-.24.26-.08-.16A17.18,17.18,0,0,1,10.71,8.76ZM8.85,12.88c.66-.49.7-.1,2.22-.95a4.45,4.45,0,0,0,1.62.95,3.85,3.85,0,0,0,.81,1.77c-1.29,1-1.25,1.83-1.46,1.81a4.27,4.27,0,0,0-2.55.21C8.71,15.18,7.77,15.26,8,14.4S8.29,13.28,8.85,12.88Z"
     transform="translate(-0.81 -2.74)"
     id="path4"
     style="fill:#036ce2;fill-opacity:1" />
</svg>
