<?xml version="1.0" encoding="UTF-8" standalone="no"?>
<svg
   xmlns:dc="http://purl.org/dc/elements/1.1/"
   xmlns:cc="http://creativecommons.org/ns#"
   xmlns:rdf="http://www.w3.org/1999/02/22-rdf-syntax-ns#"
   xmlns:svg="http://www.w3.org/2000/svg"
   xmlns="http://www.w3.org/2000/svg"
   xmlns:sodipodi="http://sodipodi.sourceforge.net/DTD/sodipodi-0.dtd"
   xmlns:inkscape="http://www.inkscape.org/namespaces/inkscape"
   id="Wheelchair_Transfer"
   data-name="Wheelchair Transfer"
   viewBox="0 0 23.06 27.84"
   version="1.1"
   sodipodi:docname="Wheelchair Transfer.svg"
   inkscape:version="0.92.0 r15299">
  <metadata
     id="metadata11">
    <rdf:RDF>
      <cc:Work
         rdf:about="">
        <dc:format>image/svg+xml</dc:format>
        <dc:type
           rdf:resource="http://purl.org/dc/dcmitype/StillImage" />
      </cc:Work>
    </rdf:RDF>
  </metadata>
  <defs
     id="defs9" />
  <sodipodi:namedview
     pagecolor="#ffffff"
     bordercolor="#666666"
     borderopacity="1"
     objecttolerance="10"
     gridtolerance="10"
     guidetolerance="10"
     inkscape:pageopacity="0"
     inkscape:pageshadow="2"
     inkscape:window-width="716"
     inkscape:window-height="480"
     id="namedview7"
     showgrid="false"
     inkscape:zoom="8.4770114"
     inkscape:cx="11.53"
     inkscape:cy="13.92"
     inkscape:window-x="0"
     inkscape:window-y="0"
     inkscape:window-maximized="0"
     inkscape:current-layer="Wheelchair_Transfer" />
  <title
     id="title2">Wheelchair Transfer</title>
  <path
     d="M21.85,15.27l3.06-6.92a1.35,1.35,0,0,0-.27-1.48,4.46,4.46,0,0,0-2.81-.3L15.72,9.15a1.34,1.34,0,0,0-.7.69l-1.59,3.57a1.28,1.28,0,0,0-.06.27h-2V11.24a1,1,0,0,0-1-1H7.48a1,1,0,1,0,0,2h1.9v8.6a1,1,0,0,0,1,1H18.7a1,1,0,0,0,0-2H11.38V15.69h4.85a1,1,0,1,0,0-2h-.67l1-2.27,3.19-1.06-2,4.56a1.34,1.34,0,0,0,.16,1.35l4.32,4.8-3.51,5.82a1.34,1.34,0,0,0,1.2,1.93h2.59a1.34,1.34,0,1,0,0-2.68h-.45L25,21.51a1.34,1.34,0,0,0-.14-1.4ZM24.23,1.35a2.3,2.3,0,1,0,2.3,2.3A2.3,2.3,0,0,0,24.23,1.35ZM15,24a5.25,5.25,0,1,1-7-7.52,1,1,0,0,0-1.07-1.7,7.26,7.26,0,1,0,9.75,10.41A1,1,0,0,0,15,24ZM9.32,7.57a.69.69,0,0,0,.49-.2l4-4V5.24a.7.7,0,0,0,1.39,0V1.66a.36.36,0,0,0,0-.06V1.5l0-.05v0l0-.05,0,0,0,0,0,0,0,0,0,0,0,0,0,0,0,0,0,0h-.29L10.88,1a.7.7,0,1,0,0,1.39h2l-4,4A.68.68,0,0,0,8.64,7a.7.7,0,0,0,.68.56Z"
     transform="translate(-3.47 -0.98)"
     id="path4"
     style="fill:#036ce2;fill-opacity:1" />
</svg>
