<?xml version="1.0" encoding="UTF-8" standalone="no"?>
<svg
   xmlns:dc="http://purl.org/dc/elements/1.1/"
   xmlns:cc="http://creativecommons.org/ns#"
   xmlns:rdf="http://www.w3.org/1999/02/22-rdf-syntax-ns#"
   xmlns:svg="http://www.w3.org/2000/svg"
   xmlns="http://www.w3.org/2000/svg"
   xmlns:sodipodi="http://sodipodi.sourceforge.net/DTD/sodipodi-0.dtd"
   xmlns:inkscape="http://www.inkscape.org/namespaces/inkscape"
   id="CC_-_Closed_Captioning"
   data-name="CC - Closed Captioning"
   viewBox="0 0 28.46 23.09"
   version="1.1"
   sodipodi:docname="CC - Closed Captioning.svg"
   inkscape:version="0.92.0 r15299">
  <metadata
     id="metadata13">
    <rdf:RDF>
      <cc:Work
         rdf:about="">
        <dc:format>image/svg+xml</dc:format>
        <dc:type
           rdf:resource="http://purl.org/dc/dcmitype/StillImage" />
      </cc:Work>
    </rdf:RDF>
  </metadata>
  <sodipodi:namedview
     pagecolor="#ffffff"
     bordercolor="#666666"
     borderopacity="1"
     objecttolerance="10"
     gridtolerance="10"
     guidetolerance="10"
     inkscape:pageopacity="0"
     inkscape:pageshadow="2"
     inkscape:window-width="716"
     inkscape:window-height="480"
     id="namedview11"
     showgrid="false"
     inkscape:zoom="9.9789181"
     inkscape:cx="14.23"
     inkscape:cy="11.545"
     inkscape:window-x="0"
     inkscape:window-y="0"
     inkscape:window-maximized="0"
     inkscape:current-layer="CC_-_Closed_Captioning" />
  <defs
     id="defs4">
    <style
       id="style2">.cls-1{fill-rule:evenodd;}</style>
  </defs>
  <title
     id="title6">CC - Closed Captioning</title>
  <path
     class="cls-1"
     d="M.85,3.46V26.54H29.31V3.46ZM25,23C23.62,24.3,6.81,24.41,5.07,23S3.33,9.07,5.07,7.32C7.37,5,22.86,5.22,25,7.32S26.31,21.61,25,23ZM9.83,18.1c-1.52,0-2-1.64-2-3.22s.49-3.22,2-3.22a1.8,1.8,0,0,1,1.7,1.73h3.17c-.28-2.94-1.88-4.64-4.78-4.65-3.25,0-5.35,2.45-5.35,6.15C4.56,18.35,6.5,21,9.92,21a4.78,4.78,0,0,0,4.82-4.88H11.54C11.35,17.24,10.92,18.1,9.83,18.1Zm10.85-6.44a1.8,1.8,0,0,1,1.7,1.73h3.16c-.28-2.94-1.88-4.64-4.78-4.65-3.25,0-5.35,2.45-5.35,6.15,0,3.47,1.94,6.15,5.35,6.15a4.78,4.78,0,0,0,4.82-4.88h-3.2c-.19,1.1-.62,2-1.72,2-1.52,0-2-1.64-2-3.22S19.16,11.66,20.68,11.66Z"
     transform="translate(-0.85 -3.46)"
     id="path8"
     style="fill:#036ce2;fill-opacity:1" />
</svg>
