<?xml version="1.0" encoding="UTF-8" standalone="no"?>
<svg
   xmlns:dc="http://purl.org/dc/elements/1.1/"
   xmlns:cc="http://creativecommons.org/ns#"
   xmlns:rdf="http://www.w3.org/1999/02/22-rdf-syntax-ns#"
   xmlns:svg="http://www.w3.org/2000/svg"
   xmlns="http://www.w3.org/2000/svg"
   xmlns:sodipodi="http://sodipodi.sourceforge.net/DTD/sodipodi-0.dtd"
   xmlns:inkscape="http://www.inkscape.org/namespaces/inkscape"
   id="OC_-_Open_Captioning"
   data-name="OC - Open Captioning"
   viewBox="0 0 24.77 10.92"
   version="1.1"
   sodipodi:docname="OC - Open Captioning.svg"
   inkscape:version="0.92.0 r15299">
  <metadata
     id="metadata13">
    <rdf:RDF>
      <cc:Work
         rdf:about="">
        <dc:format>image/svg+xml</dc:format>
        <dc:type
           rdf:resource="http://purl.org/dc/dcmitype/StillImage" />
      </cc:Work>
    </rdf:RDF>
  </metadata>
  <sodipodi:namedview
     pagecolor="#ffffff"
     bordercolor="#666666"
     borderopacity="1"
     objecttolerance="10"
     gridtolerance="10"
     guidetolerance="10"
     inkscape:pageopacity="0"
     inkscape:pageshadow="2"
     inkscape:window-width="716"
     inkscape:window-height="480"
     id="namedview11"
     showgrid="false"
     inkscape:zoom="11.465482"
     inkscape:cx="12.385"
     inkscape:cy="5.46"
     inkscape:window-x="0"
     inkscape:window-y="0"
     inkscape:window-maximized="0"
     inkscape:current-layer="OC_-_Open_Captioning" />
  <defs
     id="defs4">
    <style
       id="style2">.cls-1{fill:#231f20;}</style>
  </defs>
  <title
     id="title6">OC - Open Captioning</title>
  <path
     class="cls-1"
     d="M8.51,17.7c1.2,0,1.8-1,1.8-2.58,0-1.22-.25-2.82-1.8-2.82s-1.8,1.6-1.8,2.82c0,1.56.59,2.58,1.8,2.58m0,2.76c-3.33,0-5.89-1.87-5.89-5.36S5.09,9.54,8.51,9.54s5.89,2,5.89,5.56-2.56,5.36-5.89,5.36m14.64-6.68a1.55,1.55,0,0,0-.43-1.06,1.39,1.39,0,0,0-1.07-.41c-1.53,0-1.79,1.6-1.79,2.82,0,1.56.59,2.58,1.79,2.58a1.55,1.55,0,0,0,1.6-1.54h4.14c-.35,3.13-2.88,4.29-5.74,4.29-3.33,0-5.89-1.87-5.89-5.36s2.48-5.56,5.89-5.56c2.76,0,5.36,1.18,5.66,4.24Z"
     transform="translate(-2.61 -9.54)"
     id="path8"
     style="fill:#036ce2;fill-opacity:1" />
</svg>
