<?xml version="1.0" encoding="UTF-8" standalone="no"?>
<svg
   xmlns:dc="http://purl.org/dc/elements/1.1/"
   xmlns:cc="http://creativecommons.org/ns#"
   xmlns:rdf="http://www.w3.org/1999/02/22-rdf-syntax-ns#"
   xmlns:svg="http://www.w3.org/2000/svg"
   xmlns="http://www.w3.org/2000/svg"
   xmlns:sodipodi="http://sodipodi.sourceforge.net/DTD/sodipodi-0.dtd"
   xmlns:inkscape="http://www.inkscape.org/namespaces/inkscape"
   id="Secure_Prosthetic_Limbs"
   data-name="Secure Prosthetic Limbs"
   viewBox="0 0 20.58 28.52"
   version="1.1"
   sodipodi:docname="Secure Prosthetic Limbs.svg"
   inkscape:version="0.92.0 r15299">
  <metadata
     id="metadata23">
    <rdf:RDF>
      <cc:Work
         rdf:about="">
        <dc:format>image/svg+xml</dc:format>
        <dc:type
           rdf:resource="http://purl.org/dc/dcmitype/StillImage" />
      </cc:Work>
    </rdf:RDF>
  </metadata>
  <sodipodi:namedview
     pagecolor="#ffffff"
     bordercolor="#666666"
     borderopacity="1"
     objecttolerance="10"
     gridtolerance="10"
     guidetolerance="10"
     inkscape:pageopacity="0"
     inkscape:pageshadow="2"
     inkscape:window-width="716"
     inkscape:window-height="480"
     id="namedview21"
     showgrid="false"
     inkscape:zoom="8.2748947"
     inkscape:cx="10.29"
     inkscape:cy="14.26"
     inkscape:window-x="0"
     inkscape:window-y="0"
     inkscape:window-maximized="0"
     inkscape:current-layer="Secure_Prosthetic_Limbs" />
  <defs
     id="defs4">
    <style
       id="style2">.cls-1{fill:#010101;}.cls-2{fill:#ed1c24;}</style>
  </defs>
  <title
     id="title6">Secure Prosthetic Limbs</title>
  <path
     class="cls-1"
     d="M19.61,10.73A1.3,1.3,0,0,0,20.91,12a1.29,1.29,0,0,0,1.14-.7h0L23.6,9.36a1.08,1.08,0,0,0,.19,0,1.12,1.12,0,1,0-1.13-1.13s0,0,0,0L20.93,9.43h0A1.3,1.3,0,0,0,19.61,10.73Zm1.27-.52a.5.5,0,1,1-.5.49A.5.5,0,0,1,20.88,10.21Z"
     transform="translate(-5.04 -0.6)"
     id="path8"
     style="fill:#036ce2;fill-opacity:1" />
  <path
     class="cls-1"
     d="M15.94,21.87a4.83,4.83,0,0,1,2.26-4.08V9.89c.13.13.86,1,1.19,1.3l.08.07a1.51,1.51,0,0,1-.1-.53A1.54,1.54,0,0,1,20.86,9.2l0,0c-.87-1-2-2.28-2.77-3.16a1,1,0,0,0-.66-.31H12.55c-.34,0-.53.18-.8.5L9,9.28,6.8,7.55A1.09,1.09,0,0,0,5,8.43v.17a1.2,1.2,0,0,0,.46.85l3.09,2.49A1.1,1.1,0,0,0,10,11.71L11.72,10l0,10.6.06-.12.08-.12.09-.13.09-.11.12-.11.12-.08.13-.08.13-.06.15-.05.16,0,.14,0h.33l.16,0,.15,0,.15.05.13.06.13.08.12.08.12.11.09.11.09.13.08.12,0,.09V17.46h.67v10a1.45,1.45,0,1,0,2.86,0V25.94A4.83,4.83,0,0,1,15.94,21.87Z"
     transform="translate(-5.04 -0.6)"
     id="path10"
     style="fill:#036ce2;fill-opacity:1" />
  <path
     class="cls-1"
     d="M14.56,21.25a1.34,1.34,0,1,0-2,1.19v4.12a1.34,1.34,0,1,0,2,1.19,1.35,1.35,0,0,0-.74-1.19V22.45A1.35,1.35,0,0,0,14.56,21.25Zm-1.37.5a.49.49,0,0,1-.49-.5.48.48,0,0,1,.49-.49.49.49,0,0,1,.51.49A.5.5,0,0,1,13.19,21.76Z"
     transform="translate(-5.04 -0.6)"
     id="path12"
     style="fill:#036ce2;fill-opacity:1" />
  <path
     class="cls-1"
     d="M15,5a2.22,2.22,0,1,0-2.24-2.23A2.23,2.23,0,0,0,15,5Z"
     transform="translate(-5.04 -0.6)"
     id="path14"
     style="fill:#036ce2;fill-opacity:1" />
  <path
     class="cls-2"
     d="M15.94,21.87a4.84,4.84,0,1,1,4.84,4.84A4.85,4.85,0,0,1,15.94,21.87Zm1.31,0a3.53,3.53,0,1,0,3.53-3.53A3.53,3.53,0,0,0,17.25,21.87Z"
     transform="translate(-5.04 -0.6)"
     id="path16" />
  <path
     class="cls-1"
     d="M22.45,20.82h-.32a1.5,1.5,0,0,0-1.37-1.59,1.46,1.46,0,0,0-1.37,1.59h-.32a.27.27,0,0,0-.27.27v2.48a.27.27,0,0,0,.27.27h3.39a.27.27,0,0,0,.27-.27V21.09A.27.27,0,0,0,22.45,20.82Zm-1.7-1c.54,0,.77.57.78,1H20C20,20.4,20.15,19.83,20.75,19.83Z"
     transform="translate(-5.04 -0.6)"
     id="path18"
     style="fill:#036ce2;fill-opacity:1" />
</svg>
