<?xml version="1.0" encoding="UTF-8" standalone="no"?>
<svg
   xmlns:dc="http://purl.org/dc/elements/1.1/"
   xmlns:cc="http://creativecommons.org/ns#"
   xmlns:rdf="http://www.w3.org/1999/02/22-rdf-syntax-ns#"
   xmlns:svg="http://www.w3.org/2000/svg"
   xmlns="http://www.w3.org/2000/svg"
   xmlns:sodipodi="http://sodipodi.sourceforge.net/DTD/sodipodi-0.dtd"
   xmlns:inkscape="http://www.inkscape.org/namespaces/inkscape"
   id="single_rider"
   data-name="single rider"
   viewBox="0 0 18.59 27.77"
   version="1.1"
   sodipodi:docname="single rider.svg"
   inkscape:version="0.92.0 r15299">
  <metadata
     id="metadata13">
    <rdf:RDF>
      <cc:Work
         rdf:about="">
        <dc:format>image/svg+xml</dc:format>
        <dc:type
           rdf:resource="http://purl.org/dc/dcmitype/StillImage" />
      </cc:Work>
    </rdf:RDF>
  </metadata>
  <sodipodi:namedview
     pagecolor="#ffffff"
     bordercolor="#666666"
     borderopacity="1"
     objecttolerance="10"
     gridtolerance="10"
     guidetolerance="10"
     inkscape:pageopacity="0"
     inkscape:pageshadow="2"
     inkscape:window-width="716"
     inkscape:window-height="480"
     id="namedview11"
     showgrid="false"
     inkscape:zoom="8.4983794"
     inkscape:cx="9.2950001"
     inkscape:cy="13.885"
     inkscape:window-x="0"
     inkscape:window-y="0"
     inkscape:window-maximized="0"
     inkscape:current-layer="single_rider" />
  <defs
     id="defs4">
    <style
       id="style2">.cls-1{fill:#231f20;}</style>
  </defs>
  <title
     id="title6">single rider</title>
  <path
     class="cls-1"
     d="M18.63,1a6.68,6.68,0,0,0-4.25,1.52A3,3,0,0,0,10,6.42H9.68a2.74,2.74,0,0,0-2,.81,3.66,3.66,0,0,0-.92,2.49V15.5a2.4,2.4,0,0,0,1,2.07,2.28,2.28,0,0,0,1.11.4h0v8.39a2.33,2.33,0,0,0,2.41,2.4h.06a2.61,2.61,0,0,0,1.18-.28,2.65,2.65,0,0,0,1.22.28H14a2.21,2.21,0,0,0,1.58-.69,2.5,2.5,0,0,0,.62-1.74l0-8.37a2.24,2.24,0,0,0,1.59-.69,2.58,2.58,0,0,0,.64-1.78V14.42h.21A6.71,6.71,0,1,0,18.63,1Zm-6.1,2.28A1.56,1.56,0,1,1,11,4.83,1.56,1.56,0,0,1,12.54,3.28Zm3.59,13.28s-1,.1-1-1v-5.4h-.32l0,16.25s.07,1-.86,1a1,1,0,0,1-1.15-1v-9.7h-.33v9.71a1,1,0,0,1-1.08,1,1,1,0,0,1-1-1V10.12H10V15.5a1,1,0,0,1-1,1.06.94.94,0,0,1-.81-1.06V9.71s0-1.91,1.56-1.88h5.61A1.67,1.67,0,0,1,17,9.71v5.82S17.08,16.56,16.13,16.56Zm5.23-5.66H19.28a.68.68,0,1,1,0-1.35h.27V4.77h-.48a.74.74,0,0,1,0-1.48h1.26A.76.76,0,0,1,21.1,4V9.54h.26a.68.68,0,1,1,0,1.35Z"
     transform="translate(-6.75 -1)"
     id="path8"
     style="fill:#036ce2;fill-opacity:1" />
</svg>
