<?xml version="1.0" encoding="UTF-8" standalone="no"?>
<svg
   xmlns:dc="http://purl.org/dc/elements/1.1/"
   xmlns:cc="http://creativecommons.org/ns#"
   xmlns:rdf="http://www.w3.org/1999/02/22-rdf-syntax-ns#"
   xmlns:svg="http://www.w3.org/2000/svg"
   xmlns="http://www.w3.org/2000/svg"
   xmlns:sodipodi="http://sodipodi.sourceforge.net/DTD/sodipodi-0.dtd"
   xmlns:inkscape="http://www.inkscape.org/namespaces/inkscape"
   id="Wheelchair_Accessible"
   data-name="Wheelchair Accessible"
   viewBox="0 0 25.91 27.97"
   version="1.1"
   sodipodi:docname="Wheelchair Accessible.svg"
   inkscape:version="0.92.0 r15299">
  <metadata
     id="metadata12">
    <rdf:RDF>
      <cc:Work
         rdf:about="">
        <dc:format>image/svg+xml</dc:format>
        <dc:type
           rdf:resource="http://purl.org/dc/dcmitype/StillImage" />
      </cc:Work>
    </rdf:RDF>
  </metadata>
  <sodipodi:namedview
     pagecolor="#ffffff"
     bordercolor="#666666"
     borderopacity="1"
     objecttolerance="10"
     gridtolerance="10"
     guidetolerance="10"
     inkscape:pageopacity="0"
     inkscape:pageshadow="2"
     inkscape:window-width="716"
     inkscape:window-height="480"
     id="namedview10"
     showgrid="false"
     inkscape:zoom="8.4376119"
     inkscape:cx="12.955"
     inkscape:cy="13.985"
     inkscape:window-x="0"
     inkscape:window-y="0"
     inkscape:window-maximized="0"
     inkscape:current-layer="Wheelchair_Accessible" />
  <defs
     id="defs4">
    <style
       id="style2">.cls-1{fill:#3f71b7;}</style>
  </defs>
  <title
     id="title6">Wheelchair Accessible</title>
  <path
     id="blue"
     class="cls-1"
     d="M22.19,23.62a.26.26,0,0,1,0,.23,11.66,11.66,0,0,1-9.72,5A9.61,9.61,0,0,1,3,19.1c0-6.29,4.52-8.17,5.9-8.6a.27.27,0,0,1,.22,0,.26.26,0,0,1,.12.19l.24,2.09a.26.26,0,0,1-.18.28c-1.08.36-3.59,1.68-3.59,6.05a7.16,7.16,0,0,0,6.85,7.1,9.2,9.2,0,0,0,8.36-5.09.28.28,0,0,1,.25-.14.26.26,0,0,1,.23.18ZM12.2,5.86A2.51,2.51,0,1,0,9.67,3.36,2.5,2.5,0,0,0,12.2,5.86ZM28.8,24.24a1.17,1.17,0,0,0-1.5-.67l-1,.4-2.38-8.06c-.64-1.63-1.23-1.83-2-1.88H15.48l-.23-1.14h4.42a1.16,1.16,0,1,0,0-2.33h-5L14,7.71A2.13,2.13,0,0,0,12,6.4a1.84,1.84,0,0,0-1.92,2c.12,2.15.73,5.59.73,5.59.42,2.27,1.11,2.95,2.84,2.95h7.7l2.8,8.43c.45,1.25,1.05,1.42,1.74,1.16l2.22-.83A1.16,1.16,0,0,0,28.8,24.24Z"
     transform="translate(-2.97 -0.85)"
     style="fill:#036ce2;fill-opacity:1" />
</svg>
