<?xml version="1.0" encoding="UTF-8" standalone="no"?>
<svg
   xmlns:dc="http://purl.org/dc/elements/1.1/"
   xmlns:cc="http://creativecommons.org/ns#"
   xmlns:rdf="http://www.w3.org/1999/02/22-rdf-syntax-ns#"
   xmlns:svg="http://www.w3.org/2000/svg"
   xmlns="http://www.w3.org/2000/svg"
   xmlns:sodipodi="http://sodipodi.sourceforge.net/DTD/sodipodi-0.dtd"
   xmlns:inkscape="http://www.inkscape.org/namespaces/inkscape"
   id="Service_Animals"
   data-name="Service Animals"
   viewBox="0 0 27.6 23.81"
   version="1.1"
   sodipodi:docname="Service Animals.svg"
   inkscape:version="0.92.0 r15299">
  <metadata
     id="metadata13">
    <rdf:RDF>
      <cc:Work
         rdf:about="">
        <dc:format>image/svg+xml</dc:format>
        <dc:type
           rdf:resource="http://purl.org/dc/dcmitype/StillImage" />
      </cc:Work>
    </rdf:RDF>
  </metadata>
  <sodipodi:namedview
     pagecolor="#ffffff"
     bordercolor="#666666"
     borderopacity="1"
     objecttolerance="10"
     gridtolerance="10"
     guidetolerance="10"
     inkscape:pageopacity="0"
     inkscape:pageshadow="2"
     inkscape:window-width="716"
     inkscape:window-height="480"
     id="namedview11"
     showgrid="false"
     inkscape:zoom="9.911802"
     inkscape:cx="13.8"
     inkscape:cy="11.905"
     inkscape:window-x="0"
     inkscape:window-y="0"
     inkscape:window-maximized="0"
     inkscape:current-layer="Service_Animals" />
  <defs
     id="defs4">
    <style
       id="style2">.cls-1{fill:#231f20;}</style>
  </defs>
  <title
     id="title6">Service Animals</title>
  <path
     class="cls-1"
     d="M28.8,11.11a5.19,5.19,0,0,0-2-3.63L22.38,3.15H7.74l-4,3.78a6.83,6.83,0,0,0-2.47,4.85c0,2.11,1.14,4.17,3.39,6,.25.3,6.1,7.35,7.06,8.26a5.52,5.52,0,0,0,3.4.89,5,5,0,0,0,3.23-.89c1-1,6.93-8,7.14-8.2C27.86,15.51,29,13.24,28.8,11.11Zm-11.45,14c-.77.74-4.09.61-4.74,0-.16-.15-.5-.52-.94-1A3.71,3.71,0,0,0,15,21.23a4,4,0,0,0,3.35,2.83C17.87,24.55,17.53,24.91,17.36,25.08Zm7.79-8.88c-1.76-2-2-3.38-1.68-5.33a3.15,3.15,0,0,0-1.58-3c-.74-.48-1.26.44-.53.91,1.39.9.63,1.31,1,4.49.12,1.11,1.27,2.65,1.93,3.55a.77.77,0,0,0,.14.14c-1.47,1.74-3.93,4.62-5.56,6.47-2.34-.22-3.5-1.65-3.54-4.36h.75a1.59,1.59,0,0,0,1.59-1.59v-.1a1.59,1.59,0,0,0-1.59-1.59H14a1.59,1.59,0,0,0-1.59,1.59v.1A1.59,1.59,0,0,0,14,19.07h.58c0,2.82-1,4.13-3.39,4.36-1.68-2-4.28-5-5.53-6.55l.05,0c.66-.9,1.81-2.44,1.93-3.55.35-3.18-.41-3.59,1-4.49.73-.47.21-1.4-.53-.91a3.15,3.15,0,0,0-1.58,3c.33,1.94.08,3.31-1.65,5.29a6.11,6.11,0,0,1-2.23-4.35A5.56,5.56,0,0,1,4.59,8L8.28,4.51H21.82l4.12,4a3.88,3.88,0,0,1,1.5,2.69Q27.64,13.48,25.15,16.2ZM12.38,9.41H11.15A1.19,1.19,0,0,0,10,10.6v.31a1.19,1.19,0,0,0,1.19,1.19h1.24a1.19,1.19,0,0,0,1.19-1.19V10.6A1.19,1.19,0,0,0,12.38,9.41ZM11,10.88a.56.56,0,1,1,.56-.56A.56.56,0,0,1,11,10.88Zm7.67-1.47H17.38A1.19,1.19,0,0,0,16.2,10.6v.31a1.19,1.19,0,0,0,1.19,1.19h1.24a1.19,1.19,0,0,0,1.19-1.19V10.6A1.19,1.19,0,0,0,18.62,9.41Zm-1.43,1.47a.56.56,0,1,1,.56-.56A.56.56,0,0,1,17.19,10.88ZM9.37,17.69l-.29-.15a15.25,15.25,0,0,1,1.81-3c1-1,7.19-1,8.19,0a14.73,14.73,0,0,1,1.74,3l-.29.14a13.86,13.86,0,0,0-1.68-2.91c-.87-.83-6.88-.83-7.75,0A14.12,14.12,0,0,0,9.37,17.69Z"
     transform="translate(-1.23 -3.15)"
     id="path8"
     style="fill:#036ce2;fill-opacity:1" />
</svg>
