<?xml version="1.0" encoding="UTF-8" standalone="no"?>
<svg
   xmlns:dc="http://purl.org/dc/elements/1.1/"
   xmlns:cc="http://creativecommons.org/ns#"
   xmlns:rdf="http://www.w3.org/1999/02/22-rdf-syntax-ns#"
   xmlns:svg="http://www.w3.org/2000/svg"
   xmlns="http://www.w3.org/2000/svg"
   xmlns:sodipodi="http://sodipodi.sourceforge.net/DTD/sodipodi-0.dtd"
   xmlns:inkscape="http://www.inkscape.org/namespaces/inkscape"
   id="Parental_Discretion_Advised"
   data-name="Parental Discretion Advised"
   viewBox="0 0 21.66 28.74"
   version="1.1"
   sodipodi:docname="Parental Discretion Advised.svg"
   inkscape:version="0.92.0 r15299">
  <metadata
     id="metadata14">
    <rdf:RDF>
      <cc:Work
         rdf:about="">
        <dc:format>image/svg+xml</dc:format>
        <dc:type
           rdf:resource="http://purl.org/dc/dcmitype/StillImage" />
      </cc:Work>
    </rdf:RDF>
  </metadata>
  <sodipodi:namedview
     pagecolor="#ffffff"
     bordercolor="#666666"
     borderopacity="1"
     objecttolerance="10"
     gridtolerance="10"
     guidetolerance="10"
     inkscape:pageopacity="0"
     inkscape:pageshadow="2"
     inkscape:window-width="716"
     inkscape:window-height="480"
     id="namedview12"
     showgrid="false"
     inkscape:zoom="8.2115519"
     inkscape:cx="10.83"
     inkscape:cy="14.37"
     inkscape:window-x="0"
     inkscape:window-y="0"
     inkscape:window-maximized="0"
     inkscape:current-layer="Parental_Discretion_Advised" />
  <defs
     id="defs4">
    <style
       id="style2">.cls-1{fill:#231f20;}</style>
  </defs>
  <title
     id="title6">Parental Discretion Advised</title>
  <g
     id="Layer_76"
     data-name="Layer 76"
     style="fill:#036ce2;fill-opacity:1">
    <path
       class="cls-1"
       d="M21.81,13.95a1.62,1.62,0,1,1,1.62-1.62A1.62,1.62,0,0,1,21.81,13.95Zm-2.09,3h-.36L18.22,18a.72.72,0,0,1-.94.16l-2-1.65c-.78-.63.07-1.88.85-1.26l1.45,1.15.64-.81A2,2,0,0,1,20,14.35h3.57a2.08,2.08,0,0,1,2.08,2.07v5a.7.7,0,1,1-1.41,0V16.91H23.9V28.43a.95.95,0,0,1-1.89,0V22.18h-.39v6.25a.95.95,0,0,1-1.9,0Zm-7.47-11a3.2,3.2,0,0,1,3,3s1.19,5.52,1.34,6.37l-.35-.27a.93.93,0,0,0-1.4.22,1.14,1.14,0,0,0-.19.67,1.09,1.09,0,0,1-.06-.23c-.1-.66-1.37-6-1.37-6h-.53V28a1.39,1.39,0,0,1-2.77,0V17.35H9.35V28a1.38,1.38,0,0,1-2.76,0c0-1.13,0-18.32,0-18.32H6.05v6.59a1,1,0,0,1-2,0V9a3,3,0,0,1,3-3Zm-2.6-.6A2.36,2.36,0,1,0,7.28,3,2.36,2.36,0,0,0,9.64,5.34Z"
       transform="translate(-4.01 -0.63)"
       id="path8"
       style="fill:#036ce2;fill-opacity:1" />
  </g>
</svg>
