<?xml version="1.0" encoding="UTF-8" standalone="no"?>
<svg
   xmlns:dc="http://purl.org/dc/elements/1.1/"
   xmlns:cc="http://creativecommons.org/ns#"
   xmlns:rdf="http://www.w3.org/1999/02/22-rdf-syntax-ns#"
   xmlns:svg="http://www.w3.org/2000/svg"
   xmlns="http://www.w3.org/2000/svg"
   xmlns:sodipodi="http://sodipodi.sourceforge.net/DTD/sodipodi-0.dtd"
   xmlns:inkscape="http://www.inkscape.org/namespaces/inkscape"
   id="Motion_Simulation"
   data-name="Motion Simulation"
   viewBox="0 0 25.35 25.18"
   version="1.1"
   sodipodi:docname="Motion Simulation.svg"
   inkscape:version="0.92.0 r15299">
  <metadata
     id="metadata23">
    <rdf:RDF>
      <cc:Work
         rdf:about="">
        <dc:format>image/svg+xml</dc:format>
        <dc:type
           rdf:resource="http://purl.org/dc/dcmitype/StillImage" />
      </cc:Work>
    </rdf:RDF>
  </metadata>
  <sodipodi:namedview
     pagecolor="#ffffff"
     bordercolor="#666666"
     borderopacity="1"
     objecttolerance="10"
     gridtolerance="10"
     guidetolerance="10"
     inkscape:pageopacity="0"
     inkscape:pageshadow="2"
     inkscape:window-width="716"
     inkscape:window-height="480"
     id="namedview21"
     showgrid="false"
     inkscape:zoom="9.3725178"
     inkscape:cx="12.675"
     inkscape:cy="12.59"
     inkscape:window-x="0"
     inkscape:window-y="0"
     inkscape:window-maximized="0"
     inkscape:current-layer="Motion_Simulation" />
  <defs
     id="defs4">
    <style
       id="style2">.cls-1{fill:#0d0d0d;}.cls-2,.cls-3{fill:none;stroke:#0d0d0d;stroke-linecap:round;stroke-miterlimit:10;}.cls-2{stroke-width:2px;}.cls-3{stroke-width:1.4px;}</style>
  </defs>
  <title
     id="title6">Motion Simulation</title>
  <path
     class="cls-1"
     d="M25.3,22.24l-6.9-2a5.34,5.34,0,0,1-3.89-5L14.38,3.82a1.47,1.47,0,0,1,2.94,0l.13,11.39a2.41,2.41,0,0,0,1.76,2.27l6.9,2a1.47,1.47,0,1,1-.81,2.83Z"
     transform="translate(-1.83 -2.33)"
     id="path8"
     style="fill:#036ce2;fill-opacity:1" />
  <path
     class="cls-1"
     d="M19.68,26.18a1.47,1.47,0,0,1-1-1.82L20,19.77a1.47,1.47,0,0,1,2.83.81l-1.31,4.6A1.47,1.47,0,0,1,19.68,26.18Z"
     transform="translate(-1.83 -2.33)"
     id="path10"
     style="fill:#036ce2;fill-opacity:1" />
  <path
     class="cls-1"
     d="M23,27.45l-6.83-2A1.47,1.47,0,1,1,17,22.67l6.83,2A1.47,1.47,0,0,1,23,27.45Z"
     transform="translate(-1.83 -2.33)"
     id="path12"
     style="fill:#036ce2;fill-opacity:1" />
  <path
     class="cls-2"
     d="M8.65,13.31S5.8,9.87,9.58,7.36"
     transform="translate(-1.83 -2.33)"
     id="path14"
     style="stroke:#036ce2;stroke-opacity:1" />
  <path
     class="cls-2"
     d="M4.85,15.67S-.74,8.9,6.67,4"
     transform="translate(-1.83 -2.33)"
     id="path16"
     style="stroke:#036ce2;stroke-opacity:1" />
  <path
     class="cls-3"
     d="M14.75,23.08"
     transform="translate(-1.83 -2.33)"
     id="path18" />
</svg>
