<?xml version="1.0" encoding="utf-8"?>
<!-- Generator: Adobe Illustrator 19.0.0, SVG Export Plug-In . SVG Version: 6.00 Build 0)  -->
<svg version="1.1" id="Layer_1" xmlns="http://www.w3.org/2000/svg" xmlns:xlink="http://www.w3.org/1999/xlink" x="0px" y="0px"
	 viewBox="0 0 100 60.8" style="enable-background:new 0 0 100 60.8;" xml:space="preserve">
<style type="text/css">
	.st0{fill:#FFFFFF;}
</style>
<path class="st0" d="M49.8,18.1c-6.7,0.1-12.1,5.6-12.1,12.3c0,6.2,4.6,11.4,10.6,12.2c0.7,0.1,1.1,0.2,1.7,0.2
	c0.8,0,0.9-0.1,1.8-0.2c6-0.8,10.6-6,10.6-12.2c0-6.7-5.4-12.2-12.1-12.3c-0.1,0-0.1,0-0.2,0S49.9,18.1,49.8,18.1z"/>
<path class="st0" d="M66.8,30.5c0,3.9-1.4,7.5-3.6,10.4c-1.2,1.5-0.5,3.6,1.2,4.3c0,0,0,0,0.1,0c1.1,0.4,2.3,0,3-0.9
	c3-3.8,4.8-8.6,4.8-13.8c0-5.3-1.8-10.1-4.9-14c-0.7-0.9-1.9-1.2-3-0.8c0,0,0,0-0.1,0c-1.8,0.6-2.4,2.8-1.2,4.3
	C65.4,22.8,66.8,26.5,66.8,30.5z"/>
<path class="st0" d="M33.2,30.5c0-4,1.4-7.6,3.7-10.5c1.2-1.5,0.5-3.6-1.2-4.3c0,0,0,0-0.1,0c-1.1-0.4-2.3,0-3,0.8
	c-3.1,3.8-4.9,8.7-4.9,14c0,5.2,1.8,10,4.8,13.8c0.7,0.9,1.9,1.2,3,0.9c0,0,0,0,0.1,0c1.8-0.6,2.4-2.8,1.2-4.3
	C34.5,38,33.2,34.4,33.2,30.5z"/>
<path class="st0" d="M21.8,30.5c0-5.6,1.6-10.8,4.5-15.2c1.1-1.6,0.7-3.8-0.9-5c0,0,0,0-0.1,0c-1.7-1.2-4-0.8-5.2,1
	c-3.6,5.5-5.7,12.2-5.7,19.2c0,7,2.1,13.6,5.6,19.1c1.1,1.7,3.5,2.2,5.2,1c0,0,0,0,0.1,0c1.6-1.1,2-3.3,0.9-4.9
	C23.4,41.2,21.8,36,21.8,30.5z"/>
<path class="st0" d="M78.2,30.5c0,5.6-1.6,10.7-4.4,15.1c-1,1.6-0.6,3.8,0.9,4.9c0,0,0,0,0.1,0c1.7,1.2,4,0.8,5.2-1
	c3.5-5.5,5.6-12.1,5.6-19.1c0-7.1-2.1-13.7-5.7-19.2c-1.1-1.7-3.5-2.2-5.2-1c0,0,0,0-0.1,0c-1.6,1.1-2,3.3-0.9,5
	C76.6,19.6,78.2,24.9,78.2,30.5z"/>
<path class="st0" d="M91.2,30.5c0,8.8-2.8,17.1-7.6,23.8c-1,1.5-1,3.4,0.1,4.8c0.1,0.1,0.1,0.2,0.2,0.3c1.6,2.1,4.8,2.1,6.3-0.1
	c5.8-8.1,9.2-18,9.2-28.7c0-10.7-3.4-20.7-9.3-28.8c-1.6-2.2-4.7-2.2-6.3-0.1c-0.1,0.1-0.1,0.2-0.2,0.2c-1.1,1.4-1.1,3.3-0.1,4.8
	C88.3,13.3,91.2,21.6,91.2,30.5z"/>
<path class="st0" d="M8.8,30.5c0-8.9,2.8-17.1,7.6-23.8c1-1.5,1-3.4-0.1-4.8c-0.1-0.1-0.1-0.2-0.2-0.2c-1.6-2.1-4.8-2.1-6.3,0.1
	C4,9.8,0.6,19.7,0.6,30.5c0,10.7,3.4,20.6,9.2,28.7c1.6,2.2,4.7,2.2,6.3,0.1c0.1-0.1,0.1-0.2,0.2-0.3c1.1-1.4,1.1-3.3,0.1-4.8
	C11.7,47.5,8.8,39.3,8.8,30.5z"/>
<path class="st0" d="M49.8,18.1c0.1,0,0.1,0,0.2,0s0.1,0,0.2,0c-0.1,0-0.1,0-0.2,0S49.9,18.1,49.8,18.1z"/>
</svg>
