<?xml version="1.0" encoding="utf-8"?>
<!-- Generator: Adobe Illustrator 19.0.0, SVG Export Plug-In . SVG Version: 6.00 Build 0)  -->
<svg version="1.1" id="Isolation_Mode" xmlns="http://www.w3.org/2000/svg" xmlns:xlink="http://www.w3.org/1999/xlink" x="0px"
	 y="0px" viewBox="0 0 21 20.2" style="enable-background:new 0 0 21 20.2;" xml:space="preserve">
<style type="text/css">
	.st0{fill:#FFFFFF;}
</style>
<path class="st0" d="M20.6,13.7c-0.7-1.2-3.6-6-4.7-7.9c-0.2-0.3-0.6-0.3-0.8,0l-0.7,1.1c-0.4-0.9-1.1-2.2-1.6-3
	c0.7-0.5,1.1-1.4,0.8-2.3c-0.2-0.7-0.8-1.3-1.5-1.5c-1.4-0.4-2.7,0.7-2.7,2c0,0.5,0.2,1,0.5,1.3L9.3,4.2L9.1,4.1l0,0
	C8.5,3.7,7.7,3.5,7,3.5c-2.3,0-4.2,1.8-4.4,4C2.1,7.8,1.2,8.2,0.2,8.9c-0.3,0.2-0.3,0.6,0,0.8c2.6,1.8,13.1,9.2,14.4,10.1
	c0.1,0.1,0.3,0.1,0.4,0.2c0.7,0.3,1.8,0.3,2.7,0c1.2-0.3,2.2-1.1,2.7-2.2c0.6-1.1,0.8-2.3,0.5-3.3C20.9,14.3,20.7,13.9,20.6,13.7
	 M13.5,7.4c0,0.1,0.1,0.2,0.1,0.3c0,0.3-0.3,0.5-0.5,0.5c-0.1,0-0.3,0-0.4-0.2c-0.1-0.1-1.3-2.3-1.3-2.3c-0.1-0.1-0.2-0.2-0.3-0.1
	c-0.1,0.1-0.2,0.2-0.1,0.3l1,1.7l-1.3,2c-0.2,0.3-0.5,0.4-0.8,0.3C9,9.9,8.3,9.5,7.8,9c-0.2-0.2-0.2-0.4,0-0.6l2.2-3.2l0.7-1.1
	c0.3,0.1,0.5,0.2,0.8,0.2c0.1,0,0.2,0,0.3,0C12.2,4.8,12.9,6.2,13.5,7.4 M11.5,1c0.6,0,1.1,0.5,1.1,1.1c0,0.6-0.5,1.1-1.1,1.1
	s-1.1-0.5-1.1-1.1C10.3,1.5,10.8,1,11.5,1 M17.1,19.1c-0.5,0.1-1.1,0.1-1.6,0c-0.2-0.1-0.4-0.2-0.6-0.3c-1.8-1.3-11.3-8-13.2-9.3
	c-0.2-0.1-0.1-0.3,0-0.4c0.6-0.3,1.4-0.6,1.7-0.6c0,0,0.3-0.1,0.4-0.2c0.1-0.1,0.1-0.3,0.1-0.3c0-1.8,1.4-3.3,3.2-3.4
	c0.6,0,1.1,0.1,1.7,0.4L8.8,5L6.7,8.1c-0.2,0.4-0.2,0.8,0,1.2c0.3,0.4,1.3,1.2,1.7,1.4c2.2,1,4.7,0.2,5.9-1.8l0.9-1.4
	c0.1-0.2,0.3-0.2,0.4,0l4.1,6.8c0.1,0.2,0.2,0.4,0.3,0.6c0.1,0.5,0.1,1-0.1,1.6C19.6,17.7,18.4,18.8,17.1,19.1"/>
</svg>
