<?xml version="1.0" encoding="utf-8"?>
<!-- Generator: Adobe Illustrator 19.0.0, SVG Export Plug-In . SVG Version: 6.00 Build 0)  -->
<svg version="1.1" id="Isolation_Mode" xmlns="http://www.w3.org/2000/svg" xmlns:xlink="http://www.w3.org/1999/xlink" x="0px"
	 y="0px" viewBox="-295 386.8 21 20.2" style="enable-background:new -295 386.8 21 20.2;" xml:space="preserve">
<style type="text/css">
	.st0{fill:#333333;}
</style>
<path class="st0" d="M-274.4,400.5c-0.7-1.2-3.6-6-4.7-7.9c-0.2-0.3-0.6-0.3-0.8,0l-0.7,1.1c-0.4-0.9-1.1-2.2-1.6-3
	c0.7-0.5,1.1-1.4,0.8-2.3c-0.2-0.7-0.8-1.3-1.5-1.5c-1.4-0.4-2.7,0.7-2.7,2c0,0.5,0.2,1,0.5,1.3l-0.6,0.8l-0.2-0.1l0,0
	c-0.6-0.4-1.4-0.6-2.1-0.6c-2.3,0-4.2,1.8-4.4,4c-0.5,0.3-1.4,0.7-2.4,1.4c-0.3,0.2-0.3,0.6,0,0.8c2.6,1.8,13.1,9.2,14.4,10.1
	c0.1,0.1,0.3,0.1,0.4,0.2c0.7,0.3,1.8,0.3,2.7,0c1.2-0.3,2.2-1.1,2.7-2.2c0.6-1.1,0.8-2.3,0.5-3.3
	C-274.1,401.1-274.3,400.7-274.4,400.5 M-281.5,394.2c0,0.1,0.1,0.2,0.1,0.3c0,0.3-0.3,0.5-0.5,0.5c-0.1,0-0.3,0-0.4-0.2
	c-0.1-0.1-1.3-2.3-1.3-2.3c-0.1-0.1-0.2-0.2-0.3-0.1s-0.2,0.2-0.1,0.3l1,1.7l-1.3,2c-0.2,0.3-0.5,0.4-0.8,0.3
	c-0.9,0-1.6-0.4-2.1-0.9c-0.2-0.2-0.2-0.4,0-0.6l2.2-3.2l0.7-1.1c0.3,0.1,0.5,0.2,0.8,0.2c0.1,0,0.2,0,0.3,0
	C-282.8,391.6-282.1,393-281.5,394.2 M-283.5,387.8c0.6,0,1.1,0.5,1.1,1.1s-0.5,1.1-1.1,1.1s-1.1-0.5-1.1-1.1
	C-284.7,388.3-284.2,387.8-283.5,387.8 M-277.9,405.9c-0.5,0.1-1.1,0.1-1.6,0c-0.2-0.1-0.4-0.2-0.6-0.3c-1.8-1.3-11.3-8-13.2-9.3
	c-0.2-0.1-0.1-0.3,0-0.4c0.6-0.3,1.4-0.6,1.7-0.6c0,0,0.3-0.1,0.4-0.2c0.1-0.1,0.1-0.3,0.1-0.3c0-1.8,1.4-3.3,3.2-3.4
	c0.6,0,1.1,0.1,1.7,0.4l0,0l-2.1,3.1c-0.2,0.4-0.2,0.8,0,1.2c0.3,0.4,1.3,1.2,1.7,1.4c2.2,1,4.7,0.2,5.9-1.8l0.9-1.4
	c0.1-0.2,0.3-0.2,0.4,0l4.1,6.8c0.1,0.2,0.2,0.4,0.3,0.6c0.1,0.5,0.1,1-0.1,1.6C-275.4,404.5-276.6,405.6-277.9,405.9"/>
</svg>
