<?xml version="1.0" encoding="utf-8"?>
<!-- Generator: Adobe Illustrator 19.0.0, SVG Export Plug-In . SVG Version: 6.00 Build 0)  -->
<svg version="1.1" id="Layer_1" xmlns="http://www.w3.org/2000/svg" xmlns:xlink="http://www.w3.org/1999/xlink" x="0px" y="0px"
	 viewBox="149.7 233.2 337 276.6" style="enable-background:new 149.7 233.2 337 276.6;" xml:space="preserve">
<style type="text/css">
	.st0{fill:#797A7D;}
</style>
<path class="st0" d="M471.4,509.8H165c-8.6,0-15.3-6.7-15.3-15.3v-246c0-8.6,6.7-15.3,15.3-15.3h306.4c8.6,0,15.3,6.7,15.3,15.3v246
	C486.7,503.1,480,509.8,471.4,509.8z M170.3,489.2h295.2V253.8H170.3V489.2z"/>
<path class="st0" d="M351.3,387.1c-1.2,0-2.4,0-3.7-0.6L321.9,373l-25.7,13.5c-2.4,1.2-5.5,1.2-7.3,0c-2.4-1.2-3.7-3.7-3.7-6.7
	V244.5c0-4.3,3.7-8,8-8h58.8c4.3,0,8,3.7,8,8v135.3c0,2.4-1.2,4.9-3.7,6.7C353.7,386.5,352.5,387.1,351.3,387.1z M299.9,251.9v114.4
	l18.4-9.8c2.4-1.2,4.9-1.2,7.3,0l18.4,9.8V251.9H299.9z"/>
</svg>
