<?xml version="1.0" encoding="utf-8"?>
<!-- Generator: Adobe Illustrator 19.0.0, SVG Export Plug-In . SVG Version: 6.00 Build 0)  -->
<svg version="1.1" id="single_rider" xmlns="http://www.w3.org/2000/svg" xmlns:xlink="http://www.w3.org/1999/xlink" x="0px"
	 y="0px" viewBox="0 0 18.6 27.8" style="enable-background:new 0 0 18.6 27.8;" xml:space="preserve">
<style type="text/css">
	.st0{fill:#036CE6;}
</style>
<path class="st0" d="M11.9,0c-1.6,0-3.1,0.6-4.2,1.5C7.1,1.1,6.5,0.9,5.8,0.9c-1.6,0-3,1.3-3,3C2.8,4.4,3,5,3.3,5.4H3c0,0,0,0-0.1,0
	h0c-0.8,0-1.5,0.3-2,0.8C0,7.1,0,8.4,0,8.7v5.8c0,1.2,0.6,1.8,1,2.1C1.5,16.9,1.9,17,2.1,17c0,0,0,0,0,0l0,8.4
	c0,1.6,1.2,2.4,2.4,2.4c0,0,0,0,0.1,0c0.5,0,0.9-0.1,1.2-0.3c0.4,0.2,0.8,0.3,1.2,0.3c0.1,0,0.1,0,0.2,0c0.6,0,1.2-0.3,1.6-0.7
	c0.6-0.6,0.6-1.4,0.6-1.7l0-8.4c0.6,0,1.2-0.3,1.6-0.7c0.6-0.7,0.6-1.5,0.6-1.8l0-1.1c0.1,0,0.2,0,0.2,0c3.7,0,6.7-3,6.7-6.7
	C18.6,3,15.6,0,11.9,0z M5.8,2.3c0.9,0,1.6,0.7,1.6,1.6c0,0.9-0.7,1.6-1.6,1.6S4.2,4.7,4.2,3.8C4.2,3,4.9,2.3,5.8,2.3z M9.4,15.6
	c0,0-1,0.1-1-1l0-5.4H8.1l0,16.2c0,0,0.1,1-0.9,1c0,0-1.2,0.1-1.2-1v-9.7l-0.3,0l0,9.7c0,0,0,1-1.1,1c0,0-1,0.1-1-1l0-16.2H3.2v5.4
	c0,0,0.1,1.1-1,1.1c0,0-0.8-0.1-0.8-1.1V8.7c0,0,0-1.9,1.6-1.9h5.6c0,0,1.7,0,1.7,1.9l0,5.8C10.3,14.5,10.3,15.6,9.4,15.6z
	 M14.6,9.9h-2.1c-0.4,0-0.7-0.3-0.7-0.7c0-0.4,0.3-0.7,0.7-0.7h0.3V3.8h-0.4h-0.1v0c-0.4,0-0.7-0.4-0.7-0.7c0-0.4,0.3-0.7,0.7-0.7v0
	h0.1h1.2c0.4,0,0.8,0.3,0.8,0.7v5.5h0.3c0.4,0,0.7,0.3,0.7,0.7C15.3,9.6,15,9.9,14.6,9.9z"/>
</svg>
