<?xml version="1.0" encoding="utf-8"?>
<!-- Generator: Adobe Illustrator 19.0.0, SVG Export Plug-In . SVG Version: 6.00 Build 0)  -->
<svg version="1.1" id="Layer_1" xmlns="http://www.w3.org/2000/svg" xmlns:xlink="http://www.w3.org/1999/xlink" x="0px" y="0px"
	 viewBox="42 0 528 633.6" style="enable-background:new 42 0 528 633.6;" xml:space="preserve">
<style type="text/css">
	.st0{fill:#797A7D;}
</style>
<path class="st0" d="M534.8,70.4H394V35.2C394,15.8,378.3,0,358.8,0H253.2C233.7,0,218,15.8,218,35.2v35.2H77.2
	C57.7,70.4,42,86.2,42,105.6v105.6h35.2v352c0,38.9,31.5,70.4,70.4,70.4h316.8c38.9,0,70.4-31.5,70.4-70.4v-352H570V105.6
	C570,86.2,554.3,70.4,534.8,70.4z M253.2,52.8c0-9.7,7.9-17.6,17.6-17.6h70.4c9.7,0,17.6,7.9,17.6,17.6v17.6H253.2V52.8z
	 M499.6,563.2c0,19.5-15.7,35.2-35.2,35.2H147.6c-19.5,0-35.2-15.7-35.2-35.2v-352h387.2V563.2z M534.8,176H77.2v-52.8
	c0-9.7,7.9-17.6,17.6-17.6h422.4c9.7,0,17.6,7.9,17.6,17.6V176z"/>
<path class="st0" d="M429.2,299.2v211.2c0,9.7-7.9,17.6-17.6,17.6c-9.7,0-17.6-7.9-17.6-17.6V299.2c0-9.7,7.9-17.6,17.6-17.6
	C421.3,281.6,429.2,289.5,429.2,299.2z"/>
<path class="st0" d="M323.6,299.2v211.2c0,9.7-7.9,17.6-17.6,17.6s-17.6-7.9-17.6-17.6V299.2c0-9.7,7.9-17.6,17.6-17.6
	S323.6,289.5,323.6,299.2z"/>
<path class="st0" d="M218,299.2v211.2c0,9.7-7.9,17.6-17.6,17.6c-9.7,0-17.6-7.9-17.6-17.6V299.2c0-9.7,7.9-17.6,17.6-17.6
	C210.1,281.6,218,289.5,218,299.2z"/>
</svg>
