<?xml version="1.0" encoding="utf-8"?>
<!-- Generator: Adobe Illustrator 19.0.0, SVG Export Plug-In . SVG Version: 6.00 Build 0)  -->
<svg version="1.1" id="Layer_1" xmlns="http://www.w3.org/2000/svg" xmlns:xlink="http://www.w3.org/1999/xlink" x="0px" y="0px"
	 viewBox="0 0 859.2 606.4" style="enable-background:new 0 0 859.2 606.4;" xml:space="preserve">
<style type="text/css">
	.st0{fill:#797A7D;stroke:#797A7D;stroke-miterlimit:10;}
</style>
<path class="st0" d="M450.6,267.5h-77.7c47.4-22.5,80.3-70.9,80.3-126.8C453.2,63.4,390.3,0.5,313,0.5
	c-77.3,0-140.2,62.9-140.2,140.2c0,55.9,32.9,104.3,80.3,126.8h-75.2c-97.8,0-177.4,76.8-177.4,171.2v140.5
	c0,14.8,12,26.8,26.8,26.8h77c9.7,0,18.2-5.2,22.9-12.9c4.7,7.7,13.2,12.9,22.9,12.9h322.4c9.7,0,18.2-5.2,22.9-12.9
	c4.7,7.7,13.2,12.9,22.9,12.9h77c14.8,0,26.8-12,26.8-26.8V438.7C621.9,342.7,546.7,267.5,450.6,267.5z M207.7,140.7
	c0-58,47.2-105.2,105.2-105.2c58,0,105.2,47.2,105.2,105.2c0,58-47.2,105.2-105.2,105.2C254.9,246,207.7,198.8,207.7,140.7z
	 M586.9,570.9h-60.5V448.1h-62.3v122.8H158.2V448.1H96v122.8H35.5V438.7c0-75.1,63.9-136.2,142.4-136.2h272.7
	c76.4,0,136.3,59.8,136.3,136.2V570.9z"/>
<path class="st0" d="M741.7,198.8h-29.2c22.5-17.8,37-45.4,37-76.3c0-53.7-43.7-97.3-97.3-97.3s-97.3,43.7-97.3,97.3
	c0,30.9,14.5,58.5,37,76.3h-27.6c-34.4,0-65.5,13.9-87.6,36.2c17.2,0.3,33.8,2.8,49.5,7.3c11.5-5.4,24.5-8.5,38.1-8.5h177.4
	c46.3,0,82.5,36.2,82.5,82.4v79.9h-27.1v-79.9h-52.7v79.9H657c0.9,7.7,1.4,15.5,1.4,23.5v11.5h97.5c5.6,0,10.8-2,14.9-5.3
	c4.1,3.3,9.2,5.3,14.9,5.3h50.1c13,0,23.5-10.6,23.5-23.5v-91.4C859.2,250.4,807.6,198.8,741.7,198.8z M652.1,184.8
	c-34.4,0-62.3-28-62.3-62.3c0-34.4,28-62.3,62.3-62.3s62.3,28,62.3,62.3C714.5,156.9,686.5,184.8,652.1,184.8z"/>
</svg>
