<?xml version="1.0" encoding="utf-8"?>
<!-- Generator: Adobe Illustrator 19.0.0, SVG Export Plug-In . SVG Version: 6.00 Build 0)  -->
<svg version="1.1" id="Layer_1" xmlns="http://www.w3.org/2000/svg" xmlns:xlink="http://www.w3.org/1999/xlink" x="0px" y="0px"
	 viewBox="162.5 107.2 390 403.3" style="enable-background:new 162.5 107.2 390 403.3;" xml:space="preserve">
<style type="text/css">
	.st0{fill:none;stroke:#1275E8;stroke-width:28;stroke-miterlimit:10;}
	.st1{fill:none;stroke:#1275E8;stroke-width:13;stroke-miterlimit:10;}
	.st2{display:none;fill:none;stroke:#1275E8;stroke-width:21;stroke-miterlimit:10;}
	.st3{fill:#1275E8;}
</style>
<g>
	<g>
		<path class="st0" d="M542.4,241.4c0-9.9-8.1-18-18-18H195.6c-9.9,0-18,8.1-18,18V478c0,9.9,8.1,18,18,18h328.8c9.9,0,18-8.1,18-18
			v-50.4c0-9.9-8.1-18-18-18h-34.1c-9.9,0-25.4-3.3-34.5-7.3c0,0-33.5-14.8-33.5-42.6c0-27.8,33.5-42.6,33.5-42.6
			c9.1-4,24.6-7.3,34.5-7.3h34.1c9.9,0,18-8.1,18-18V241.4z"/>
	</g>
	<circle class="st1" cx="488.2" cy="359.7" r="20.2"/>
	<path class="st2" d="M501.1,168.9c2.9-2.9,3.8-7.7,1-10.6L471.2,119c-5.8,5.9-13.9,9.5-22.9,9.5c-17.8,0-32.2-14.4-32.2-32.2
		c0-11.7,6.3-22,15.6-27.6l-31.5-40.1c-2.9-2.9-7.7-3.8-10.6-1L199.7,177.5c-1.9,1.9-2.9,3.8-2.9,6.7h285.1L501.1,168.9z"/>
</g>
<polygon class="st3" points="181.2,194.5 481.2,194.5 481.2,107.2 "/>
</svg>
