<?xml version="1.0" encoding="utf-8"?>
<!-- Generator: Adobe Illustrator 19.0.0, SVG Export Plug-In . SVG Version: 6.00 Build 0)  -->
<svg version="1.1" id="Water_Parks__x2F__Water_Ride"
	 xmlns="http://www.w3.org/2000/svg" xmlns:xlink="http://www.w3.org/1999/xlink" x="0px" y="0px" viewBox="0 0 21.9 26.6"
	 style="enable-background:new 0 0 21.9 26.6;" xml:space="preserve">
<style type="text/css">
	.st0{fill:#036CE6;}
</style>
<path class="st0" d="M6.6,22.4c-2.5-0.1-2.7-2.7-2.7-2.8c0-0.2-0.2-0.4-0.5-0.4c-0.2,0-0.4,0.2-0.4,0.5c0.1,1.2,0.9,3.6,3.6,3.7h0
	c0.2,0,0.4-0.2,0.4-0.4C7,22.6,6.8,22.4,6.6,22.4 M14.7,20.7c-0.9,0-1.9-0.3-2.7-0.7c-1.7-1-2.7-2.8-2.7-4.7c0-0.3,0.1-1,0.5-2.2
	c0.9-2.6,3-6.5,4.9-9.7c2.8,4.7,5.4,9.9,5.4,11.9C20.2,18.3,17.7,20.7,14.7,20.7 M11.4,21.8c-0.8,1.8-2.6,2.9-4.6,2.9
	c-2.8,0-5-2.3-5-5c0-2.1,3.2-7.8,5-10.9c0.4,0.7,1,1.6,1.6,2.7c0,0,0.1,0.1,0.1,0.1c-0.1,0.3-0.2,0.6-0.3,0.9
	c-0.4,1.2-0.6,2.1-0.6,2.8c0,2.5,1.4,4.9,3.6,6.2c0.1,0.1,0.3,0.1,0.4,0.2C11.5,21.7,11.4,21.8,11.4,21.8 M15.5,1.2L14.7,0L14,1.2
	c-0.8,1.3-3,5-4.6,8.4c-1-1.7-1.8-2.9-1.8-3L6.8,5.5L6.1,6.7C5.4,7.7,0,16.3,0,19.7c0,3.8,3.1,6.8,6.8,6.8c2.7,0,5.1-1.6,6.2-4
	c0-0.1,0.1-0.2,0.1-0.3c0.5,0.1,1.1,0.2,1.6,0.2c4,0,7.2-3.2,7.2-7.2C21.9,12,17,3.7,15.5,1.2"/>
</svg>
