<?xml version="1.0" encoding="utf-8"?>
<!-- Generator: Adobe Illustrator 19.0.0, SVG Export Plug-In . SVG Version: 6.00 Build 0)  -->
<svg version="1.1" id="Wheelchair_Accessible" xmlns="http://www.w3.org/2000/svg" xmlns:xlink="http://www.w3.org/1999/xlink"
	 x="0px" y="0px" viewBox="0 0 25.9 28" style="enable-background:new 0 0 25.9 28;" xml:space="preserve">
<style type="text/css">
	.st0{fill:#036CE6;}
</style>
<path class="st0" d="M19.2,22.8c0,0.1,0,0.2,0,0.2c-0.8,1.2-3.8,5-9.7,5C4.3,28,0,23.6,0,18.2c0-6.3,4.5-8.2,5.9-8.6
	c0.1,0,0.2,0,0.2,0c0.1,0,0.1,0.1,0.1,0.2L6.5,12c0,0.1-0.1,0.2-0.2,0.3c-1.1,0.4-3.6,1.7-3.6,6.1c0,3.8,3.2,7.1,6.9,7.1
	c3.6,0,6.7-1.9,8.4-5.1c0-0.1,0.1-0.1,0.3-0.1c0.1,0,0.2,0.1,0.2,0.2L19.2,22.8z M9.2,5c1.4,0,2.5-1.1,2.5-2.5
	c0-1.4-1.1-2.5-2.5-2.5C7.8,0,6.7,1.1,6.7,2.5C6.7,3.9,7.8,5,9.2,5z M25.8,23.4c-0.2-0.6-0.9-0.9-1.5-0.7l-1,0.4l-2.4-8.1
	c-0.6-1.6-1.2-1.8-2-1.9h-6.4l-0.2-1.1h4.4c0.6,0,1.2-0.5,1.2-1.2c0-0.6-0.5-1.2-1.2-1.2h-5L11,6.9c-0.3-0.8-1.1-1.3-2-1.3
	c-1.2,0-2,0.9-1.9,2c0.1,2.1,0.7,5.6,0.7,5.6c0.4,2.3,1.1,2.9,2.8,2.9h7.7l2.8,8.4c0.4,1.2,1.1,1.4,1.7,1.2c0,0,2.2-0.8,2.2-0.8
	C25.8,24.7,26.1,24,25.8,23.4z"/>
</svg>
