<?xml version="1.0" encoding="utf-8"?>
<!-- Generator: Adobe Illustrator 19.0.0, SVG Export Plug-In . SVG Version: 6.00 Build 0)  -->
<svg version="1.1" id="Layer_1" xmlns="http://www.w3.org/2000/svg" xmlns:xlink="http://www.w3.org/1999/xlink" x="0px" y="0px"
	 viewBox="0 0 60 55" style="enable-background:new 0 0 60 55;" xml:space="preserve">
<style type="text/css">
	.st0{fill:#797A7D;}
	.st1{fill:none;stroke:#797A7D;stroke-width:1.5;stroke-linecap:round;stroke-miterlimit:10;}
</style>
<g>
	<path class="st0" d="M24.1,1.5c3.5,0,6.3,2.8,6.3,6.3c0,1.7-0.7,3.3-1.8,4.5c-1.2,1.2-2.8,1.8-4.5,1.8c-3.5,0-6.3-2.8-6.3-6.3
		C17.8,4.3,20.6,1.5,24.1,1.5 M24.1,0c-4.3,0-7.8,3.5-7.8,7.8c0,4.3,3.5,7.8,7.8,7.8c0,0,0,0,0,0c0,0,0,0,0,0c4.3,0,7.8-3.5,7.8-7.8
		C31.9,3.5,28.4,0,24.1,0L24.1,0z"/>
</g>
<path class="st1" d="M34,43l0-13.1c0-0.3,0.4-0.3,0.5-0.1l1.8,5.9c1.1,3.1,3.9,3.9,6,1.2l8.4-10.1c2.7-3.4-2.1-7-4.8-4l-5,6l-1-3.3
	c-1.1-4-4.9-7.9-10.6-7.9H18.6c-3.7,0-6.8,2.3-8.5,4.7c-0.9,1.2-1.4,2.7-1.4,4.3l0,16.6"/>
<polyline class="st0" points="0,46 0,55 60,55 60,46 "/>
<path class="st0" d="M49.5,9.1v10c2.5,0,4.5,2,4.5,4.5h2c0-0.8,0.7-1.5,1.5-1.5v-13c-0.8,0-1.5-0.7-1.5-1.5h-5
	C51,8.4,50.3,9.1,49.5,9.1z"/>
<line class="st1" x1="15" y1="43" x2="15" y2="30"/>
</svg>
