<?xml version="1.0" encoding="utf-8"?>
<!-- Generator: Adobe Illustrator 19.0.0, SVG Export Plug-In . SVG Version: 6.00 Build 0)  -->
<svg version="1.1" id="Layer_1" xmlns="http://www.w3.org/2000/svg" xmlns:xlink="http://www.w3.org/1999/xlink" x="0px" y="0px"
	 viewBox="0 0 58.5 89" style="enable-background:new 0 0 58.5 89;" xml:space="preserve">
<style type="text/css">
	.st0{fill:#797A7D;}
</style>
<path class="st0" d="M45,20.4V6c0-3.3-2.7-6-6-6H20.5c-3.3,0-6,2.7-6,6v13.8C5.8,24.8,0,34.2,0,45s5.8,20.2,14.5,25.2V83
	c0,3.3,2.7,6,6,6H39c3.3,0,6-2.7,6-6V69.6c8.1-5.2,13.5-14.3,13.5-24.6S53.1,25.6,45,20.4z M45,62.1c-1.8,1.6-3.8,3-6,4
	c-3,1.4-6.3,2.1-9.7,2.1c-3.1,0-6-0.6-8.8-1.7c-2.2-0.9-4.2-2.1-6-3.6C9.3,58.6,6,52.2,6,44.9s3.3-13.7,8.5-18
	c1.8-1.5,3.8-2.7,6-3.6c2.7-1.1,5.7-1.7,8.8-1.7c3.5,0,6.8,0.8,9.7,2.1c2.2,1,4.2,2.4,6,4c4.6,4.3,7.5,10.3,7.5,17.1
	S49.6,57.8,45,62.1z"/>
</svg>
