<?xml version="1.0" encoding="utf-8"?>
<!-- Generator: Adobe Illustrator 19.0.0, SVG Export Plug-In . SVG Version: 6.00 Build 0)  -->
<svg version="1.1" id="Layer_1" xmlns="http://www.w3.org/2000/svg" xmlns:xlink="http://www.w3.org/1999/xlink" x="0px" y="0px"
	 viewBox="-235 339.5 58.5 89" style="enable-background:new -235 339.5 58.5 89;" xml:space="preserve">
<style type="text/css">
	.st0{fill:#FFFFFF;}
</style>
<path class="st0" d="M-190,359.9v-14.4c0-3.3-2.7-6-6-6h-18.5c-3.3,0-6,2.7-6,6v13.8c-8.7,5-14.5,14.4-14.5,25.2s5.8,20.2,14.5,25.2
	v12.8c0,3.3,2.7,6,6,6h18.5c3.3,0,6-2.7,6-6v-13.4c8.1-5.2,13.5-14.3,13.5-24.6S-181.9,365.1-190,359.9z M-190,401.6
	c-1.8,1.6-3.8,3-6,4c-3,1.4-6.3,2.1-9.7,2.1c-3.1,0-6-0.6-8.8-1.7c-2.2-0.9-4.2-2.1-6-3.6c-5.2-4.3-8.5-10.7-8.5-18
	c0-7.3,3.3-13.7,8.5-18c1.8-1.5,3.8-2.7,6-3.6c2.7-1.1,5.7-1.7,8.8-1.7c3.5,0,6.8,0.8,9.7,2.1c2.2,1,4.2,2.4,6,4
	c4.6,4.3,7.5,10.3,7.5,17.1C-182.5,391.1-185.4,397.3-190,401.6z"/>
</svg>
