<?xml version="1.0" encoding="utf-8"?>
<!-- Generator: Adobe Illustrator 19.0.0, SVG Export Plug-In . SVG Version: 6.00 Build 0)  -->
<svg version="1.1" id="Layer_1" xmlns="http://www.w3.org/2000/svg" xmlns:xlink="http://www.w3.org/1999/xlink" x="0px" y="0px"
	 viewBox="344.2 193 103.5 103.5" style="enable-background:new 344.2 193 103.5 103.5;" xml:space="preserve">
<style type="text/css">
	.st0{fill:#797A7D;}
</style>
<path class="st0" d="M408.1,244.8l37.1-37.1c3.3-3.3,3.3-8.8,0-12.1c-3.3-3.3-8.8-3.3-12.1,0L396,232.7l-37.1-37.1
	c-3.3-3.3-8.8-3.3-12.1,0c-3.3,3.3-3.3,8.8,0,12.1l37.1,37.1l-37.1,37.1c-3.3,3.3-3.3,8.8,0,12.1c1.7,1.7,3.9,2.5,6.1,2.5
	s4.4-0.8,6.1-2.5l37.1-37.1l37.1,37.1c1.7,1.7,3.9,2.5,6.1,2.5s4.4-0.8,6.1-2.5c3.3-3.3,3.3-8.8,0-12.1L408.1,244.8z"/>
</svg>
